<svg width="116" height="54" viewBox="0 0 116 54" fill="none" xmlns="http://www.w3.org/2000/svg">
<path d="M1.71623 44.135H0.100586L7.37099 30.2766H9.5925L16.8629 44.135H15.1665L13.3691 40.6604H3.51363L1.71623 44.135ZM4.30126 39.2626H12.6218L8.46155 31.2751L4.30126 39.2626Z" fill="#050626"/>
<path d="M26.3892 44.1749H22.4713C20.9768 44.1749 19.8728 43.8421 19.1592 43.1765C18.4591 42.4975 18.109 41.5257 18.109 40.261V34.2704H19.5631V40.3808C19.5631 41.2328 19.8189 41.8785 20.3305 42.3178C20.8422 42.7571 21.5557 42.9768 22.4713 42.9768H26.3892C27.1701 42.9768 27.8366 42.7704 28.3886 42.3577C28.9944 41.9051 29.2974 41.2861 29.2974 40.5006V34.2704H30.7514V44.135H29.3378V42.9368C29.0819 43.2164 28.8463 43.4227 28.6309 43.5559C27.9847 43.9686 27.2374 44.1749 26.3892 44.1749Z" fill="#050626"/>
<path d="M34.7005 40.6204V35.4286H42.2334V34.2304H34.7005V32.3134H33.2464V34.2304H31.9943V35.4286H33.2464V40.4008C33.2464 41.6522 33.556 42.5907 34.1754 43.2164C34.8082 43.8288 35.6968 44.135 36.8412 44.135H38.9213C40.6043 44.135 41.7958 43.6624 42.4959 42.7172C42.9402 42.1181 43.1624 41.3526 43.1624 40.4208V40.1412H41.7083V40.261C41.7083 41.0731 41.567 41.6655 41.2842 42.0382C40.8399 42.6373 40.0052 42.9368 38.78 42.9368H36.8412C36.2084 42.9368 35.7035 42.7505 35.3265 42.3777C34.9091 41.965 34.7005 41.3793 34.7005 40.6204Z" fill="#050626"/>
<path d="M44.4335 38.1044C44.4335 36.9063 44.7633 35.981 45.423 35.3287C46.1635 34.5965 47.2878 34.2304 48.7957 34.2304H52.7944C54.3427 34.2304 55.4804 34.6165 56.2075 35.3886C56.8403 36.0543 57.1567 36.9595 57.1567 38.1044V40.261C57.1567 41.4059 56.8335 42.3178 56.1873 42.9967C55.4333 43.7822 54.3024 44.1749 52.7944 44.1749H48.7957C47.3282 44.1749 46.2309 43.8487 45.5038 43.1964C44.7902 42.5308 44.4335 41.5523 44.4335 40.261L44.3931 39.1827L44.4335 38.1044ZM45.8875 40.261C45.8875 42.0715 46.8906 42.9768 48.8967 42.9768H52.6934C53.6359 42.9768 54.3697 42.7571 54.8948 42.3178C55.4333 41.8652 55.7026 41.1796 55.7026 40.261V38.1044C55.7026 37.2391 55.44 36.5801 54.9149 36.1275C54.4033 35.6615 53.6628 35.4286 52.6934 35.4286H48.8967C47.8869 35.4286 47.1329 35.6416 46.6348 36.0676C46.1366 36.4936 45.8875 37.1725 45.8875 38.1044V40.261Z" fill="#050626"/>
<path d="M59.0918 34.1905C59.0918 32.806 59.4553 31.8076 60.1824 31.1952C60.9094 30.5828 62.0673 30.2766 63.656 30.2766H70.7244C73.9019 30.2766 75.4906 31.5812 75.4906 34.1905H74.0365C74.0365 33.3651 73.7807 32.7527 73.2691 32.3534C72.6901 31.9007 71.7409 31.6744 70.4215 31.6744H63.6762C62.4241 31.6744 61.5759 31.8808 61.1315 32.2935C60.7411 32.6529 60.5459 33.2852 60.5459 34.1905C60.5459 34.9892 60.7613 35.5284 61.1921 35.808C61.7038 36.1408 62.6866 36.3072 64.1407 36.3072H70.4013C72.2189 36.3072 73.5383 36.6001 74.3596 37.1858C75.1944 37.7583 75.6118 38.6768 75.6118 39.9415V40.2211C75.6118 41.6588 75.255 42.6706 74.5414 43.2563C73.8278 43.8421 72.6497 44.135 71.0072 44.135H63.7772C62.3365 44.135 61.2258 43.8155 60.4449 43.1765C59.6236 42.4975 59.213 41.4991 59.213 40.1811H60.6671C60.6671 41.0198 60.9161 41.6389 61.4143 42.0382C61.9932 42.5042 62.9424 42.7371 64.2619 42.7371H70.886C71.99 42.7371 72.8113 42.5375 73.3499 42.1381C73.8884 41.7254 74.1577 41.0731 74.1577 40.1811C74.1577 39.2759 73.9153 38.6369 73.4306 38.2641C72.9594 37.8914 72.0775 37.705 70.785 37.705H63.7368C61.9326 37.705 60.6872 37.4121 60.0006 36.8264C59.3947 36.3072 59.0918 35.4286 59.0918 34.1905Z" fill="#050626"/>
<path d="M79.608 40.6204V35.4286H87.1409V34.2304H79.608V32.3134H78.1539V34.2304H76.9018V35.4286H78.1539V40.4008C78.1539 41.6522 78.4635 42.5907 79.0829 43.2164C79.7157 43.8288 80.6043 44.135 81.7487 44.135H83.8288C85.5118 44.135 86.7033 43.6624 87.4034 42.7172C87.8477 42.1181 88.0699 41.3526 88.0699 40.4208V40.1412H86.6158V40.261C86.6158 41.0731 86.4744 41.6655 86.1917 42.0382C85.7474 42.6373 84.9127 42.9368 83.6875 42.9368H81.7487C81.1159 42.9368 80.611 42.7505 80.234 42.3777C79.8166 41.965 79.608 41.3793 79.608 40.6204Z" fill="#050626"/>
<path d="M89.341 38.1044C89.341 36.9063 89.6708 35.981 90.3305 35.3287C91.071 34.5965 92.1953 34.2304 93.7032 34.2304H97.7019C99.2502 34.2304 100.388 34.6165 101.115 35.3886C101.748 36.0543 102.064 36.9595 102.064 38.1044V40.261C102.064 41.4059 101.741 42.3178 101.095 42.9967C100.341 43.7822 99.2098 44.1749 97.7019 44.1749H93.7032C92.2356 44.1749 91.1384 43.8487 90.4113 43.1964C89.6977 42.5308 89.341 41.5523 89.341 40.261L89.3006 39.1827L89.341 38.1044ZM90.795 40.261C90.795 42.0715 91.7981 42.9768 93.8042 42.9768H97.6009C98.5434 42.9768 99.2772 42.7571 99.8022 42.3178C100.341 41.8652 100.61 41.1796 100.61 40.261V38.1044C100.61 37.2391 100.348 36.5801 99.8224 36.1275C99.3108 35.6615 98.5703 35.4286 97.6009 35.4286H93.8042C92.7944 35.4286 92.0404 35.6416 91.5423 36.0676C91.0441 36.4936 90.795 37.1725 90.795 38.1044V40.261Z" fill="#050626"/>
<path d="M103.797 34.2704H105.575L109.331 37.9047L113.007 34.2704H114.784L110.179 38.7833L115.592 44.135H113.774L109.291 39.7019L104.767 44.135H103.03L108.402 38.7833L103.797 34.2704Z" fill="#050626"/>
<path d="M61.2713 52.8506H60.8384L63.4631 49.137H64.0584L65.3302 52.8506H64.8756L64.5617 51.9195H61.9207L61.2713 52.8506ZM62.2022 51.545H64.4318L63.7066 49.4045L62.2022 51.545Z" fill="#050626"/>
<path d="M66.5137 50.5068L66.3622 51.3416H68.3808C68.7127 51.3416 68.9004 51.2203 68.9436 50.9777L68.9653 50.8707C68.9689 50.8529 68.9707 50.8297 68.9707 50.8012C68.9707 50.6049 68.821 50.5068 68.5215 50.5068H66.5137ZM65.6966 52.8506L66.1836 50.1858H68.5269C68.8084 50.1858 69.0176 50.2339 69.1547 50.3303C69.2954 50.4266 69.3658 50.5621 69.3658 50.7369C69.3658 50.7583 69.3658 50.7797 69.3658 50.8012C69.3586 50.8333 69.3549 50.8564 69.3549 50.8707L69.3333 50.9777C69.308 51.1169 69.2485 51.2328 69.1547 51.3256C69.0609 51.4147 68.9491 51.47 68.8192 51.4914C68.9563 51.5236 69.0573 51.5806 69.1222 51.6627C69.1872 51.7412 69.2196 51.8339 69.2196 51.9409C69.2196 51.9623 69.216 51.9944 69.2088 52.0373L69.1872 52.155C69.1475 52.3762 69.0375 52.5474 68.8571 52.6687C68.6803 52.79 68.4277 52.8506 68.0994 52.8506H65.6966ZM66.3027 51.6627L66.1457 52.5189H68.1481C68.5378 52.5189 68.7542 52.3976 68.7975 52.155L68.8192 52.0373C68.8264 51.9873 68.83 51.9516 68.83 51.9302C68.83 51.8446 68.7885 51.7786 68.7055 51.7322C68.6225 51.6859 68.4692 51.6627 68.2455 51.6627H66.3027Z" fill="#050626"/>
<path d="M71.3534 52.8506H70.9638L71.3859 50.5282H69.9247L69.9842 50.2072H73.2963L73.2367 50.5282H71.7755L71.3534 52.8506Z" fill="#050626"/>
<path d="M73.5126 51.2346C73.5811 50.91 73.7164 50.662 73.9184 50.4908C74.1493 50.2946 74.4668 50.1965 74.8709 50.1965H75.9425C76.296 50.1965 76.5576 50.275 76.7272 50.4319C76.8715 50.5675 76.9436 50.7566 76.9436 50.9991C76.9436 51.0455 76.9436 51.0919 76.9436 51.1383C76.9328 51.1846 76.9256 51.2168 76.922 51.2346L76.8192 51.8125C76.7542 52.1229 76.6225 52.3672 76.4241 52.5456C76.186 52.7561 75.8649 52.8613 75.4608 52.8613H74.3893C74.0501 52.8613 73.7976 52.7953 73.6316 52.6633C73.4693 52.5278 73.3881 52.328 73.3881 52.064C73.3881 52.0248 73.3881 51.9927 73.3881 51.9677C73.3881 51.9392 73.3953 51.8874 73.4097 51.8125L73.453 51.5236L73.5126 51.2346ZM73.7994 51.8125C73.7886 51.8839 73.7831 51.9463 73.7831 51.9998C73.7831 52.3601 74.0122 52.5403 74.4704 52.5403H75.4879C75.7404 52.5403 75.9461 52.4832 76.1048 52.369C76.278 52.2442 76.3862 52.0587 76.4295 51.8125L76.5323 51.2346C76.5432 51.1739 76.5486 51.1169 76.5486 51.0634C76.5486 50.6995 76.3177 50.5175 75.8559 50.5175H74.8384C74.5679 50.5175 74.3568 50.5746 74.2053 50.6888C74.0573 50.7994 73.9563 50.9813 73.9022 51.2346L73.7994 51.8125Z" fill="#050626"/>
<path d="M77.2944 51.8553C77.3305 51.6627 77.4225 51.5146 77.5704 51.4112C77.7364 51.2935 77.9601 51.2346 78.2415 51.2346H79.8001C79.9841 51.2346 80.114 51.2685 80.1897 51.3363C80.215 51.3577 80.2348 51.3933 80.2493 51.4433L80.3196 51.0794C80.3268 51.0295 80.3304 50.9902 80.3304 50.9617C80.3304 50.8261 80.289 50.7227 80.206 50.6513C80.1122 50.5693 79.9661 50.5282 79.7676 50.5282H78.734C78.4598 50.5282 78.2577 50.5853 78.1278 50.6995C78.0846 50.7352 78.0467 50.7922 78.0142 50.8707L77.9926 50.967H77.5921L77.6137 50.8707C77.5957 50.7209 77.7021 50.5675 77.933 50.4105C78.1315 50.275 78.3858 50.2072 78.6961 50.2072H79.8704C80.1699 50.2072 80.3882 50.2643 80.5253 50.3784C80.6624 50.4926 80.7309 50.662 80.7309 50.8868C80.7309 50.9367 80.7309 50.9867 80.7309 51.0366C80.7201 51.083 80.7129 51.1169 80.7093 51.1383L80.3954 52.8506H80.0057L80.0436 52.6366C79.9895 52.6865 79.9444 52.7222 79.9083 52.7436C79.7929 52.8149 79.6666 52.8506 79.5295 52.8506H78.0142C77.7544 52.8506 77.5578 52.8096 77.4243 52.7275C77.2908 52.6419 77.2241 52.5082 77.2241 52.3262C77.2241 52.2798 77.2295 52.2299 77.2403 52.1764L77.2944 51.8553ZM78.3281 51.5557C78.0972 51.5557 77.9366 51.586 77.8464 51.6466C77.7562 51.7073 77.6985 51.8054 77.6733 51.9409L77.6354 52.1336C77.6282 52.1764 77.6246 52.2085 77.6246 52.2299C77.6246 52.3298 77.6624 52.4029 77.7382 52.4493C77.8176 52.4957 77.9547 52.5189 78.1495 52.5189H79.47C79.6756 52.5189 79.8308 52.4814 79.9354 52.4065C80.0436 52.328 80.1122 52.2049 80.141 52.0373C80.1483 52.0159 80.1519 51.9927 80.1519 51.9677C80.1519 51.9427 80.1519 51.9249 80.1519 51.9142C80.1519 51.6752 79.9841 51.5557 79.6486 51.5557H78.3281Z" fill="#050626"/>
<path d="M81.0174 52.8506L81.4991 50.2072H81.8887L81.7047 51.2132H82.1268L83.7179 50.2072H84.3403L82.4353 51.3844L83.9993 52.8506H83.4365L82.0619 51.5343H81.6452L81.4071 52.8506H81.0174Z" fill="#050626"/>
<path d="M85.8237 50.5175C85.5928 50.5175 85.4034 50.5764 85.2555 50.6941C85.1112 50.8083 85.0174 50.9813 84.9741 51.2132L84.855 51.8767C84.8442 51.9302 84.8388 51.9784 84.8388 52.0212C84.8388 52.1853 84.8929 52.3137 85.0011 52.4065C85.113 52.4957 85.2555 52.5403 85.4287 52.5403H86.6193C86.9079 52.5403 87.1298 52.4636 87.2849 52.3102C87.3823 52.2138 87.4437 52.1015 87.4689 51.973L87.4743 51.9195H87.864L87.8586 51.9623C87.8333 52.0979 87.7882 52.2174 87.7233 52.3209C87.4996 52.6812 87.1153 52.8613 86.5705 52.8613H85.3691C85.0552 52.8613 84.8225 52.7971 84.671 52.6687C84.5195 52.5403 84.4437 52.3565 84.4437 52.1175C84.4437 52.089 84.4437 52.0587 84.4437 52.0266C84.4437 51.9944 84.4509 51.9445 84.4654 51.8767L84.5844 51.2132C84.6385 50.91 84.772 50.6692 84.9849 50.4908C85.2158 50.2946 85.5152 50.1965 85.8833 50.1965H87.0522L87.063 50.2072C87.4382 50.2072 87.7052 50.2982 87.864 50.4801C87.9722 50.6049 88.0263 50.7637 88.0263 50.9563C88.0263 51.0063 88.0227 51.0491 88.0155 51.0848L88.0101 51.1276H87.6204L87.6258 51.0955C87.6295 51.0812 87.6313 51.0509 87.6313 51.0045C87.6313 50.8761 87.5952 50.7726 87.523 50.6941C87.4184 50.5764 87.2416 50.5175 86.9927 50.5175H85.8237Z" fill="#050626"/>
<path d="M91.516 51.2346C91.5268 51.1739 91.5322 51.1169 91.5322 51.0634C91.5322 50.8921 91.4799 50.7583 91.3753 50.662C91.2706 50.5657 91.1209 50.5175 90.9261 50.5175H89.703C89.4974 50.5175 89.3188 50.5835 89.1672 50.7155C89.0193 50.844 88.9255 51.017 88.8858 51.2346H91.516ZM88.8317 51.5557L88.783 51.8125C88.7758 51.8482 88.7704 51.8821 88.7668 51.9142C88.7632 51.9463 88.7614 51.9802 88.7614 52.0159C88.7614 52.2014 88.8173 52.3351 88.9291 52.4172C89.0446 52.4992 89.1979 52.5403 89.3891 52.5403H90.6609C90.8665 52.5403 91.0289 52.4957 91.148 52.4065C91.267 52.3137 91.341 52.1978 91.3698 52.0587L91.3753 52.0051H91.7649L91.7595 52.0587C91.7198 52.262 91.6206 52.4368 91.4618 52.5831C91.2598 52.7686 90.9928 52.8613 90.6609 52.8613H89.3512C88.6874 52.8613 88.3555 52.6134 88.3555 52.1175C88.3555 52.0497 88.3645 51.9659 88.3825 51.866L88.5124 51.1704C88.5593 50.91 88.6964 50.687 88.9237 50.5015C89.1727 50.2982 89.4721 50.1965 89.8221 50.1965H90.9477C91.2724 50.1965 91.5232 50.2714 91.7 50.4212C91.8623 50.5568 91.9435 50.7369 91.9435 50.9617C91.9435 51.0188 91.9381 51.0741 91.9273 51.1276L91.8515 51.5557H88.8317Z" fill="#050626"/>
<path d="M93.6349 50.5175C93.404 50.5175 93.2146 50.5764 93.0667 50.6941C92.9223 50.8083 92.8285 50.9813 92.7852 51.2132L92.6662 51.8767C92.6554 51.9302 92.6499 51.9784 92.6499 52.0212C92.6499 52.1853 92.7041 52.3137 92.8123 52.4065C92.9241 52.4957 93.0667 52.5403 93.2398 52.5403H94.4304C94.7191 52.5403 94.9409 52.4636 95.0961 52.3102C95.1935 52.2138 95.2548 52.1015 95.2801 51.973L95.2855 51.9195H95.6751L95.6697 51.9623C95.6445 52.0979 95.5994 52.2174 95.5344 52.3209C95.3107 52.6812 94.9265 52.8613 94.3817 52.8613H93.1803C92.8664 52.8613 92.6337 52.7971 92.4822 52.6687C92.3306 52.5403 92.2549 52.3565 92.2549 52.1175C92.2549 52.089 92.2549 52.0587 92.2549 52.0266C92.2549 51.9944 92.2621 51.9445 92.2765 51.8767L92.3956 51.2132C92.4497 50.91 92.5832 50.6692 92.7961 50.4908C93.027 50.2946 93.3264 50.1965 93.6944 50.1965H94.8634L94.8742 50.2072C95.2494 50.2072 95.5164 50.2982 95.6751 50.4801C95.7834 50.6049 95.8375 50.7637 95.8375 50.9563C95.8375 51.0063 95.8339 51.0491 95.8267 51.0848L95.8213 51.1276H95.4316L95.437 51.0955C95.4406 51.0812 95.4424 51.0509 95.4424 51.0045C95.4424 50.8761 95.4064 50.7726 95.3342 50.6941C95.2296 50.5764 95.0528 50.5175 94.8038 50.5175H93.6349Z" fill="#050626"/>
<path d="M97.5088 50.5175C97.2779 50.5175 97.0884 50.5764 96.9405 50.6941C96.7962 50.8083 96.7024 50.9813 96.6591 51.2132L96.5401 51.8767C96.5292 51.9302 96.5238 51.9784 96.5238 52.0212C96.5238 52.1853 96.5779 52.3137 96.6862 52.4065C96.798 52.4957 96.9405 52.5403 97.1137 52.5403H98.3043C98.5929 52.5403 98.8148 52.4636 98.97 52.3102C99.0674 52.2138 99.1287 52.1015 99.154 51.973L99.1594 51.9195H99.549L99.5436 51.9623C99.5183 52.0979 99.4732 52.2174 99.4083 52.3209C99.1846 52.6812 98.8004 52.8613 98.2556 52.8613H97.0542C96.7403 52.8613 96.5076 52.7971 96.3561 52.6687C96.2045 52.5403 96.1288 52.3565 96.1288 52.1175C96.1288 52.089 96.1288 52.0587 96.1288 52.0266C96.1288 51.9944 96.136 51.9445 96.1504 51.8767L96.2695 51.2132C96.3236 50.91 96.4571 50.6692 96.6699 50.4908C96.9008 50.2946 97.2003 50.1965 97.5683 50.1965H98.7372L98.7481 50.2072C99.1233 50.2072 99.3903 50.2982 99.549 50.4801C99.6572 50.6049 99.7114 50.7637 99.7114 50.9563C99.7114 51.0063 99.7078 51.0491 99.7005 51.0848L99.6951 51.1276H99.3055L99.3109 51.0955C99.3145 51.0812 99.3163 51.0509 99.3163 51.0045C99.3163 50.8761 99.2802 50.7726 99.2081 50.6941C99.1034 50.5764 98.9267 50.5175 98.6777 50.5175H97.5088Z" fill="#050626"/>
<path d="M100.111 50.2072H100.517L101.35 52.476H101.426L102.822 50.2072H103.228L101.339 53.1984C101.155 53.491 100.989 53.689 100.841 53.7924C100.657 53.9208 100.409 53.9851 100.095 53.9851H99.9647L100.024 53.664H100.252C100.457 53.664 100.632 53.5909 100.777 53.4446C100.863 53.359 101.002 53.161 101.193 52.8506H101.096L100.111 50.2072Z" fill="#050626"/>
<path d="M103.244 51.8553C103.28 51.6627 103.372 51.5146 103.52 51.4112C103.686 51.2935 103.909 51.2346 104.191 51.2346H105.749C105.933 51.2346 106.063 51.2685 106.139 51.3363C106.164 51.3577 106.184 51.3933 106.198 51.4433L106.269 51.0794C106.276 51.0295 106.28 50.9902 106.28 50.9617C106.28 50.8261 106.238 50.7227 106.155 50.6513C106.061 50.5693 105.915 50.5282 105.717 50.5282H104.683C104.409 50.5282 104.207 50.5853 104.077 50.6995C104.034 50.7352 103.996 50.7922 103.963 50.8707L103.942 50.967H103.541L103.563 50.8707C103.545 50.7209 103.651 50.5675 103.882 50.4105C104.081 50.275 104.335 50.2072 104.645 50.2072H105.82C106.119 50.2072 106.337 50.2643 106.474 50.3784C106.612 50.4926 106.68 50.662 106.68 50.8868C106.68 50.9367 106.68 50.9867 106.68 51.0366C106.669 51.083 106.662 51.1169 106.658 51.1383L106.345 52.8506H105.955L105.993 52.6366C105.939 52.6865 105.894 52.7222 105.857 52.7436C105.742 52.8149 105.616 52.8506 105.479 52.8506H103.963C103.704 52.8506 103.507 52.8096 103.373 52.7275C103.24 52.6419 103.173 52.5082 103.173 52.3262C103.173 52.2798 103.179 52.2299 103.189 52.1764L103.244 51.8553ZM104.277 51.5557C104.046 51.5557 103.886 51.586 103.796 51.6466C103.705 51.7073 103.648 51.8054 103.622 51.9409L103.585 52.1336C103.577 52.1764 103.574 52.2085 103.574 52.2299C103.574 52.3298 103.612 52.4029 103.687 52.4493C103.767 52.4957 103.904 52.5189 104.099 52.5189H105.419C105.625 52.5189 105.78 52.4814 105.885 52.4065C105.993 52.328 106.061 52.2049 106.09 52.0373C106.097 52.0159 106.101 51.9927 106.101 51.9677C106.101 51.9427 106.101 51.9249 106.101 51.9142C106.101 51.6752 105.933 51.5557 105.598 51.5557H104.277Z" fill="#050626"/>
<path d="M109.635 50.2072C109.981 50.2072 110.233 50.2839 110.392 50.4373C110.533 50.5728 110.603 50.7637 110.603 51.0098C110.603 51.0705 110.6 51.1204 110.592 51.1597C110.585 51.1989 110.582 51.2275 110.582 51.2453L110.479 51.8232C110.41 52.1478 110.273 52.3976 110.068 52.5724C109.844 52.765 109.539 52.8613 109.153 52.8613H108.103C107.858 52.8613 107.663 52.8114 107.519 52.7115C107.472 52.6794 107.425 52.6294 107.378 52.5617L107.129 53.9315H106.739L107.416 50.2072H107.805L107.751 50.4961C107.82 50.4319 107.883 50.3838 107.941 50.3517C108.114 50.2553 108.318 50.2072 108.552 50.2072H109.635ZM107.605 51.2453L107.54 51.5343L107.502 51.8232C107.492 51.8767 107.486 51.9302 107.486 51.9837C107.486 52.1514 107.544 52.287 107.659 52.3904C107.778 52.4903 107.957 52.5403 108.195 52.5403H109.066C109.362 52.5403 109.595 52.485 109.764 52.3744C109.934 52.2602 110.042 52.0765 110.089 51.8232L110.192 51.2453C110.203 51.1811 110.208 51.1222 110.208 51.0687C110.208 50.8903 110.141 50.7566 110.008 50.6674C109.878 50.5746 109.687 50.5282 109.434 50.5282H108.568C108.294 50.5282 108.074 50.5942 107.908 50.7262C107.746 50.8582 107.645 51.0312 107.605 51.2453Z" fill="#050626"/>
<path d="M114.315 51.8553C114.322 51.8268 114.326 51.7822 114.326 51.7215C114.326 51.5681 114.266 51.4486 114.147 51.363C114.032 51.2774 113.848 51.2346 113.595 51.2346H111.517L111.706 50.2072H111.306L110.824 52.8506H113.238C113.534 52.8506 113.766 52.7953 113.936 52.6847C114.109 52.5741 114.217 52.4047 114.261 52.1764L114.315 51.8553ZM111.463 51.5557H113.4C113.599 51.5557 113.736 51.5788 113.812 51.6252C113.887 51.668 113.925 51.7376 113.925 51.8339C113.925 51.8553 113.922 51.891 113.914 51.9409L113.876 52.1336C113.851 52.262 113.795 52.3565 113.709 52.4172C113.6 52.4921 113.436 52.5296 113.216 52.5296H111.284L111.463 51.5557ZM114.732 52.8506L115.213 50.2072H115.603L115.121 52.8506H114.732Z" fill="#050626"/>
<path d="M39.589 8.71485C37.9089 9.62383 37.0162 10.3662 36.4329 11.4139C35.6953 14.155 35.3159 18.2993 35.3561 22.0457C49.8808 18.2436 66.1174 18.2575 80.6421 22.0457C80.6825 18.2993 80.303 14.155 79.5656 11.4139C78.9823 10.3659 78.0891 9.62383 76.4088 8.71485C78.1852 8.78649 80.6728 8.46216 81.886 8.07202C82.1134 6.13726 77.4097 5.80529 76.4922 6.19049C76.2664 6.28573 75.8139 7.07477 75.5656 7.75757C73.9864 5.33115 70.9345 2.70999 68.816 1.3044C64.9948 0.00033178 51.068 0.0838855 47.1822 1.3044C45.8024 2.22034 44.0265 3.65221 42.5193 5.20963C42.5339 5.20245 42.5484 5.19503 42.5636 5.18807C44.5994 3.92623 47.6667 2.34478 48.5154 2.17228C52.3448 1.39222 65.281 1.76866 67.1015 2.36185C67.8956 2.62082 68.7218 3.15583 69.5 3.79978C68.6972 3.41121 67.8011 3.1026 66.8298 2.97053C65.3969 2.77535 61.5683 2.67809 57.8516 2.67315L55.99 6.23451C61.756 6.22261 67.5401 6.43464 72.3234 6.76301C72.5737 7.08555 72.7804 7.37484 72.9321 7.60529C61.3328 6.92967 50.5844 6.81782 40.5054 7.97117C40.2834 7.24996 39.7566 6.29583 39.5061 6.19027C38.5891 5.80507 33.8853 6.13726 34.1125 8.0718C35.3259 8.46194 37.8131 8.78649 39.589 8.71485ZM65.4484 17.1675C61.8087 16.6441 54.19 16.6441 50.5503 17.1675C48.8187 17.4163 47.1647 18.1185 45.9306 18.9353C47.0825 17.9154 48.6074 16.7713 50.376 16.4606C53.2619 15.9537 62.7366 15.9537 65.6222 16.4606C67.3906 16.7713 68.9162 17.9154 70.0681 18.9353C68.8333 18.1185 67.1801 17.4163 65.4484 17.1675ZM70.9884 10.7567C72.2918 10.339 78.9757 10.6988 78.6531 12.7986C75.5801 12.5999 71.7648 12.8222 69.4362 13.3869C69.5761 12.1614 70.5027 10.9124 70.9884 10.7567ZM79.2585 16.1273C69.209 14.3558 46.7322 14.3617 36.7404 16.1273C45.2741 13.1086 70.4657 13.1086 79.2585 16.1273ZM44.9856 10.7567C45.471 10.9126 46.3985 12.1617 46.5378 13.3867C44.2087 12.822 40.394 12.5999 37.3211 12.7984C36.9987 10.6988 43.6824 10.3388 44.9856 10.7567ZM50.8585 2.80881L48.7814 6.37781C47.5086 6.42768 46.2595 6.49259 45.0458 6.5721C45.6768 5.78418 47.6222 3.45119 49.4036 2.96155C49.6228 2.9009 50.1371 2.84992 50.8585 2.80881ZM57.1267 2.67293L55.2633 6.23766C54.4272 6.24193 53.5928 6.25114 52.7628 6.26551L54.8438 2.69045C55.5761 2.68056 56.3451 2.67495 57.1267 2.67293Z" fill="#131670"/>
<path d="M58.0005 21.3015C43.8093 21.3015 31.9944 24.2214 29.4341 28.0852C34.9311 25.7685 45.662 24.1965 58.0005 24.1965C70.3397 24.1965 81.0711 25.7683 86.5669 28.0852C84.0073 24.2214 72.192 21.3015 58.0005 21.3015Z" fill="#FF1A00"/>
</svg>
