<svg width="432" height="201" viewBox="0 0 432 201" fill="none" xmlns="http://www.w3.org/2000/svg">
<path d="M6.39042 164.279H0.373535L27.4495 112.695H35.7227L62.7987 164.279H56.481L49.7872 151.346H13.0842L6.39042 164.279ZM16.0174 146.143H47.0044L31.5109 116.412L16.0174 146.143Z" fill="#050626"/>
<path d="M98.276 164.428H83.685C78.1194 164.428 74.0079 163.189 71.3504 160.711C68.7431 158.184 67.4394 154.567 67.4394 149.86V127.561H72.8546V150.306C72.8546 153.477 73.8073 155.88 75.7126 157.515C77.618 159.151 80.2755 159.968 83.685 159.968H98.276C101.184 159.968 103.666 159.2 105.722 157.664C107.978 155.979 109.106 153.675 109.106 150.751V127.561H114.522V164.279H109.257V159.82C108.304 160.86 107.427 161.628 106.624 162.124C104.218 163.66 101.435 164.428 98.276 164.428Z" fill="#050626"/>
<path d="M129.228 151.197V131.872H157.282V127.412H129.228V120.277H123.813V127.412H119.15V131.872H123.813V150.38C123.813 155.038 124.966 158.531 127.273 160.86C129.629 163.14 132.939 164.279 137.201 164.279H144.947C151.215 164.279 155.652 162.52 158.26 159.002C159.914 156.772 160.742 153.923 160.742 150.454V149.414H155.326V149.86C155.326 152.882 154.8 155.087 153.747 156.475C152.092 158.705 148.984 159.82 144.421 159.82H137.201C134.844 159.82 132.964 159.126 131.56 157.738C130.005 156.202 129.228 154.022 129.228 151.197Z" fill="#050626"/>
<path d="M165.475 141.832C165.475 137.372 166.704 133.929 169.161 131.5C171.918 128.775 176.105 127.412 181.721 127.412H196.613C202.379 127.412 206.616 128.849 209.323 131.723C211.68 134.201 212.858 137.571 212.858 141.832V149.86C212.858 154.121 211.655 157.515 209.248 160.043C206.44 162.966 202.228 164.428 196.613 164.428H181.721C176.255 164.428 172.169 163.214 169.461 160.786C166.804 158.308 165.475 154.666 165.475 149.86L165.325 145.846L165.475 141.832ZM170.89 149.86C170.89 156.599 174.626 159.968 182.097 159.968H196.237C199.746 159.968 202.479 159.151 204.435 157.515C206.44 155.831 207.443 153.279 207.443 149.86V141.832C207.443 138.611 206.465 136.158 204.51 134.474C202.604 132.739 199.847 131.872 196.237 131.872H182.097C178.336 131.872 175.528 132.665 173.673 134.251C171.818 135.836 170.89 138.363 170.89 141.832V149.86Z" fill="#050626"/>
<path d="M220.065 127.264C220.065 122.11 221.419 118.394 224.126 116.114C226.834 113.835 231.146 112.695 237.063 112.695H263.386C275.22 112.695 281.136 117.552 281.136 127.264H275.721C275.721 124.192 274.768 121.912 272.863 120.426C270.707 118.741 267.172 117.898 262.258 117.898H237.138C232.475 117.898 229.316 118.666 227.661 120.203C226.207 121.54 225.48 123.894 225.48 127.264C225.48 130.237 226.282 132.244 227.887 133.284C229.792 134.523 233.452 135.143 238.868 135.143H262.183C268.952 135.143 273.866 136.233 276.924 138.413C280.033 140.544 281.588 143.963 281.588 148.67V149.711C281.588 155.063 280.259 158.829 277.601 161.009C274.944 163.189 270.557 164.279 264.439 164.279H237.514C232.149 164.279 228.012 163.09 225.104 160.711C222.045 158.184 220.516 154.468 220.516 149.562H225.931C225.931 152.684 226.859 154.988 228.714 156.475C230.87 158.209 234.405 159.076 239.319 159.076H263.988C268.1 159.076 271.158 158.333 273.164 156.846C275.17 155.31 276.172 152.882 276.172 149.562C276.172 146.193 275.27 143.814 273.465 142.427C271.71 141.039 268.426 140.346 263.612 140.346H237.363C230.645 140.346 226.007 139.255 223.449 137.075C221.193 135.143 220.065 131.872 220.065 127.264Z" fill="#050626"/>
<path d="M296.47 151.197V131.872H324.524V127.412H296.47V120.277H291.055V127.412H286.392V131.872H291.055V150.38C291.055 155.038 292.208 158.531 294.514 160.86C296.871 163.14 300.18 164.279 304.442 164.279H312.189C318.457 164.279 322.894 162.52 325.501 159.002C327.156 156.772 327.983 153.923 327.983 150.454V149.414H322.568V149.86C322.568 152.882 322.042 155.087 320.989 156.475C319.334 158.705 316.225 159.82 311.663 159.82H304.442C302.086 159.82 300.205 159.126 298.801 157.738C297.247 156.202 296.47 154.022 296.47 151.197Z" fill="#050626"/>
<path d="M332.717 141.832C332.717 137.372 333.945 133.929 336.402 131.5C339.16 128.775 343.347 127.412 348.962 127.412H363.854C369.62 127.412 373.857 128.849 376.565 131.723C378.922 134.201 380.1 137.571 380.1 141.832V149.86C380.1 154.121 378.896 157.515 376.49 160.043C373.682 162.966 369.47 164.428 363.854 164.428H348.962C343.497 164.428 339.411 163.214 336.703 160.786C334.046 158.308 332.717 154.666 332.717 149.86L332.566 145.846L332.717 141.832ZM338.132 149.86C338.132 156.599 341.868 159.968 349.339 159.968H363.478C366.988 159.968 369.721 159.151 371.676 157.515C373.682 155.831 374.685 153.279 374.685 149.86V141.832C374.685 138.611 373.707 136.158 371.751 134.474C369.846 132.739 367.088 131.872 363.478 131.872H349.339C345.578 131.872 342.77 132.665 340.915 134.251C339.06 135.836 338.132 138.363 338.132 141.832V149.86Z" fill="#050626"/>
<path d="M386.555 127.561H393.173L407.162 141.089L420.851 127.561H427.469L410.321 144.359L430.478 164.279H423.709L407.012 147.778L390.165 164.279H383.697L403.703 144.359L386.555 127.561Z" fill="#050626"/>
<path d="M228.182 196.722H226.57L236.345 182.899H238.562L243.298 196.722H241.605L240.436 193.256H230.601L228.182 196.722ZM231.649 191.862H239.952L237.252 183.895L231.649 191.862Z" fill="#050626"/>
<path d="M247.706 187.998L247.141 191.105H254.659C255.895 191.105 256.594 190.653 256.755 189.75L256.836 189.352C256.849 189.286 256.856 189.199 256.856 189.093C256.856 188.363 256.298 187.998 255.183 187.998H247.706ZM244.662 196.722L246.476 186.803H255.203C256.251 186.803 257.03 186.982 257.541 187.34C258.065 187.699 258.327 188.203 258.327 188.854C258.327 188.934 258.327 189.013 258.327 189.093C258.3 189.213 258.287 189.299 258.287 189.352L258.206 189.75C258.112 190.268 257.89 190.7 257.541 191.045C257.192 191.377 256.775 191.583 256.291 191.663C256.802 191.782 257.178 191.994 257.42 192.3C257.662 192.592 257.783 192.937 257.783 193.336C257.783 193.415 257.769 193.535 257.743 193.694L257.662 194.132C257.514 194.956 257.104 195.593 256.432 196.044C255.774 196.496 254.834 196.722 253.611 196.722H244.662ZM246.92 192.3L246.335 195.487H253.792C255.243 195.487 256.05 195.035 256.211 194.132L256.291 193.694C256.318 193.508 256.332 193.375 256.332 193.296C256.332 192.977 256.177 192.731 255.868 192.559C255.559 192.386 254.988 192.3 254.155 192.3H246.92Z" fill="#050626"/>
<path d="M265.729 196.722H264.278L265.85 188.077H260.409L260.63 186.882H272.965L272.743 188.077H267.301L265.729 196.722Z" fill="#050626"/>
<path d="M273.77 190.706C274.025 189.498 274.529 188.575 275.282 187.938C276.142 187.208 277.324 186.842 278.829 186.842H282.819C284.136 186.842 285.11 187.134 285.742 187.719C286.279 188.223 286.548 188.927 286.548 189.83C286.548 190.003 286.548 190.175 286.548 190.348C286.508 190.521 286.481 190.64 286.467 190.706L286.084 192.858C285.843 194.013 285.352 194.922 284.613 195.586C283.726 196.37 282.531 196.761 281.026 196.761H277.035C275.772 196.761 274.832 196.516 274.214 196.025C273.609 195.52 273.307 194.776 273.307 193.794C273.307 193.648 273.307 193.528 273.307 193.435C273.307 193.329 273.334 193.136 273.387 192.858L273.549 191.782L273.77 190.706ZM274.838 192.858C274.798 193.123 274.778 193.356 274.778 193.555C274.778 194.896 275.631 195.566 277.338 195.566H281.127C282.067 195.566 282.833 195.354 283.424 194.929C284.069 194.464 284.472 193.774 284.633 192.858L285.016 190.706C285.057 190.481 285.077 190.268 285.077 190.069C285.077 188.715 284.217 188.037 282.497 188.037H278.708C277.7 188.037 276.914 188.25 276.35 188.675C275.799 189.086 275.423 189.764 275.221 190.706L274.838 192.858Z" fill="#050626"/>
<path d="M287.854 193.017C287.989 192.3 288.331 191.749 288.882 191.364C289.5 190.926 290.333 190.706 291.381 190.706H297.186C297.871 190.706 298.355 190.833 298.637 191.085C298.731 191.165 298.805 191.297 298.859 191.483L299.121 190.129C299.148 189.943 299.161 189.797 299.161 189.691C299.161 189.186 299.006 188.801 298.697 188.535C298.348 188.23 297.804 188.077 297.065 188.077H293.215C292.194 188.077 291.442 188.29 290.958 188.715C290.797 188.847 290.656 189.06 290.535 189.352L290.454 189.711H288.963L289.044 189.352C288.976 188.794 289.373 188.223 290.233 187.639C290.972 187.134 291.919 186.882 293.074 186.882H297.448C298.563 186.882 299.376 187.095 299.887 187.52C300.397 187.944 300.652 188.575 300.652 189.412C300.652 189.598 300.652 189.784 300.652 189.969C300.612 190.142 300.585 190.268 300.572 190.348L299.403 196.722H297.952L298.093 195.925C297.891 196.111 297.723 196.244 297.589 196.323C297.159 196.589 296.689 196.722 296.178 196.722H290.535C289.568 196.722 288.835 196.569 288.338 196.264C287.841 195.945 287.592 195.447 287.592 194.77C287.592 194.597 287.613 194.411 287.653 194.212L287.854 193.017ZM291.704 191.902C290.844 191.902 290.246 192.014 289.91 192.24C289.574 192.466 289.359 192.831 289.265 193.336L289.124 194.053C289.097 194.212 289.084 194.332 289.084 194.411C289.084 194.783 289.225 195.055 289.507 195.228C289.803 195.4 290.313 195.487 291.039 195.487H295.956C296.722 195.487 297.3 195.347 297.69 195.068C298.093 194.776 298.348 194.318 298.456 193.694C298.482 193.614 298.496 193.528 298.496 193.435C298.496 193.342 298.496 193.276 298.496 193.236C298.496 192.346 297.871 191.902 296.622 191.902H291.704Z" fill="#050626"/>
<path d="M301.719 196.722L303.513 186.882H304.964L304.279 190.627H305.851L311.776 186.882H314.094L307 191.264L312.824 196.722H310.728L305.609 191.822H304.057L303.17 196.722H301.719Z" fill="#050626"/>
<path d="M319.619 188.037C318.759 188.037 318.053 188.257 317.502 188.695C316.965 189.12 316.616 189.764 316.454 190.627L316.011 193.097C315.971 193.296 315.951 193.475 315.951 193.634C315.951 194.245 316.152 194.723 316.555 195.068C316.972 195.4 317.502 195.566 318.147 195.566H322.581C323.656 195.566 324.483 195.281 325.06 194.71C325.423 194.351 325.652 193.933 325.746 193.455L325.766 193.256H327.217L327.197 193.415C327.103 193.92 326.935 194.365 326.693 194.75C325.86 196.091 324.429 196.761 322.4 196.761H317.926C316.757 196.761 315.89 196.522 315.326 196.044C314.761 195.566 314.479 194.883 314.479 193.993C314.479 193.887 314.479 193.774 314.479 193.654C314.479 193.535 314.506 193.349 314.56 193.097L315.003 190.627C315.205 189.498 315.702 188.602 316.495 187.938C317.355 187.208 318.47 186.842 319.84 186.842H324.194L324.234 186.882C325.631 186.882 326.626 187.221 327.217 187.898C327.62 188.363 327.821 188.954 327.821 189.671C327.821 189.857 327.808 190.016 327.781 190.149L327.761 190.308H326.31L326.33 190.189C326.343 190.135 326.35 190.023 326.35 189.85C326.35 189.372 326.216 188.987 325.947 188.695C325.557 188.257 324.899 188.037 323.972 188.037H319.619Z" fill="#050626"/>
<path d="M340.817 190.706C340.858 190.481 340.878 190.268 340.878 190.069C340.878 189.432 340.683 188.934 340.293 188.575C339.904 188.217 339.346 188.037 338.621 188.037H334.066C333.3 188.037 332.635 188.283 332.07 188.774C331.52 189.252 331.17 189.896 331.022 190.706H340.817ZM330.821 191.902L330.639 192.858C330.613 192.99 330.592 193.117 330.579 193.236C330.566 193.356 330.559 193.482 330.559 193.614C330.559 194.305 330.767 194.803 331.184 195.108C331.614 195.414 332.185 195.566 332.897 195.566H337.633C338.399 195.566 339.003 195.4 339.447 195.068C339.89 194.723 340.166 194.292 340.273 193.774L340.293 193.575H341.744L341.724 193.774C341.576 194.531 341.207 195.181 340.616 195.726C339.863 196.416 338.869 196.761 337.633 196.761H332.756C330.283 196.761 329.047 195.839 329.047 193.993C329.047 193.741 329.081 193.429 329.148 193.057L329.632 190.467C329.806 189.498 330.317 188.668 331.163 187.978C332.091 187.221 333.206 186.842 334.509 186.842H338.701C339.91 186.842 340.844 187.121 341.503 187.679C342.107 188.184 342.41 188.854 342.41 189.691C342.41 189.903 342.389 190.109 342.349 190.308L342.067 191.902H330.821Z" fill="#050626"/>
<path d="M348.709 188.037C347.849 188.037 347.143 188.257 346.592 188.695C346.055 189.12 345.706 189.764 345.544 190.627L345.101 193.097C345.061 193.296 345.04 193.475 345.04 193.634C345.04 194.245 345.242 194.723 345.645 195.068C346.062 195.4 346.592 195.566 347.237 195.566H351.671C352.746 195.566 353.572 195.281 354.15 194.71C354.513 194.351 354.741 193.933 354.835 193.455L354.856 193.256H356.307L356.287 193.415C356.192 193.92 356.025 194.365 355.783 194.75C354.95 196.091 353.519 196.761 351.49 196.761H347.016C345.847 196.761 344.98 196.522 344.416 196.044C343.851 195.566 343.569 194.883 343.569 193.993C343.569 193.887 343.569 193.774 343.569 193.654C343.569 193.535 343.596 193.349 343.65 193.097L344.093 190.627C344.295 189.498 344.792 188.602 345.585 187.938C346.445 187.208 347.56 186.842 348.93 186.842H353.284L353.324 186.882C354.721 186.882 355.716 187.221 356.307 187.898C356.71 188.363 356.911 188.954 356.911 189.671C356.911 189.857 356.898 190.016 356.871 190.149L356.851 190.308H355.4L355.42 190.189C355.433 190.135 355.44 190.023 355.44 189.85C355.44 189.372 355.306 188.987 355.037 188.695C354.647 188.257 353.989 188.037 353.062 188.037H348.709Z" fill="#050626"/>
<path d="M363.135 188.037C362.275 188.037 361.57 188.257 361.019 188.695C360.482 189.12 360.132 189.764 359.971 190.627L359.528 193.097C359.487 193.296 359.467 193.475 359.467 193.634C359.467 194.245 359.669 194.723 360.072 195.068C360.488 195.4 361.019 195.566 361.664 195.566H366.098C367.173 195.566 367.999 195.281 368.577 194.71C368.94 194.351 369.168 193.933 369.262 193.455L369.282 193.256H370.734L370.713 193.415C370.619 193.92 370.451 194.365 370.21 194.75C369.376 196.091 367.946 196.761 365.917 196.761H361.442C360.273 196.761 359.407 196.522 358.843 196.044C358.278 195.566 357.996 194.883 357.996 193.993C357.996 193.887 357.996 193.774 357.996 193.654C357.996 193.535 358.023 193.349 358.077 193.097L358.52 190.627C358.722 189.498 359.219 188.602 360.011 187.938C360.871 187.208 361.987 186.842 363.357 186.842H367.71L367.751 186.882C369.148 186.882 370.142 187.221 370.734 187.898C371.137 188.363 371.338 188.954 371.338 189.671C371.338 189.857 371.325 190.016 371.298 190.149L371.278 190.308H369.827L369.847 190.189C369.86 190.135 369.867 190.023 369.867 189.85C369.867 189.372 369.733 188.987 369.464 188.695C369.074 188.257 368.416 188.037 367.489 188.037H363.135Z" fill="#050626"/>
<path d="M372.826 186.882H374.338L377.441 195.327H377.723L382.923 186.882H384.435L377.401 198.016C376.716 199.105 376.098 199.842 375.547 200.227C374.862 200.705 373.934 200.944 372.766 200.944H372.282L372.504 199.749H373.35C374.116 199.749 374.767 199.477 375.305 198.933C375.627 198.614 376.145 197.877 376.857 196.722H376.494L372.826 186.882Z" fill="#050626"/>
<path d="M384.493 193.017C384.627 192.3 384.97 191.749 385.52 191.364C386.139 190.926 386.972 190.706 388.02 190.706H393.824C394.509 190.706 394.993 190.833 395.275 191.085C395.369 191.165 395.443 191.297 395.497 191.483L395.759 190.129C395.786 189.943 395.799 189.797 395.799 189.691C395.799 189.186 395.645 188.801 395.336 188.535C394.986 188.23 394.442 188.077 393.703 188.077H389.854C388.833 188.077 388.08 188.29 387.596 188.715C387.435 188.847 387.294 189.06 387.173 189.352L387.093 189.711H385.601L385.682 189.352C385.615 188.794 386.011 188.223 386.871 187.639C387.61 187.134 388.557 186.882 389.713 186.882H394.086C395.201 186.882 396.014 187.095 396.525 187.52C397.035 187.944 397.291 188.575 397.291 189.412C397.291 189.598 397.291 189.784 397.291 189.969C397.25 190.142 397.223 190.268 397.21 190.348L396.041 196.722H394.59L394.731 195.925C394.529 196.111 394.361 196.244 394.227 196.323C393.797 196.589 393.327 196.722 392.816 196.722H387.173C386.206 196.722 385.473 196.569 384.976 196.264C384.479 195.945 384.231 195.447 384.231 194.77C384.231 194.597 384.251 194.411 384.291 194.212L384.493 193.017ZM388.342 191.902C387.482 191.902 386.884 192.014 386.548 192.24C386.212 192.466 385.997 192.831 385.903 193.336L385.762 194.053C385.735 194.212 385.722 194.332 385.722 194.411C385.722 194.783 385.863 195.055 386.145 195.228C386.441 195.4 386.951 195.487 387.677 195.487H392.595C393.361 195.487 393.938 195.347 394.328 195.068C394.731 194.776 394.986 194.318 395.094 193.694C395.121 193.614 395.134 193.528 395.134 193.435C395.134 193.342 395.134 193.276 395.134 193.236C395.134 192.346 394.509 191.902 393.26 191.902H388.342Z" fill="#050626"/>
<path d="M408.294 186.882C409.583 186.882 410.524 187.168 411.115 187.739C411.639 188.243 411.901 188.954 411.901 189.87C411.901 190.096 411.888 190.282 411.861 190.428C411.834 190.574 411.821 190.68 411.821 190.746L411.438 192.897C411.182 194.106 410.672 195.035 409.906 195.686C409.073 196.403 407.938 196.761 406.5 196.761H402.59C401.676 196.761 400.951 196.576 400.413 196.204C400.239 196.084 400.064 195.898 399.889 195.646L398.962 200.745H397.511L400.03 186.882H401.481L401.28 187.958C401.535 187.719 401.77 187.539 401.985 187.42C402.63 187.061 403.389 186.882 404.263 186.882H408.294ZM400.736 190.746L400.494 191.822L400.353 192.897C400.312 193.097 400.292 193.296 400.292 193.495C400.292 194.119 400.507 194.624 400.937 195.009C401.381 195.381 402.046 195.566 402.933 195.566H406.177C407.279 195.566 408.146 195.361 408.777 194.949C409.409 194.524 409.812 193.84 409.987 192.897L410.369 190.746C410.41 190.507 410.43 190.288 410.43 190.089C410.43 189.425 410.181 188.927 409.684 188.595C409.201 188.25 408.488 188.077 407.548 188.077H404.323C403.302 188.077 402.482 188.323 401.864 188.814C401.26 189.306 400.883 189.95 400.736 190.746Z" fill="#050626"/>
<path d="M425.723 193.017C425.75 192.911 425.764 192.745 425.764 192.519C425.764 191.948 425.542 191.503 425.099 191.184C424.669 190.866 423.983 190.706 423.043 190.706H415.304L416.009 186.882H414.518L412.724 196.722H421.713C422.814 196.722 423.681 196.516 424.313 196.104C424.958 195.693 425.361 195.062 425.522 194.212L425.723 193.017ZM415.102 191.902H422.317C423.056 191.902 423.567 191.988 423.849 192.16C424.131 192.32 424.272 192.579 424.272 192.937C424.272 193.017 424.259 193.15 424.232 193.336L424.091 194.053C423.997 194.531 423.789 194.883 423.466 195.108C423.063 195.387 422.452 195.527 421.632 195.527H414.437L415.102 191.902ZM427.275 196.722L429.069 186.882H430.52L428.726 196.722H427.275Z" fill="#050626"/>
<path d="M147.434 32.4385C141.177 35.8219 137.852 38.585 135.68 42.4851C132.933 52.6881 131.52 68.1138 131.67 82.0589C185.762 67.9065 246.229 67.9583 300.321 82.0589C300.472 68.1138 299.058 52.6881 296.312 42.4851C294.14 38.5842 290.813 35.8219 284.556 32.4385C291.171 32.7052 300.436 31.498 304.954 30.0458C305.801 22.8442 288.283 21.6085 284.866 23.0423C284.025 23.3968 282.34 26.3338 281.416 28.8753C275.534 19.8436 264.169 10.0871 256.279 4.85518C242.049 0.00115359 190.183 0.312159 175.712 4.85518C170.574 8.26453 163.96 13.5943 158.347 19.3913C158.401 19.3646 158.455 19.337 158.512 19.3111C166.093 14.6142 177.516 8.7277 180.677 8.08563C194.938 5.18207 243.114 6.58326 249.894 8.79123C252.852 9.75518 255.928 11.7466 258.827 14.1435C255.837 12.6972 252.5 11.5485 248.882 11.0569C243.546 10.3304 229.288 9.96837 215.446 9.94998L208.514 23.2062C229.987 23.1619 251.528 23.9511 269.341 25.1734C270.273 26.3739 271.043 27.4507 271.608 28.3085C228.411 25.7937 188.382 25.3774 150.846 29.6704C150.02 26.9859 148.058 23.4344 147.125 23.0415C143.71 21.6077 126.192 22.8442 127.038 30.0449C131.558 31.4971 140.82 32.7052 147.434 32.4385ZM243.738 63.901C230.183 61.9531 201.81 61.9531 188.255 63.901C181.806 64.8274 175.647 67.4408 171.051 70.4815C175.341 66.685 181.02 62.4263 187.606 61.27C198.353 59.3831 233.639 59.3831 244.385 61.27C250.971 62.4263 256.652 66.685 260.942 70.4815C256.344 67.4408 250.187 64.8274 243.738 63.901ZM264.369 40.0389C269.224 38.4839 294.115 39.8232 292.914 47.6393C281.47 46.8994 267.261 47.7271 258.589 49.8289C259.11 45.2675 262.561 40.6183 264.369 40.0389ZM295.169 60.0294C257.743 53.4356 174.036 53.4573 136.825 60.0294C168.606 48.793 262.423 48.793 295.169 60.0294ZM167.531 40.0389C169.339 40.6191 172.793 45.2683 173.312 49.8281C164.638 47.7263 150.432 46.8994 138.988 47.6385C137.787 39.8232 162.678 38.4831 167.531 40.0389ZM189.403 10.455L181.668 23.7396C176.928 23.9252 172.276 24.1668 167.756 24.4627C170.106 21.5299 177.351 12.846 183.985 11.0235C184.801 10.7977 186.716 10.6079 189.403 10.455ZM212.747 9.94915L205.807 23.2179C202.693 23.2338 199.586 23.268 196.495 23.3215L204.245 10.0144C206.972 9.97757 209.836 9.95667 212.747 9.94915Z" fill="#131670"/>
<path d="M216.001 79.2889C163.151 79.2889 119.15 90.1575 109.615 104.539C130.087 95.9162 170.05 90.0647 216.001 90.0647C261.953 90.0647 301.919 95.9154 322.386 104.539C312.854 90.1575 268.851 79.2889 216.001 79.2889Z" fill="#FF1A00"/>
</svg>
