<svg width="1123" height="910" viewBox="0 0 1123 910" fill="none" xmlns="http://www.w3.org/2000/svg">
<path fill-rule="evenodd" clip-rule="evenodd" d="M145.63 775.12H1033.67C1044.22 775.12 1052.85 783.748 1052.85 794.293C1052.85 804.84 1044.22 813.468 1033.67 813.468H145.63C135.084 813.468 126.457 804.84 126.457 794.293C126.457 783.748 135.084 775.12 145.63 775.12Z" fill="#D0253A"/>
<path fill-rule="evenodd" clip-rule="evenodd" d="M622.768 724.175C613.366 723.608 607.934 723.087 606.621 724.788C607.704 752.163 623.124 780.875 643.893 780.875C644.073 780.875 644.254 780.868 644.432 780.864V781.163H677.79V780.872C696.924 780.715 712.792 756.279 715.285 724.788H721.097H732.268V721.111V650.678C732.268 632.355 719.133 617.359 703.08 617.359H668.753C649.658 617.359 637.625 635.582 634.034 656.99L631.334 673.086L626.958 699.186L622.768 724.175" fill="#191A1B"/>
<path fill-rule="evenodd" clip-rule="evenodd" d="M263.399 732.412C253.998 731.845 248.567 731.322 247.254 733.024C248.337 760.398 263.755 789.11 284.525 789.11C284.706 789.11 284.885 789.102 285.063 789.1V789.398H318.422V789.108C337.555 788.95 353.423 764.514 355.917 733.024H361.73H372.901V729.345V658.913C372.901 640.589 359.766 625.594 343.711 625.594H309.385C290.29 625.594 278.257 643.817 274.666 665.225L271.967 681.322L267.591 707.42L263.399 732.412" fill="#191A1B"/>
<path fill-rule="evenodd" clip-rule="evenodd" d="M511.719 732.307C489.821 732.307 477.537 729.854 475.418 732.307C476.559 758.096 492.817 785.147 514.717 785.147C514.907 785.147 515.095 785.139 515.283 785.136V785.419H550.458V663.13L541.154 676.303L538.203 691.822C538.015 691.819 511.91 732.307 511.719 732.307Z" fill="#222729"/>
<path fill-rule="evenodd" clip-rule="evenodd" d="M849.772 480.199L949.332 578.385C949.332 578.385 964.138 597.496 964.138 611.145C964.138 624.795 964.138 695.773 964.138 695.773L949.332 731.263H793.15H430.422L211.978 730.769L184.816 671.709L213.559 608.621C216.678 601.773 375.822 567.087 375.822 567.087L496.579 469.863C503.028 464.672 517.858 465.336 528.334 464.157C538.812 462.977 764.638 463.703 797.284 466.132C829.93 468.563 831.266 466.549 849.772 480.199" fill="#EFF6B2"/>
<path fill-rule="evenodd" clip-rule="evenodd" d="M507.862 612.217L489.619 676.449L480.93 690.284L192.648 688.738L209.654 703.881L497.334 705.669L503.106 727.534L947.347 726.958L960.134 692.118L959.41 602.966L860.646 495.952L849.975 495.793C849.975 495.793 880.467 585.232 872.276 590.566C864.087 595.902 586.019 592.493 586.019 592.493L507.862 612.217" fill="#B1DAAB"/>
<path fill-rule="evenodd" clip-rule="evenodd" d="M698.969 475.241C677.848 474.657 672.024 482.271 664.387 494.208C656.749 506.145 622.755 558.285 622.755 558.285C622.755 558.285 618.964 566.757 629.025 567.912C639.085 569.067 842.961 568.507 842.961 568.507C842.961 568.507 860.645 570.432 858.164 552.335C855.684 534.236 839.507 495.343 839.507 495.343C839.507 495.343 832.053 479.555 814.429 478.399C772.312 475.639 720.089 475.828 698.969 475.241Z" fill="#ABE0B7"/>
<path fill-rule="evenodd" clip-rule="evenodd" d="M592.698 561.472L637.326 496.432C637.326 496.432 654.088 478.836 638.914 476.91C637.446 476.724 635.035 476.588 631.89 476.499C602.536 475.663 492.218 476.987 492.218 476.987L375.82 567.087L579.632 565.372C579.632 565.372 588.626 567.256 592.698 561.472" fill="#ABE0B7"/>
<path fill-rule="evenodd" clip-rule="evenodd" d="M577.771 574.61L638.341 491.084V491.086C639.017 490.055 645.555 479.68 634.815 479.284C619.301 478.714 493.354 479.304 492.991 479.306L492.973 474.558C493.335 474.556 619.442 473.964 634.978 474.536C654.746 475.263 642.075 493.816 642.041 493.868L641.987 493.952L581.418 577.478L577.771 574.61" fill="#627986"/>
<path fill-rule="evenodd" clip-rule="evenodd" d="M188.336 662.604L471.7 663.448L485.448 612.423L407.995 611.97L394.573 617.383L257.125 616.282L249.68 610.892L208.312 610.802L188.336 662.604" fill="#222729"/>
<path fill-rule="evenodd" clip-rule="evenodd" d="M186.023 666.663H467.267L497.383 667.156L491.797 690.284H195.415L180.801 681.422L186.023 666.663Z" fill="#324349"/>
<path fill-rule="evenodd" clip-rule="evenodd" d="M463.534 680.79L465.381 666.662H184.135L180.801 681.421L463.534 680.79Z" fill="#424F58"/>
<path fill-rule="evenodd" clip-rule="evenodd" d="M501.473 683.597L496.859 708.184L492.332 732.307H607.897V728.841V662.485C607.897 645.223 594.048 631.095 577.12 631.095H540.925C520.792 631.095 508.105 648.264 504.319 668.431L501.473 683.597" fill="#424F58"/>
<path fill-rule="evenodd" clip-rule="evenodd" d="M514.316 690.988L510.769 711.844L507.289 732.307H596.118V729.367V673.077C596.118 658.433 585.473 646.451 572.462 646.451H544.641C529.165 646.451 519.413 661.013 516.504 678.121L514.316 690.988" fill="#1E2024"/>
<path fill-rule="evenodd" clip-rule="evenodd" d="M766.965 476.68H780.773L804.706 568.53H790.898L766.965 476.68Z" fill="#424F58"/>
<path fill-rule="evenodd" clip-rule="evenodd" d="M211.807 613.619H266.623L252.111 656.613H197.295C194.828 656.613 193.43 654.783 194.186 652.541L205.948 617.692C206.706 615.452 209.342 613.619 211.807 613.619" fill="#C9C0CC"/>
<path fill-rule="evenodd" clip-rule="evenodd" d="M263.045 616.14H211.393C210.832 616.14 210.213 616.382 209.668 616.773C209.112 617.174 208.67 617.708 208.48 618.273L196.717 653.121C196.674 653.252 196.648 653.373 196.638 653.482C196.621 653.67 196.649 653.812 196.713 653.9C196.765 653.97 196.869 654.03 197.014 654.064V654.073C197.072 654.085 197.173 654.094 197.316 654.094H250.233L263.045 616.14ZM211.829 611.097H270.2L275.542 616.381L254.64 657.194L253.985 659.136H251.892H196.881C196.38 659.136 195.873 659.074 195.372 658.958L195.369 658.968C194.04 658.66 192.973 657.953 192.26 656.97C191.556 656.004 191.216 654.8 191.33 653.482C191.373 652.989 191.48 652.48 191.654 651.96L203.417 617.11C203.982 615.437 205.194 613.93 206.69 612.854C208.197 611.77 210.032 611.097 211.829 611.097" fill="#222729"/>
<path fill-rule="evenodd" clip-rule="evenodd" d="M550.263 785.146C528.183 785.146 510.172 757.738 510.172 724.137C510.172 690.536 528.183 663.129 550.263 663.129C572.343 663.129 590.353 690.536 590.353 724.137C590.353 757.738 572.343 785.146 550.263 785.146Z" fill="#333C40"/>
<path fill-rule="evenodd" clip-rule="evenodd" d="M551.125 764.276C536.901 764.276 525.301 746.246 525.301 724.138C525.301 702.031 536.901 684 551.125 684C565.35 684 576.95 702.031 576.95 724.138C576.95 746.246 565.35 764.276 551.125 764.276Z" fill="#6F7F7E"/>
<path fill-rule="evenodd" clip-rule="evenodd" d="M470.377 662.493L388.223 662.037L403.868 612.542H477.968C482.819 612.542 481.957 614.338 481.245 616.596L477.632 658.157C476.917 660.416 475.229 662.493 470.377 662.493" fill="#C9C0CC"/>
<path fill-rule="evenodd" clip-rule="evenodd" d="M388.958 659.135H427.71L464.073 657.873C465.148 657.873 465.664 658.98 466.602 658.6C467.585 658.205 468.289 657.689 468.477 657.157L482.325 619.352C482.357 619.264 482.36 619.153 482.337 619.023C482.314 618.881 486.614 619.052 486.533 619.005C486.46 618.965 481.965 618.663 481.79 618.643C481.702 618.633 485.885 618.896 485.612 618.896L436.986 615.444H404.212L388.958 659.135ZM466.102 663.527L372.848 663.156L385.321 617.315L393.608 609.639H398.444L481.726 610.848C486.552 611.449 489.906 610.113 490.057 614.072C490.344 621.532 481.014 651.831 480.637 658.495C478.09 665.8 472.5 663.527 466.102 663.527" fill="#222729"/>
<path fill-rule="evenodd" clip-rule="evenodd" d="M209.874 654.095L218.722 628.579L223.037 616.14H211.393C210.831 616.14 210.213 616.383 209.667 616.773C209.111 617.175 208.67 617.708 208.479 618.273L204.994 628.6L196.717 653.121C196.674 653.252 196.647 653.373 196.638 653.483C196.621 653.671 196.649 653.812 196.713 653.9C196.765 653.971 196.869 654.031 197.014 654.064V654.073L197.315 654.095H209.874" fill="#F57E30"/>
<path fill-rule="evenodd" clip-rule="evenodd" d="M455.141 629.82L445.414 659.135L471.311 658.519C472.385 658.519 473.498 658.283 474.423 657.903C475.391 657.507 476.077 656.992 476.245 656.459L483.551 623.732C483.239 615.444 484.815 615.444 459.911 615.444L455.141 629.82" fill="#F57E30"/>
<path fill-rule="evenodd" clip-rule="evenodd" d="M241.821 628.544L235.288 616.14H223.037L218.723 628.579L231.015 654.095H250.233L252.204 648.255L241.821 628.544" fill="#E7E6E5"/>
<path fill-rule="evenodd" clip-rule="evenodd" d="M244.164 616.14L250.608 628.53L255.615 638.152L258.865 628.518L263.044 616.14H244.164Z" fill="#E7E6E5"/>
<path fill-rule="evenodd" clip-rule="evenodd" d="M396.848 636.544L427.59 659.135H445.417L452.037 639.187L439.605 630.137L419.417 615.444H404.214L396.848 636.544Z" fill="#E7E6E5"/>
<path fill-rule="evenodd" clip-rule="evenodd" d="M433.73 615.444L453.713 630.127L454.78 630.911L455.141 629.82L459.912 615.444H433.73Z" fill="#E7E6E5"/>
<path fill-rule="evenodd" clip-rule="evenodd" d="M553.971 725.307C553.971 719.298 552.659 713.766 550.458 709.36C548.027 704.498 544.511 701.012 540.474 699.78C539.425 699.462 538.342 699.294 537.233 699.294C536.099 699.294 534.991 699.47 533.921 699.804C532.347 700.294 530.854 701.127 529.477 702.248C529.826 701.416 530.194 700.603 530.582 699.815C532.071 696.783 533.831 694.088 535.807 691.822C537.141 691.503 538.51 691.338 539.907 691.338C543.689 691.338 547.269 692.555 550.458 694.726C552.411 696.056 554.218 697.743 555.835 699.727C560.925 705.971 564.138 715.154 564.138 725.391C564.138 728.48 563.845 731.472 563.297 734.319C561.449 743.9 556.699 751.803 550.458 756.055C547.269 758.226 543.689 759.444 539.907 759.444C539.533 759.444 539.159 759.431 538.789 759.407C535.841 756.91 533.238 753.546 531.127 749.535C533.019 750.688 535.078 751.319 537.233 751.319C542.61 751.319 547.397 747.378 550.458 741.252C551.499 739.17 552.339 736.838 552.938 734.319C553.605 731.512 553.971 728.475 553.971 725.307" fill="#859290"/>
<path fill-rule="evenodd" clip-rule="evenodd" d="M536.61 736.131C533.105 736.131 530.242 731.807 530.242 726.506C530.242 721.204 533.105 716.882 536.61 716.882C540.12 716.882 542.98 721.204 542.98 726.506C542.98 731.807 540.12 736.131 536.61 736.131Z" fill="#5B6969"/>
<path fill-rule="evenodd" clip-rule="evenodd" d="M554.574 611.664H562.347C563.003 611.664 563.537 612.754 563.537 614.089V618.954C563.537 620.289 563.003 621.381 562.347 621.381H554.574C553.919 621.381 553.383 620.289 553.383 618.954V614.089C553.383 612.754 553.919 611.664 554.574 611.664Z" fill="#D87029"/>
<path fill-rule="evenodd" clip-rule="evenodd" d="M259.001 626.568L397.704 626.021L393.502 637.781H262.602L256.352 633.575L259.001 626.568" fill="#324349"/>
<path fill-rule="evenodd" clip-rule="evenodd" d="M381.24 633.276L382.381 626.568H258.168L256.352 633.574L381.24 633.276" fill="#424F58"/>
<path fill-rule="evenodd" clip-rule="evenodd" d="M252.761 643.108L391.465 642.561L387.263 654.318H256.363L250.113 650.113L252.761 643.108Z" fill="#324349"/>
<path fill-rule="evenodd" clip-rule="evenodd" d="M375 649.813L376.143 643.108H251.928L250.113 650.113L375 649.813Z" fill="#424F58"/>
<path fill-rule="evenodd" clip-rule="evenodd" d="M264.32 610.035L403.024 609.488L398.821 621.247H267.923L261.672 617.04L264.32 610.035" fill="#324349"/>
<path fill-rule="evenodd" clip-rule="evenodd" d="M386.559 616.739L387.701 610.035H263.488L261.672 617.04L386.559 616.739" fill="#424F58"/>
<path fill-rule="evenodd" clip-rule="evenodd" d="M792.18 585.524V731.263H794.602V583.547L792.18 585.524Z" fill="#424F58"/>
<path fill-rule="evenodd" clip-rule="evenodd" d="M613.902 570.336V731.263H616.324V568.153L613.902 570.336" fill="#424F58"/>
<path fill-rule="evenodd" clip-rule="evenodd" d="M555.099 732.307C554.143 732.799 553.381 733.452 552.938 734.319C552.339 736.838 551.499 739.17 550.458 741.252C550.031 742.107 549.57 742.919 549.079 743.684C548.709 745.819 548.977 747.791 550.458 749.311C551.825 750.711 552.967 752.076 553.861 753.232C558.409 748.723 561.802 742.07 563.295 734.319C563.425 733.656 563.538 732.986 563.638 732.307C563.689 731.96 563.735 731.612 563.779 731.263L563.817 730.947C562.182 730.908 560.277 730.962 558.499 731.263C557.258 731.475 556.078 731.804 555.099 732.307" fill="#404C4C"/>
<path fill-rule="evenodd" clip-rule="evenodd" d="M550.457 704.596C550.457 709.36 552.712 717.222 558.306 718.924C560.402 719.561 562.288 719.824 563.825 719.906C562.904 711.901 559.996 704.832 555.834 699.726C554.786 698.442 553.66 697.281 552.465 696.262C551.348 698.392 550.457 701.241 550.457 704.596" fill="#404C4C"/>
<path fill-rule="evenodd" clip-rule="evenodd" d="M535.654 699.408C537.622 698.385 539.49 697.254 540.262 696.32C541.261 695.11 542.196 693.177 542.868 691.588C541.897 691.422 540.909 691.337 539.908 691.337C539.361 691.337 538.82 691.361 538.281 691.413C537.457 691.488 536.645 691.622 535.846 691.813C533.356 694.666 531.205 698.196 529.508 702.224C530.488 701.428 531.526 700.781 532.61 700.298C533.04 700.108 533.477 699.942 533.921 699.804C534.489 699.626 535.066 699.493 535.654 699.408" fill="#404C4C"/>
<path fill-rule="evenodd" clip-rule="evenodd" d="M546.965 757.974C544.911 755.27 541.535 751.472 538.619 751.229C538.16 751.289 537.697 751.318 537.231 751.318C536.289 751.318 535.365 751.197 534.468 750.965C533.532 750.921 532.652 750.888 531.883 750.862C533.856 754.289 536.201 757.19 538.819 759.408C539.179 759.43 539.543 759.442 539.906 759.442C542.36 759.442 544.732 758.93 546.965 757.974" fill="#404C4C"/>
<path fill-rule="evenodd" clip-rule="evenodd" d="M845.34 731.909C823.442 731.909 811.158 729.456 809.039 731.909C810.18 757.7 826.439 784.749 848.339 784.749C848.53 784.749 848.718 784.741 848.906 784.739V785.021H884.08V662.733L874.778 675.904L871.826 691.424C871.638 691.421 845.531 731.909 845.34 731.909" fill="#222729"/>
<path fill-rule="evenodd" clip-rule="evenodd" d="M835.094 683.2L830.481 707.788L825.953 731.909H941.52V728.444V662.088C941.52 644.825 927.67 630.699 910.742 630.699H874.549C854.416 630.699 841.728 647.865 837.941 668.036L835.094 683.2" fill="#424F58"/>
<path fill-rule="evenodd" clip-rule="evenodd" d="M847.937 690.589L844.391 711.447L840.91 731.909H929.741V728.969V672.68C929.741 658.037 919.095 646.052 906.083 646.052H878.263C862.789 646.052 853.035 660.616 850.125 677.724L847.937 690.589" fill="#1E2024"/>
<path fill-rule="evenodd" clip-rule="evenodd" d="M883.882 784.749C861.804 784.749 843.793 757.344 843.793 723.74C843.793 690.138 861.804 662.733 883.882 662.733C905.962 662.733 923.973 690.138 923.973 723.74C923.973 757.344 905.962 784.749 883.882 784.749" fill="#333C40"/>
<path fill-rule="evenodd" clip-rule="evenodd" d="M884.746 763.879C870.522 763.879 858.922 745.848 858.922 723.74C858.922 701.634 870.522 683.603 884.746 683.603C898.971 683.603 910.571 701.634 910.571 723.74C910.571 745.848 898.971 763.879 884.746 763.879Z" fill="#6F7F7E"/>
<path fill-rule="evenodd" clip-rule="evenodd" d="M887.594 724.91C887.594 718.9 886.282 713.368 884.08 708.963C881.65 704.099 878.134 700.615 874.096 699.382C873.047 699.064 871.964 698.896 870.854 698.896C869.72 698.896 868.614 699.072 867.542 699.407C865.968 699.896 864.478 700.73 863.098 701.852C863.448 701.018 863.818 700.206 864.204 699.419C865.692 696.384 867.454 693.691 869.43 691.424C870.762 691.107 872.131 690.94 873.53 690.94C877.312 690.94 880.891 692.159 884.08 694.328C886.034 695.659 887.84 697.346 889.458 699.33C894.547 705.572 897.76 714.756 897.76 724.994C897.76 728.083 897.467 731.075 896.918 733.922C895.07 743.503 890.322 751.406 884.08 755.656C880.891 757.828 877.312 759.047 873.53 759.047C873.155 759.047 872.782 759.034 872.411 759.01C869.462 756.512 866.86 753.151 864.75 749.138C866.64 750.291 868.7 750.922 870.854 750.922C876.232 750.922 881.019 746.98 884.08 740.855C885.122 738.774 885.962 736.438 886.56 733.922C887.227 731.115 887.594 728.08 887.594 724.91" fill="#859290"/>
<path fill-rule="evenodd" clip-rule="evenodd" d="M870.234 735.733C866.727 735.733 863.867 731.408 863.867 726.108C863.867 720.808 866.727 716.484 870.234 716.484C873.743 716.484 876.602 720.808 876.602 726.108C876.602 731.408 873.743 735.733 870.234 735.733Z" fill="#5B6969"/>
<path fill-rule="evenodd" clip-rule="evenodd" d="M888.721 731.91C887.765 732.399 887.001 733.055 886.559 733.924C885.961 736.438 885.121 738.774 884.079 740.855C883.653 741.708 883.191 742.522 882.699 743.286C882.33 745.42 882.598 747.394 884.079 748.912C885.446 750.314 886.589 751.679 887.481 752.835C892.029 748.327 895.422 741.672 896.917 733.924C897.045 733.26 897.158 732.588 897.258 731.91C897.31 731.563 897.357 731.216 897.399 730.867L897.438 730.55C895.803 730.511 893.897 730.567 892.121 730.867C890.878 731.078 889.699 731.407 888.721 731.91" fill="#404C4C"/>
<path fill-rule="evenodd" clip-rule="evenodd" d="M884.078 704.198C884.078 708.963 886.331 716.826 891.927 718.527C894.023 719.164 895.907 719.427 897.446 719.51C896.525 711.504 893.615 704.435 889.455 699.33C888.407 698.046 887.281 696.884 886.085 695.866C884.969 697.995 884.078 700.844 884.078 704.198Z" fill="#404C4C"/>
<path fill-rule="evenodd" clip-rule="evenodd" d="M869.272 699.011C871.241 697.989 873.109 696.857 873.881 695.923C874.88 694.712 875.814 692.78 876.485 691.191C875.514 691.025 874.528 690.94 873.526 690.94C872.978 690.94 872.438 690.965 871.9 691.015C871.077 691.092 870.264 691.225 869.464 691.416C866.974 694.269 864.824 697.797 863.125 701.828C864.105 701.031 865.144 700.384 866.228 699.901C866.658 699.711 867.096 699.545 867.538 699.407C868.108 699.229 868.685 699.096 869.272 699.011" fill="#404C4C"/>
<path fill-rule="evenodd" clip-rule="evenodd" d="M880.585 757.579C878.532 754.874 875.156 751.075 872.24 750.834C871.781 750.892 871.319 750.922 870.851 750.922C869.911 750.922 868.988 750.802 868.088 750.57C867.153 750.524 866.273 750.491 865.504 750.467C867.477 753.895 869.823 756.795 872.439 759.011C872.8 759.034 873.163 759.047 873.527 759.047C875.981 759.047 878.352 758.532 880.585 757.579" fill="#404C4C"/>
<path fill-rule="evenodd" clip-rule="evenodd" d="M973.225 672.347H943.789L940.637 672.78L941.222 693.036H972.241L973.771 685.275L973.225 672.347" fill="#324349"/>
<path fill-rule="evenodd" clip-rule="evenodd" d="M940.24 684.721L940.02 672.346H973.377L973.772 685.274L940.24 684.721" fill="#424F58"/>
<path fill-rule="evenodd" clip-rule="evenodd" d="M843.952 672.347H629.256L606.266 672.78L607.899 692.295L836.782 693.036L847.938 685.275L843.952 672.347" fill="#324349"/>
<path fill-rule="evenodd" clip-rule="evenodd" d="M606.615 684.721L605.039 672.346H845.091L847.936 685.274L606.615 684.721" fill="#424F58"/>
<path fill-rule="evenodd" clip-rule="evenodd" d="M493.378 603.232L586.871 576.057L337.607 575.614L223.254 604.169L493.378 603.232" fill="#324349"/>
<path fill-rule="evenodd" clip-rule="evenodd" d="M790.9 568.531L776.443 513.049H652.196C639.563 532.505 622.755 558.285 622.755 558.285C622.755 558.285 618.964 566.757 629.025 567.912C639.088 569.067 842.96 568.507 842.96 568.507C842.96 568.507 860.645 570.432 858.164 552.333C856.783 542.253 851.151 525.719 846.433 513.049H790.251L804.707 568.531H790.9" fill="#81BE94"/>
<path fill-rule="evenodd" clip-rule="evenodd" d="M675.406 478.018C680.828 474.451 687.96 472.562 699.022 472.868C704.843 473.03 712.966 473.131 722.576 473.252C748.092 473.572 784.048 474.024 814.574 476.024C833.518 477.267 841.522 494.224 841.544 494.272L841.599 494.403C841.644 494.515 857.907 533.607 860.426 551.998C863.21 572.296 844.372 571.015 842.863 570.882C838.783 570.894 638.834 571.432 628.775 570.278C615.552 568.76 620.659 557.339 620.672 557.307L620.751 557.123L620.87 556.944C620.966 556.794 654.86 504.81 662.483 492.895C666.455 486.687 669.971 481.592 675.406 478.018V478.018ZM698.915 477.618C688.858 477.339 682.516 478.963 677.838 482.042C673.174 485.108 669.956 489.791 666.292 495.52C658.904 507.066 627.058 555.919 624.774 559.422C624.434 560.327 623.067 564.834 629.276 565.547C639.251 566.692 842.378 566.134 842.96 566.134H843.059L843.158 566.142C843.2 566.147 857.972 567.752 855.903 552.668C853.543 535.439 838.479 498.854 837.47 496.415H837.467C837.448 496.372 830.591 481.842 814.287 480.774C783.706 478.77 747.92 478.319 722.522 478C712.859 477.88 704.694 477.776 698.915 477.618" fill="#424F58"/>
<path fill-rule="evenodd" clip-rule="evenodd" d="M428.929 725.204L395.008 725.9L389.844 695.616L443.42 695.624C444.092 695.624 444.764 695.772 445.304 696.011C445.868 696.259 446.242 696.58 446.292 696.914L447.29 718.924C446.221 724.115 448.418 725.376 432.822 725.376L428.929 725.204" fill="#424F58"/>
<path fill-rule="evenodd" clip-rule="evenodd" d="M399.295 723.087L426.618 722.247L422.83 699.038L394.442 699.151C392.291 699.151 392.992 701.168 393.375 702.219L396.075 721.072C396.459 722.123 397.247 723.087 399.295 723.087" fill="#C9C0CC"/>
<path fill-rule="evenodd" clip-rule="evenodd" d="M395.004 711.038L413.359 699.038H422.829L424.559 709.635L417.144 714.443L405.105 722.247H397.028L395.004 711.038Z" fill="#E7E6E5"/>
<path fill-rule="evenodd" clip-rule="evenodd" d="M412.707 722.247L424.636 714.447L425.274 714.031L425.368 714.61L426.615 722.247H412.707Z" fill="#E7E6E5"/>
<path fill-rule="evenodd" clip-rule="evenodd" d="M244.21 724.971L215.932 725.668L211.625 695.384L256.289 695.391C256.85 695.391 257.41 695.539 257.86 695.777C258.33 696.025 258.642 696.348 258.684 696.68L259.517 718.693C258.625 723.883 260.457 725.144 247.456 725.144L244.21 724.971" fill="#424F58"/>
<path fill-rule="evenodd" clip-rule="evenodd" d="M221.072 722.854L248.396 722.013L244.607 698.804L216.219 698.919C214.068 698.919 214.77 700.936 215.152 701.985L217.852 720.84C218.236 721.889 219.026 722.854 221.072 722.854Z" fill="#C9C0CC"/>
<path fill-rule="evenodd" clip-rule="evenodd" d="M216.781 710.806L235.136 698.804H244.607L246.337 709.403L238.921 714.208L226.883 722.014H218.807L216.781 710.806" fill="#E7E6E5"/>
<path fill-rule="evenodd" clip-rule="evenodd" d="M234.488 722.014L246.419 714.214L247.055 713.799L247.151 714.378L248.398 722.014H234.488Z" fill="#E7E6E5"/>
<path opacity="0.5" d="M268.644 592.509C225.765 575.951 151.332 526.179 188.288 525.349C190.16 525.434 191.917 525.475 193.561 525.475C227.389 525.475 213.36 507.737 177.116 486.098C167.21 480.185 159.041 478.231 151.928 478.231C145.024 478.231 139.116 480.07 133.574 481.909C128.034 483.746 122.861 485.585 117.434 485.585C112.426 485.585 107.201 484.021 101.266 479.447C75.8396 459.854 58.61 367.569 78.9813 355.729C99.3511 343.887 163.3 347.022 161.474 324.553C159.652 302.085 121.732 265.406 138.732 232.609C155.536 200.19 278.848 65.0048 314.446 65.0048C314.86 65.0048 315.257 65.0221 315.646 65.0595C349.572 68.2541 448.2 186.899 429.64 205.053C411.081 223.206 253.64 226.887 251.649 279.049C249.66 331.21 272.353 380.818 252.234 384.329C249.664 384.777 245.406 384.954 239.937 384.954C229.594 384.955 214.906 384.321 199.037 383.687C183.17 383.053 166.12 382.419 151.058 382.419C126.803 382.419 107.701 384.062 106.966 389.998C96.6891 473.037 176.01 422.309 204.893 460.95C217.122 477.313 273.414 547.903 256.3 548.101C256.156 548.102 256.012 548.102 255.869 548.102C249.258 548.103 243.738 546.345 239.3 544.587C234.861 542.829 231.504 541.071 229.222 541.071C227.969 541.071 227.041 541.601 226.436 542.954C224.198 547.949 246.981 569.45 266.756 578.682C273.322 581.749 278.842 584.015 282.349 584.015C287.245 584.015 288.221 579.602 282.66 566.783C275.545 550.383 264.164 527.45 281.081 524.721C281.692 524.622 282.314 524.574 282.945 524.574C300.317 524.574 324.785 560.851 326.956 574.226C319.416 559.178 301.226 537.909 292.186 537.909C286.564 537.909 284.482 546.135 290.709 569.211C292.152 574.558 294.373 580.767 295.526 585.994C286.424 588.154 277.312 590.355 268.644 592.509" fill="#F3EDED"/>
<path d="M269.984 592.5C269.48 592.312 268.98 592.121 268.465 591.923C277.133 589.769 286.245 587.568 295.348 585.408C295.401 585.649 295.453 585.891 295.501 586.129L269.984 592.5Z" fill="#EAEFCC"/>
<path d="M289.252 597.216C284.639 597.216 277.898 595.46 269.984 592.5L295.502 586.129C296.28 589.928 296.427 593.14 295.194 595.017C294.203 596.526 292.14 597.216 289.252 597.216" fill="#899596"/>
<path fill-rule="evenodd" clip-rule="evenodd" d="M499.627 476.903L583.98 562.974C583.98 562.974 587.483 576.73 584.863 576.64C505.931 573.96 424.024 576.191 344.277 575.034L229 470.296L479.603 471.887C479.603 471.887 493.324 470.152 499.627 476.903" fill="#8FB98B"/>
<path fill-rule="evenodd" clip-rule="evenodd" d="M484.607 479.502L492.216 476.987L586.868 576.058L585.48 564.811L496.576 469.863L228.999 470.296L218.715 478.746L484.607 479.502" fill="#EFF6B2"/>
<path fill-rule="evenodd" clip-rule="evenodd" d="M611.18 571.025L622.272 554.494L648.15 554.125L635.996 571.066L611.18 571.025Z" fill="#1E2024"/>
<path fill-rule="evenodd" clip-rule="evenodd" d="M674.743 538.48H642.31C637.826 538.48 634.156 541.739 634.156 545.721V560.239C634.156 564.221 637.826 567.481 642.31 567.481H674.743C679.228 567.481 682.895 564.221 682.895 560.239V545.721C682.895 541.739 679.228 538.48 674.743 538.48Z" fill="#222729"/>
<path fill-rule="evenodd" clip-rule="evenodd" d="M678.819 538.48H638.235C635.994 538.48 634.156 540.11 634.156 542.1V549.359C634.156 551.351 635.994 552.98 638.235 552.98H678.819C681.062 552.98 682.895 551.351 682.895 549.359V542.1C682.895 540.11 681.062 538.48 678.819 538.48Z" fill="#333C40"/>
<path fill-rule="evenodd" clip-rule="evenodd" d="M614.453 479.068L565.551 543.524L576.133 554.828C589.916 535.488 615.191 502.029 632.54 479.223C628.765 479.145 622.419 479.096 614.453 479.068" fill="#C7EACC"/>
<path fill-rule="evenodd" clip-rule="evenodd" d="M603.617 599.831L603.508 599.638L603.617 599.831Z" fill="#EFEDB9"/>
</svg>
