<svg width="28" height="26" viewBox="0 0 28 26" fill="none" xmlns="http://www.w3.org/2000/svg">
<path d="M21.875 20C22.2396 20 22.5814 20.0684 22.9004 20.2051C23.2194 20.3418 23.4974 20.5286 23.7344 20.7656C23.9714 21.0026 24.1582 21.2806 24.2949 21.5996C24.4316 21.9186 24.5 22.2604 24.5 22.625C24.5 22.9896 24.4316 23.3314 24.2949 23.6504C24.1582 23.9694 23.9714 24.2474 23.7344 24.4844C23.4974 24.7214 23.2194 24.9082 22.9004 25.0449C22.5814 25.1816 22.2396 25.25 21.875 25.25C21.5104 25.25 21.1686 25.1816 20.8496 25.0449C20.5306 24.9082 20.2526 24.7214 20.0156 24.4844C19.7786 24.2474 19.5918 23.9694 19.4551 23.6504C19.3184 23.3314 19.25 22.9896 19.25 22.625C19.25 22.3424 19.3001 22.0508 19.4004 21.75H12.0996C12.1999 22.0508 12.25 22.3424 12.25 22.625C12.25 22.9896 12.1816 23.3314 12.0449 23.6504C11.9082 23.9694 11.7214 24.2474 11.4844 24.4844C11.2474 24.7214 10.9694 24.9082 10.6504 25.0449C10.3314 25.1816 9.98958 25.25 9.625 25.25C9.26042 25.25 8.91862 25.1816 8.59961 25.0449C8.2806 24.9082 8.0026 24.7214 7.76562 24.4844C7.52865 24.2474 7.3418 23.9694 7.20508 23.6504C7.06836 23.3314 7 22.9896 7 22.625C7 22.1237 7.13216 21.6589 7.39648 21.2305C7.66992 20.8021 8.0345 20.4785 8.49023 20.2598L2.58398 2.5H0V0.75H3.8418L5.00391 4.25H28L23.9258 16.5H9.0918L10.2539 20H21.875ZM5.5918 6L8.50391 14.75H22.6543L25.5664 6H5.5918ZM10.5 22.625C10.5 22.388 10.4134 22.1829 10.2402 22.0098C10.0671 21.8366 9.86198 21.75 9.625 21.75C9.38802 21.75 9.18294 21.8366 9.00977 22.0098C8.83659 22.1829 8.75 22.388 8.75 22.625C8.75 22.862 8.83659 23.0671 9.00977 23.2402C9.18294 23.4134 9.38802 23.5 9.625 23.5C9.86198 23.5 10.0671 23.4134 10.2402 23.2402C10.4134 23.0671 10.5 22.862 10.5 22.625ZM21.875 23.5C22.112 23.5 22.3171 23.4134 22.4902 23.2402C22.6634 23.0671 22.75 22.862 22.75 22.625C22.75 22.388 22.6634 22.1829 22.4902 22.0098C22.3171 21.8366 22.112 21.75 21.875 21.75C21.638 21.75 21.4329 21.8366 21.2598 22.0098C21.0866 22.1829 21 22.388 21 22.625C21 22.862 21.0866 23.0671 21.2598 23.2402C21.4329 23.4134 21.638 23.5 21.875 23.5Z" fill="#2062B0"/>
</svg>
