<svg width="40" height="40" viewBox="0 0 40 40" fill="none" xmlns="http://www.w3.org/2000/svg">
<g clip-path="url(#clip0)">
<path d="M37.918 17.5741L34.7048 16.1069L31.8688 11.5823C31.0491 10.2708 29.6065 9.47575 28.0573 9.48395H15.9754C14.5737 9.48395 13.2459 10.1315 12.3934 11.2462L8.72949 16.0413L2.62295 17.7134C1.07377 18.1397 0 19.5577 0 21.1643V23.5003C0 25.4757 1.57377 27.1069 3.54917 27.1069H4.07376C4.70491 29.5413 7.18851 31.0003 9.62293 30.3692C11.2213 29.9511 12.4754 28.7052 12.8852 27.1069H26.6557C27.2868 29.5413 29.7704 31.0003 32.2048 30.3692C33.8032 29.9511 35.0573 28.7052 35.4671 27.1069H36.4507C38.4262 27.1069 39.9999 25.4757 39.9999 23.5003V20.8364C40.0081 19.4347 39.1884 18.1561 37.918 17.5741ZM8.47539 28.861C6.86884 28.861 5.56556 27.5577 5.56556 25.9511C5.56556 24.3446 6.86884 23.0413 8.47539 23.0413C10.0819 23.0413 11.3852 24.3446 11.3852 25.9511C11.3934 27.5495 10.0901 28.8528 8.47539 28.861ZM31.0573 28.861C29.4508 28.861 28.1475 27.5577 28.1475 25.9511C28.1475 24.3446 29.4508 23.0413 31.0573 23.0413C32.6639 23.0413 33.9671 24.3446 33.9671 25.9511C33.9753 27.5495 32.6721 28.8528 31.0573 28.861ZM36.4507 25.4675H35.5819C35.3114 22.9675 33.0573 21.1643 30.5573 21.4429C28.4344 21.6725 26.7622 23.3528 26.5327 25.4675H13C12.7295 22.9675 10.4754 21.1643 7.97539 21.4429C5.85245 21.6725 4.18032 23.3528 3.95081 25.4675H3.54098C2.46721 25.4675 1.63114 24.5741 1.63114 23.5003V21.1643C1.62295 20.2872 2.20491 19.5249 3.04917 19.2872L9.43441 17.5413C9.60654 17.4921 9.76227 17.3938 9.86883 17.2462L13.6885 12.238C14.2377 11.5331 15.0819 11.1233 15.9754 11.1233H28.0573C29.0409 11.1151 29.9671 11.6151 30.4835 12.4512L33.4507 17.1889C33.5327 17.3282 33.6639 17.4348 33.8032 17.5003L37.2294 19.0659C37.918 19.3856 38.3606 20.0741 38.3524 20.8364V23.5003H38.3606C38.3606 24.5741 37.5245 25.4675 36.4507 25.4675Z" fill="black"/>
</g>
<defs>
<clipPath id="clip0">
<rect width="40" height="40" fill="white"/>
</clipPath>
</defs>
</svg>
