<svg width="28" height="28" viewBox="0 0 28 28" fill="none" xmlns="http://www.w3.org/2000/svg">
<rect width="28" height="28" rx="4" fill="#5181B8"/>
<path fill-rule="evenodd" clip-rule="evenodd" d="M21.3465 11.0688C21.4536 10.7409 21.3465 10.5 20.8369 10.5H19.1522C18.7238 10.5 18.5264 10.7081 18.4193 10.9377C18.4193 10.9377 17.5625 12.8556 16.3487 14.1015C15.9561 14.4621 15.7776 14.5768 15.5634 14.5768C15.4563 14.5768 15.3013 14.4621 15.3013 14.1343V11.0688C15.3013 10.6753 15.177 10.5 14.8199 10.5H12.1724C11.9048 10.5 11.7438 10.6826 11.7438 10.8557C11.7438 11.2287 12.3505 11.3147 12.4131 12.3638V14.6425C12.4131 15.1421 12.3149 15.2327 12.1007 15.2327C11.5296 15.2327 10.1404 13.306 9.31626 11.1016C9.15476 10.6731 8.99279 10.5 8.56221 10.5H6.87744C6.39608 10.5 6.2998 10.7081 6.2998 10.9377C6.2998 11.3475 6.87106 13.3803 8.95933 16.0688C10.3517 17.9046 12.313 18.9 14.0979 18.9C15.1689 18.9 15.3013 18.6789 15.3013 18.2982V16.9105C15.3013 16.4684 15.4027 16.3802 15.7417 16.3802C15.9918 16.3802 16.4201 16.4949 17.4198 17.3802C18.562 18.4292 18.7502 18.9 19.3929 18.9H21.0776C21.559 18.9 21.7997 18.6789 21.6608 18.2427C21.5089 17.8079 20.9635 17.1772 20.2398 16.4294C19.8471 16.0031 19.2581 15.5441 19.0797 15.3146C18.8298 15.0195 18.9011 14.8884 19.0797 14.6263C19.0797 14.6263 21.1323 11.9706 21.3465 11.0689V11.0688Z" fill="white"/>
</svg>
