<svg width="43" height="28" viewBox="0 0 43 28" fill="none" xmlns="http://www.w3.org/2000/svg">
<rect width="43" height="28" rx="3" fill="#F9F9F9"/>
<path d="M19.1583 18.8436H16.4648L18.1495 9.1875H20.8429L19.1583 18.8436Z" fill="#00579F"/>
<path d="M28.9225 9.42361C28.3912 9.22823 27.5486 9.01251 26.5066 9.01251C23.8467 9.01251 21.9737 10.3273 21.9622 12.2071C21.9401 13.594 23.3032 14.3643 24.3228 14.8267C25.3649 15.2992 25.7191 15.6077 25.7191 16.0289C25.7085 16.6758 24.877 16.9739 24.1016 16.9739C23.0262 16.9739 22.45 16.8202 21.5744 16.4603L21.2197 16.306L20.8428 18.4736C21.4745 18.7404 22.6384 18.9771 23.8467 18.9875C26.6729 18.9875 28.5129 17.6931 28.5347 15.6899C28.5454 14.5906 27.8256 13.7484 26.2738 13.0601C25.3317 12.6183 24.7548 12.3204 24.7548 11.8683C24.7658 11.4574 25.2428 11.0365 26.3062 11.0365C27.1818 11.0158 27.8252 11.2109 28.3126 11.4062L28.5562 11.5087L28.9225 9.42361Z" fill="#00579F"/>
<path d="M32.5022 15.4228C32.724 14.868 33.5776 12.7211 33.5776 12.7211C33.5664 12.7417 33.799 12.1561 33.932 11.7966L34.1202 12.6286C34.1202 12.6286 34.6303 14.94 34.741 15.4228C34.3201 15.4228 33.0342 15.4228 32.5022 15.4228ZM35.827 9.1875H33.7436C33.1011 9.1875 32.613 9.36199 32.3358 9.98867L28.335 18.8434H31.1611C31.1611 18.8434 31.6264 17.6516 31.7264 17.395C32.0365 17.395 34.7858 17.395 35.1847 17.395C35.262 17.734 35.506 18.8434 35.506 18.8434H37.9999L35.827 9.1875Z" fill="#00579F"/>
<path d="M14.2149 9.1875L11.5771 15.772L11.2889 14.4366C10.8012 12.8957 9.27173 11.2215 7.56494 10.3891L9.98108 18.8333H12.8294L17.063 9.1875H14.2149Z" fill="#00579F"/>
<path d="M9.12788 9.1875H4.79433L4.75 9.3826C8.13044 10.1839 10.3692 12.1154 11.2891 14.437L10.347 9.99918C10.1919 9.38247 9.71527 9.20784 9.12788 9.1875Z" fill="#FAA61A"/>
</svg>
