<svg width="73" height="36" viewBox="0 0 73 36" fill="none" xmlns="http://www.w3.org/2000/svg">
<path opacity="0.7" d="M12.9311 10.844C10.7942 12.0234 9.65865 12.9865 8.91667 14.346C7.9785 17.9024 7.49597 23.2794 7.54712 28.1402C26.0219 23.2071 46.674 23.2252 65.1488 28.1402C65.2002 23.2794 64.7174 17.9024 63.7795 14.346C63.0375 12.9862 61.9014 12.0234 59.7642 10.844C62.0237 10.937 65.1878 10.5162 66.731 10.01C67.0202 7.4997 61.0372 7.06899 59.8702 7.56877C59.583 7.69233 59.0075 8.71608 58.6917 9.60199C56.683 6.45381 52.8012 3.05296 50.1066 1.22927C45.2461 -0.462699 27.5318 -0.354292 22.5893 1.22927C20.8343 2.41767 18.5754 4.27546 16.6584 6.29615C16.6769 6.28682 16.6954 6.27721 16.7147 6.26817C19.3041 4.63099 23.2056 2.57912 24.2851 2.35531C29.1559 1.34322 45.6102 1.83163 47.9257 2.60127C48.9358 2.93727 49.9867 3.63143 50.9765 4.46692C49.9554 3.96277 48.8156 3.56236 47.5801 3.39101C45.7575 3.13777 40.8878 3.01158 36.1603 3.00517L33.7925 7.62589C41.1265 7.61044 48.4836 7.88554 54.5677 8.31159C54.8861 8.73007 55.149 9.10542 55.3421 9.40441C40.5882 8.52783 26.9167 8.3827 14.0967 9.87913C13.8144 8.94339 13.1444 7.70545 12.8257 7.56848C11.6592 7.0687 5.67627 7.49971 5.9652 10.0097C7.50869 10.5159 10.6722 10.937 12.9311 10.844ZM45.8231 21.8109C41.1935 21.1319 31.5029 21.1319 26.8734 21.8109C24.6708 22.1338 22.5671 23.0448 20.9973 24.1047C22.4625 22.7814 24.4021 21.2969 26.6517 20.8938C30.3224 20.2361 42.3738 20.2361 46.0441 20.8938C48.2935 21.2969 50.234 22.7814 51.6992 24.1047C50.1285 23.0448 48.0257 22.1338 45.8231 21.8109ZM52.8696 13.4933C54.5275 12.9513 63.0291 13.4181 62.6189 16.1426C58.7102 15.8847 53.8572 16.1732 50.8954 16.9058C51.0733 15.3158 52.2519 13.6952 52.8696 13.4933ZM63.3889 20.4614C50.6064 18.163 22.0169 18.1705 9.30788 20.4614C20.1623 16.5447 52.2048 16.5447 63.3889 20.4614ZM19.7953 13.4933C20.4128 13.6955 21.5925 15.3161 21.7696 16.9055C18.8072 16.1729 13.9551 15.8847 10.0464 16.1423C9.6364 13.4181 18.1377 12.951 19.7953 13.4933ZM27.2654 3.18119L24.6234 7.81181C23.0045 7.87651 21.4157 7.96073 19.8719 8.06389C20.6746 7.0416 23.149 4.01464 25.4148 3.37935C25.6936 3.30067 26.3478 3.23452 27.2654 3.18119ZM35.2383 3.00488L32.8682 7.62997C31.8046 7.63551 30.7433 7.64745 29.6876 7.66611L32.3345 3.02761C33.266 3.01479 34.2441 3.0075 35.2383 3.00488Z" fill="#999999"/>
<path d="M36.3494 27.1747C18.2988 27.1747 3.27074 30.9632 0.0141602 35.9761C7.00608 32.9705 20.6553 30.9308 36.3494 30.9308C52.0443 30.9308 65.6942 32.9702 72.6846 35.9761C69.4289 30.9632 54.4003 27.1747 36.3494 27.1747Z" fill="#999999"/>
</svg>
