<svg width="28" height="28" viewBox="0 0 28 28" fill="none" xmlns="http://www.w3.org/2000/svg">
<rect width="28" height="28" rx="4" fill="#FF0000"/>
<path fill-rule="evenodd" clip-rule="evenodd" d="M20.0253 8.74261C20.6849 8.92708 21.205 9.46732 21.3826 10.1525C21.7124 11.4043 21.6997 14.0132 21.6997 14.0132C21.6997 14.0132 21.6997 16.609 21.3826 17.8607C21.205 18.5459 20.6849 19.0861 20.0253 19.2706C18.8202 19.6 13.9998 19.6 13.9998 19.6C13.9998 19.6 9.19205 19.6 7.97426 19.2574C7.31463 19.073 6.79453 18.5327 6.61694 17.8476C6.2998 16.609 6.2998 14 6.2998 14C6.2998 14 6.2998 11.4043 6.61694 10.1525C6.79453 9.46732 7.32731 8.91391 7.97426 8.72944C9.17936 8.40002 13.9998 8.40002 13.9998 8.40002C13.9998 8.40002 18.8202 8.40002 20.0253 8.74261ZM16.7998 14L12.5998 16.1V11.9L16.7998 14Z" fill="white"/>
</svg>
