<svg width="44" height="28" viewBox="0 0 44 28" fill="none" xmlns="http://www.w3.org/2000/svg">
<g clip-path="url(#clip0)">
<rect width="44" height="28" rx="3" fill="#F9F9F9"/>
<path d="M13.0148 18.2876H11.2012C11.0771 18.2876 10.9716 18.3778 10.9522 18.5003L10.2187 23.1508C10.2041 23.2426 10.2752 23.3253 10.3683 23.3253H11.2341C11.3582 23.3253 11.4637 23.2352 11.4831 23.1124L11.6809 21.8581C11.7 21.7353 11.8058 21.6451 11.9297 21.6451H12.5038C13.6985 21.6451 14.388 21.067 14.568 19.9214C14.6492 19.4202 14.5715 19.0264 14.3368 18.7506C14.079 18.4478 13.6218 18.2876 13.0148 18.2876ZM13.2241 19.9861C13.1249 20.6369 12.6276 20.6369 12.1469 20.6369H11.8732L12.0652 19.4215C12.0766 19.3481 12.1402 19.294 12.2145 19.294H12.3399C12.6674 19.294 12.9764 19.294 13.136 19.4807C13.2312 19.592 13.2604 19.7575 13.2241 19.9861Z" fill="#253B80"/>
<path d="M18.4358 19.9646H17.5674C17.4934 19.9646 17.4295 20.0186 17.4181 20.0921L17.3796 20.335L17.3189 20.247C17.1309 19.9741 16.7116 19.8829 16.2931 19.8829C15.3334 19.8829 14.5137 20.6097 14.3541 21.6294C14.2711 22.138 14.3891 22.6244 14.6776 22.9635C14.9423 23.2754 15.321 23.4053 15.7715 23.4053C16.5448 23.4053 16.9736 22.9081 16.9736 22.9081L16.9349 23.1494C16.9203 23.2417 16.9914 23.3245 17.0839 23.3245H17.8662C17.9906 23.3245 18.0956 23.2343 18.1152 23.1115L18.5846 20.139C18.5995 20.0476 18.5287 19.9646 18.4358 19.9646ZM17.2253 21.6548C17.1415 22.151 16.7477 22.4841 16.2454 22.4841C15.9932 22.4841 15.7917 22.4032 15.6623 22.2499C15.5339 22.0977 15.4851 21.881 15.526 21.6397C15.6042 21.1478 16.0046 20.8039 16.4992 20.8039C16.7458 20.8039 16.9463 20.8858 17.0784 21.0404C17.2107 21.1966 17.2632 21.4146 17.2253 21.6548Z" fill="#253B80"/>
<path d="M23.0615 19.9645H22.1888C22.1055 19.9645 22.0273 20.0059 21.9801 20.0751L20.7764 21.8482L20.2662 20.1443C20.2341 20.0377 20.1357 19.9645 20.0243 19.9645H19.1667C19.0625 19.9645 18.9901 20.0664 19.0233 20.1645L19.9846 22.9855L19.0808 24.2613C19.0097 24.3618 19.0813 24.5 19.2041 24.5H20.0758C20.1585 24.5 20.236 24.4597 20.2829 24.3918L23.1856 20.2019C23.2551 20.1016 23.1838 19.9645 23.0615 19.9645Z" fill="#253B80"/>
<path d="M25.9509 18.287H24.137C24.0131 18.287 23.9076 18.3772 23.8882 18.4997L23.1547 23.1502C23.1402 23.242 23.2112 23.3247 23.3038 23.3247H24.2346C24.321 23.3247 24.395 23.2616 24.4085 23.1757L24.6167 21.8574C24.6358 21.7347 24.7416 21.6445 24.8655 21.6445H25.4393C26.6342 21.6445 27.3235 21.0664 27.5038 19.9208C27.5852 19.4196 27.507 19.0258 27.2723 18.75C27.0148 18.4472 26.5579 18.287 25.9509 18.287ZM26.1601 19.9855C26.0612 20.6363 25.564 20.6363 25.0829 20.6363H24.8095L25.0018 19.4209C25.0132 19.3475 25.0763 19.2934 25.1508 19.2934H25.2762C25.6035 19.2934 25.9127 19.2934 26.0723 19.4801C26.1675 19.5914 26.1964 19.7569 26.1601 19.9855Z" fill="#179BD7"/>
<path d="M31.3717 19.9646H30.5038C30.4293 19.9646 30.3659 20.0186 30.3547 20.0921L30.3163 20.335L30.2553 20.247C30.0673 19.9741 29.6483 19.8829 29.2298 19.8829C28.2701 19.8829 27.4507 20.6097 27.291 21.6294C27.2083 22.138 27.3258 22.6244 27.6143 22.9635C27.8795 23.2754 28.2576 23.4053 28.7082 23.4053C29.4815 23.4053 29.9103 22.9081 29.9103 22.9081L29.8716 23.1494C29.857 23.2417 29.9281 23.3245 30.0211 23.3245H30.8032C30.927 23.3245 31.0326 23.2343 31.0519 23.1115L31.5216 20.139C31.5359 20.0476 31.4648 19.9646 31.3717 19.9646ZM30.1612 21.6548C30.0779 22.151 29.6836 22.4841 29.1813 22.4841C28.9296 22.4841 28.7276 22.4032 28.5981 22.2499C28.4698 22.0977 28.4215 21.881 28.4618 21.6397C28.5406 21.1478 28.9405 20.8039 29.4351 20.8039C29.6817 20.8039 29.8822 20.8858 30.0142 21.0404C30.1471 21.1966 30.1996 21.4146 30.1612 21.6548Z" fill="#179BD7"/>
<path d="M32.3957 18.4146L31.6513 23.1502C31.6367 23.242 31.7078 23.3247 31.8004 23.3247H32.5487C32.6731 23.3247 32.7786 23.2346 32.7977 23.1118L33.5318 18.4615C33.5463 18.3697 33.4753 18.2867 33.3827 18.2867H32.5447C32.4707 18.287 32.4071 18.3411 32.3957 18.4146Z" fill="#179BD7"/>
<path d="M20.1851 14.8908L20.3894 13.5929L19.9343 13.5823H17.7607L19.2712 4.00486C19.2759 3.97594 19.2911 3.94899 19.3134 3.92984C19.3357 3.9107 19.3642 3.90015 19.3939 3.90015H23.0588C24.2754 3.90015 25.1151 4.15333 25.5534 4.65304C25.7589 4.88747 25.8898 5.13244 25.9531 5.40203C26.0195 5.6849 26.0207 6.02287 25.9559 6.43507L25.9512 6.46515V6.72927L26.1567 6.8457C26.3298 6.93752 26.4673 7.04262 26.5728 7.16296C26.7486 7.36339 26.8623 7.61813 26.9104 7.92015C26.96 8.23076 26.9436 8.60037 26.8623 9.01882C26.7685 9.50018 26.6169 9.91941 26.4122 10.2624C26.2239 10.5785 25.984 10.8407 25.6992 11.0439C25.4272 11.2369 25.1041 11.3834 24.7388 11.4772C24.3848 11.5694 23.9812 11.6159 23.5385 11.6159H23.2533C23.0494 11.6159 22.8513 11.6893 22.6958 11.821C22.5399 11.9554 22.4367 12.139 22.4051 12.3398L22.3836 12.4567L22.0226 14.7443L22.0062 14.8283C22.0019 14.8548 21.9945 14.8681 21.9835 14.8771C21.9738 14.8853 21.9597 14.8908 21.946 14.8908H20.1851Z" fill="#253B80"/>
<path d="M26.3514 6.49561C26.3404 6.56554 26.3279 6.63704 26.3139 6.7105C25.8306 9.19189 24.1771 10.0491 22.0653 10.0491H20.9901C20.7318 10.0491 20.5142 10.2366 20.4739 10.4914L19.9234 13.9828L19.7675 14.9724C19.7414 15.1396 19.8703 15.2905 20.0391 15.2905H21.9461C22.172 15.2905 22.3638 15.1264 22.3994 14.9037L22.4181 14.8068L22.7772 12.5282L22.8002 12.4031C22.8354 12.1796 23.0276 12.0155 23.2535 12.0155H23.5387C25.3863 12.0155 26.8327 11.2654 27.2555 9.0946C27.4321 8.18777 27.3407 7.43057 26.8734 6.89804C26.7319 6.73745 26.5565 6.60422 26.3514 6.49561Z" fill="#179BD7"/>
<path d="M25.8455 6.29402C25.7716 6.27253 25.6955 6.25299 25.6173 6.23541C25.5388 6.21822 25.4583 6.20298 25.3755 6.1897C25.0856 6.14281 24.7679 6.12054 24.4276 6.12054H21.5551C21.4844 6.12054 21.4172 6.13656 21.357 6.16548C21.2246 6.22916 21.1261 6.35458 21.1023 6.50813L20.4912 10.3785L20.4736 10.4914C20.5139 10.2367 20.7315 10.0491 20.9898 10.0491H22.065C24.1768 10.0491 25.8303 9.19152 26.3136 6.71051C26.328 6.63706 26.3401 6.56556 26.3511 6.49562C26.2288 6.43077 26.0963 6.37529 25.9537 6.32801C25.9186 6.31629 25.8822 6.30496 25.8455 6.29402Z" fill="#222D65"/>
<path d="M21.1025 6.50807C21.1263 6.35452 21.2248 6.2291 21.3572 6.16581C21.4178 6.13689 21.4846 6.12088 21.5553 6.12088H24.4278C24.7681 6.12088 25.0857 6.14315 25.3756 6.19003C25.4585 6.20331 25.539 6.21855 25.6175 6.23574C25.6956 6.25333 25.7718 6.27286 25.8457 6.29435C25.8824 6.30529 25.9187 6.31662 25.9543 6.32795C26.0969 6.37523 26.2293 6.4311 26.3516 6.49556C26.4954 5.57857 26.3505 4.95422 25.8547 4.38886C25.3081 3.76646 24.3215 3.5 23.0591 3.5H19.3943C19.1364 3.5 18.9164 3.68754 18.8766 3.94267L17.3501 13.6186C17.32 13.81 17.4677 13.9827 17.6607 13.9827H19.9233L20.4914 10.3784L21.1025 6.50807Z" fill="#253B80"/>
</g>
<defs>
<clipPath id="clip0">
<rect width="44" height="28" fill="white"/>
</clipPath>
</defs>
</svg>
