<svg width="44" height="28" viewBox="0 0 44 28" fill="none" xmlns="http://www.w3.org/2000/svg">
<rect width="44" height="28" rx="3" fill="#F9F9F9"/>
<path d="M25.4432 20.8814H17.7876V7.12311H25.4432V20.8814Z" fill="#FF5F00"/>
<path d="M18.2778 14.0012C18.2778 11.2102 19.5845 8.72412 21.6195 7.12199C20.1314 5.95042 18.2533 5.25116 16.2123 5.25116C11.3803 5.25116 7.46338 9.1686 7.46338 14.0012C7.46338 18.8337 11.3803 22.7512 16.2123 22.7512C18.2533 22.7512 20.1314 22.0519 21.6195 20.8803C19.5845 19.2782 18.2778 16.7921 18.2778 14.0012Z" fill="#EB001B"/>
<path d="M35.768 14.0012C35.768 18.8337 31.8511 22.7512 27.0191 22.7512C24.978 22.7512 23.1 22.0519 21.6113 20.8803C23.6468 19.2782 24.9536 16.7921 24.9536 14.0012C24.9536 11.2102 23.6468 8.72412 21.6113 7.12199C23.1 5.95042 24.978 5.25116 27.0191 5.25116C31.8511 5.25116 35.768 9.1686 35.768 14.0012Z" fill="#F79E1B"/>
<path d="M14.047 14.0565C14.047 13.6743 14.2974 13.3603 14.7067 13.3603C15.0978 13.3603 15.3618 13.6608 15.3618 14.0565C15.3618 14.4523 15.0978 14.7527 14.7067 14.7527C14.2974 14.7527 14.047 14.4387 14.047 14.0565ZM15.8075 14.0565V12.9693H15.3347V13.2333C15.1847 13.0375 14.9572 12.9146 14.6479 12.9146C14.0381 12.9146 13.5601 13.3926 13.5601 14.0565C13.5601 14.7209 14.0381 15.1984 14.6479 15.1984C14.9572 15.1984 15.1847 15.0755 15.3347 14.8798V15.1438H15.8075V14.0565ZM31.7848 14.0565C31.7848 13.6743 32.0353 13.3603 32.4445 13.3603C32.8361 13.3603 33.0996 13.6608 33.0996 14.0565C33.0996 14.4523 32.8361 14.7527 32.4445 14.7527C32.0353 14.7527 31.7848 14.4387 31.7848 14.0565ZM33.5458 14.0565V12.0961H33.0725V13.2333C32.9225 13.0375 32.695 12.9146 32.3857 12.9146C31.7759 12.9146 31.2979 13.3926 31.2979 14.0565C31.2979 14.7209 31.7759 15.1984 32.3857 15.1984C32.695 15.1984 32.9225 15.0755 33.0725 14.8798V15.1438H33.5458V14.0565ZM21.6763 13.3379C21.981 13.3379 22.1767 13.529 22.2267 13.8654H21.0984C21.1489 13.5514 21.3394 13.3379 21.6763 13.3379ZM21.6857 12.9146C21.0484 12.9146 20.6027 13.3786 20.6027 14.0565C20.6027 14.748 21.0666 15.1984 21.7175 15.1984C22.045 15.1984 22.3449 15.1167 22.6089 14.8938L22.3772 14.5434C22.195 14.6887 21.9627 14.7709 21.7446 14.7709C21.4399 14.7709 21.1624 14.6298 21.0942 14.2382H22.7089C22.7136 14.1794 22.7183 14.12 22.7183 14.0565C22.7136 13.3786 22.2949 12.9146 21.6857 12.9146ZM27.3947 14.0565C27.3947 13.6743 27.6452 13.3603 28.0545 13.3603C28.4455 13.3603 28.7095 13.6608 28.7095 14.0565C28.7095 14.4523 28.4455 14.7527 28.0545 14.7527C27.6452 14.7527 27.3947 14.4387 27.3947 14.0565ZM29.1552 14.0565V12.9693H28.6824V13.2333C28.5319 13.0375 28.3049 12.9146 27.9956 12.9146C27.3859 12.9146 26.9079 13.3926 26.9079 14.0565C26.9079 14.7209 27.3859 15.1984 27.9956 15.1984C28.3049 15.1984 28.5319 15.0755 28.6824 14.8798V15.1438H29.1552V14.0565ZM24.7246 14.0565C24.7246 14.7163 25.1838 15.1984 25.8847 15.1984C26.2122 15.1984 26.4304 15.1255 26.6668 14.9391L26.4398 14.5569C26.2622 14.6845 26.0758 14.7527 25.8706 14.7527C25.4931 14.748 25.2156 14.4752 25.2156 14.0565C25.2156 13.6379 25.4931 13.365 25.8706 13.3603C26.0758 13.3603 26.2622 13.4285 26.4398 13.5561L26.6668 13.1739C26.4304 12.9875 26.2122 12.9146 25.8847 12.9146C25.1838 12.9146 24.7246 13.3968 24.7246 14.0565ZM30.8204 12.9146C30.5476 12.9146 30.37 13.0422 30.2472 13.2333V12.9693H29.7785V15.1438H30.2518V13.9248C30.2518 13.565 30.4065 13.365 30.7158 13.365C30.8116 13.365 30.9116 13.3786 31.0115 13.4197L31.1573 12.974C31.0527 12.9328 30.9163 12.9146 30.8204 12.9146ZM18.146 13.1422C17.9184 12.9922 17.605 12.9146 17.2592 12.9146C16.7083 12.9146 16.3537 13.1786 16.3537 13.6108C16.3537 13.9654 16.6177 14.1841 17.104 14.2523L17.3274 14.2841C17.5867 14.3205 17.7091 14.3887 17.7091 14.5116C17.7091 14.6798 17.5362 14.7756 17.2134 14.7756C16.8859 14.7756 16.6495 14.671 16.4901 14.5481L16.2673 14.9162C16.5266 15.1073 16.8541 15.1984 17.2087 15.1984C17.8367 15.1984 18.2006 14.9027 18.2006 14.4887C18.2006 14.1065 17.9142 13.9066 17.4409 13.8383L17.2181 13.8061C17.0134 13.779 16.8494 13.7384 16.8494 13.5926C16.8494 13.4332 17.0041 13.3379 17.2634 13.3379C17.5409 13.3379 17.8096 13.4426 17.9413 13.5244L18.146 13.1422ZM24.2465 12.9146C23.9737 12.9146 23.7961 13.0422 23.6738 13.2333V12.9693H23.2051V15.1438H23.6779V13.9248C23.6779 13.565 23.8326 13.365 24.1419 13.365C24.2377 13.365 24.3377 13.3786 24.4376 13.4197L24.5834 12.974C24.4788 12.9328 24.3424 12.9146 24.2465 12.9146ZM20.2116 12.9693H19.4384V12.3096H18.9603V12.9693H18.5193V13.4015H18.9603V14.3934C18.9603 14.898 19.1561 15.1984 19.7154 15.1984C19.9205 15.1984 20.1569 15.1349 20.3069 15.0302L20.1705 14.6251C20.0294 14.7069 19.8747 14.748 19.7518 14.748C19.5154 14.748 19.4384 14.6022 19.4384 14.384V13.4015H20.2116V12.9693ZM13.142 15.1438V13.779C13.142 13.265 12.8145 12.9193 12.2865 12.9146C12.0089 12.9099 11.7225 12.9964 11.5221 13.3015C11.3721 13.0604 11.1357 12.9146 10.8035 12.9146C10.5713 12.9146 10.3442 12.9828 10.1667 13.2374V12.9693H9.69336V15.1438H10.1708V13.9383C10.1708 13.5608 10.3802 13.3603 10.7035 13.3603C11.0175 13.3603 11.1763 13.565 11.1763 13.9336V15.1438H11.6543V13.9383C11.6543 13.5608 11.8725 13.3603 12.1865 13.3603C12.5093 13.3603 12.664 13.565 12.664 13.9336V15.1438H13.142Z" fill="white"/>
</svg>
