<svg width="28" height="28" viewBox="0 0 28 28" fill="none" xmlns="http://www.w3.org/2000/svg">
<rect width="28" height="28" rx="4" fill="url(#paint0_linear)"/>
<path d="M11.4338 14C11.4338 12.5825 12.5826 11.4331 14.0001 11.4331C15.4176 11.4331 16.5671 12.5825 16.5671 14C16.5671 15.4175 15.4176 16.5669 14.0001 16.5669C12.5826 16.5669 11.4338 15.4175 11.4338 14ZM10.0461 14C10.0461 16.1837 11.8163 17.9538 14.0001 17.9538C16.1839 17.9538 17.9541 16.1837 17.9541 14C17.9541 11.8163 16.1839 10.0461 14.0001 10.0461C11.8163 10.0461 10.0461 11.8163 10.0461 14ZM17.1866 9.88936C17.1866 10.0721 17.2407 10.2508 17.3421 10.4028C17.4436 10.5548 17.5879 10.6732 17.7567 10.7433C17.9255 10.8133 18.1113 10.8316 18.2906 10.796C18.4698 10.7605 18.6345 10.6725 18.7638 10.5434C18.8931 10.4142 18.9811 10.2496 19.0169 10.0704C19.0526 9.89113 19.0344 9.70534 18.9645 9.53647C18.8946 9.3676 18.7763 9.22325 18.6243 9.12166C18.4724 9.02006 18.2938 8.9658 18.111 8.96573H18.1107C17.8657 8.96584 17.6308 9.06318 17.4575 9.23636C17.2843 9.40954 17.1868 9.6444 17.1866 9.88936ZM10.8892 20.2676C10.1384 20.2334 9.73038 20.1084 9.45921 20.0027C9.0997 19.8628 8.84319 19.6961 8.57349 19.4268C8.30379 19.1574 8.13685 18.9012 7.99751 18.5417C7.8918 18.2707 7.76674 17.8625 7.73262 17.1118C7.69529 16.3001 7.68783 16.0563 7.68783 14C7.68783 11.9438 7.6959 11.7006 7.73262 10.8883C7.76681 10.1376 7.89278 9.73025 7.99751 9.4584C8.13747 9.09891 8.30416 8.8424 8.57349 8.57272C8.84282 8.30304 9.09908 8.1361 9.45921 7.99676C9.73026 7.89105 10.1384 7.76601 10.8892 7.73188C11.7009 7.69455 11.9447 7.6871 14.0001 7.6871C16.0555 7.6871 16.2996 7.69517 17.112 7.73188C17.8627 7.76607 18.2701 7.89204 18.5419 7.99676C18.9015 8.1361 19.158 8.3034 19.4277 8.57272C19.6974 8.84204 19.8637 9.09891 20.0036 9.4584C20.1094 9.72944 20.2344 10.1376 20.2685 10.8883C20.3059 11.7006 20.3133 11.9438 20.3133 14C20.3133 16.0563 20.3059 16.2995 20.2685 17.1118C20.2343 17.8625 20.1087 18.2705 20.0036 18.5417C19.8637 18.9012 19.697 19.1577 19.4277 19.4268C19.1583 19.6958 18.9015 19.8628 18.5419 20.0027C18.2709 20.1084 17.8627 20.2335 17.112 20.2676C16.3003 20.3049 16.0565 20.3124 14.0001 20.3124C11.9438 20.3124 11.7006 20.3049 10.8892 20.2676ZM10.8254 6.34662C10.0057 6.38395 9.44553 6.51392 8.95635 6.70427C8.44973 6.90083 8.02085 7.16454 7.59229 7.59242C7.16372 8.02029 6.90068 8.44983 6.7041 8.95643C6.51375 9.4459 6.38377 10.0057 6.34644 10.8254C6.30849 11.6464 6.2998 11.9089 6.2998 14C6.2998 16.0911 6.30849 16.3535 6.34644 17.1745C6.38377 17.9943 6.51375 18.5541 6.7041 19.0435C6.90068 19.5498 7.16378 19.9799 7.59229 20.4076C8.02079 20.8352 8.44973 21.0986 8.95635 21.2957C9.44646 21.4861 10.0057 21.616 10.8254 21.6534C11.6469 21.6907 11.909 21.7 14.0001 21.7C16.0913 21.7 16.3538 21.6913 17.1748 21.6534C17.9946 21.616 18.5544 21.4861 19.0439 21.2957C19.5502 21.0986 19.9794 20.8354 20.4079 20.4076C20.8365 19.9797 21.099 19.5498 21.2961 19.0435C21.4865 18.5541 21.6171 17.9943 21.6538 17.1745C21.6911 16.3529 21.6998 16.0911 21.6998 14C21.6998 11.9089 21.6911 11.6464 21.6538 10.8254C21.6165 10.0057 21.4865 9.44559 21.2961 8.95643C21.099 8.45014 20.8358 8.02097 20.4079 7.59242C19.98 7.16387 19.5502 6.90083 19.0445 6.70427C18.5544 6.51392 17.9945 6.38333 17.1754 6.34662C16.3544 6.30929 16.0919 6.29999 14.0007 6.29999C11.9096 6.29999 11.6469 6.30867 10.8254 6.34662Z" fill="white"/>
<defs>
<linearGradient id="paint0_linear" x1="0.875" y1="30.3333" x2="25.375" y2="-1.75477e-07" gradientUnits="userSpaceOnUse">
<stop stop-color="#F7D472"/>
<stop offset="0.297462" stop-color="#F37B1D"/>
<stop offset="0.557292" stop-color="#D02873"/>
<stop offset="0.796875" stop-color="#922EBA"/>
<stop offset="1" stop-color="#4D58CF"/>
</linearGradient>
</defs>
</svg>
