<svg width="231" height="36" viewBox="0 0 231 36" fill="none" xmlns="http://www.w3.org/2000/svg">
<path d="M12.9331 10.8649C10.7961 12.0443 9.6606 13.0074 8.91862 14.3669C7.98045 17.9233 7.49793 23.3003 7.54907 28.1611C26.0238 23.228 46.676 23.2461 65.1507 28.1611C65.2022 23.3003 64.7193 17.9233 63.7815 14.3669C63.0395 13.0071 61.9034 12.0443 59.7661 10.8649C62.0256 10.9578 65.1897 10.537 66.7329 10.0309C67.0221 7.52058 61.0392 7.08986 59.8722 7.58965C59.585 7.71321 59.0094 8.73696 58.6936 9.62286C56.6849 6.47468 52.8031 3.07384 50.1085 1.25015C45.2481 -0.441825 27.5338 -0.333417 22.5913 1.25015C20.8363 2.43855 18.5774 4.29633 16.6603 6.31702C16.6788 6.3077 16.6973 6.29808 16.7167 6.28905C19.3061 4.65186 23.2076 2.59999 24.287 2.37619C29.1579 1.36409 45.6121 1.85251 47.9276 2.62214C48.9378 2.95814 49.9886 3.6523 50.9785 4.4878C49.9574 3.98364 48.8176 3.58324 47.5821 3.41188C45.7595 3.15864 40.8898 3.03246 36.1622 3.02605L33.7944 7.64676C41.1284 7.63132 48.4856 7.90642 54.5697 8.33247C54.8881 8.75094 55.151 9.12629 55.344 9.42528C40.5902 8.5487 26.9186 8.40358 14.0986 9.9C13.8163 8.96426 13.1463 7.72632 12.8276 7.58935C11.6612 7.08957 5.67822 7.52058 5.96715 10.0306C7.51064 10.5368 10.6742 10.9578 12.9331 10.8649ZM45.8251 21.8318C41.1955 21.1528 31.5049 21.1528 26.8753 21.8318C24.6728 22.1547 22.569 23.0657 20.9993 24.1256C22.4644 22.8022 24.4041 21.3177 26.6537 20.9147C30.3243 20.257 42.3758 20.257 46.0461 20.9147C48.2954 21.3177 50.2359 22.8022 51.7011 24.1256C50.1305 23.0657 48.0276 22.1547 45.8251 21.8318ZM52.8716 13.5142C54.5295 12.9721 63.0311 13.439 62.6208 16.1634C58.7121 15.9055 53.8592 16.194 50.8973 16.9267C51.0753 15.3367 52.2539 13.7161 52.8716 13.5142ZM63.3908 20.4823C50.6084 18.1838 22.0189 18.1914 9.30984 20.4823C20.1642 16.5656 52.2068 16.5656 63.3908 20.4823ZM19.7973 13.5142C20.4147 13.7164 21.5945 15.337 21.7716 16.9264C18.8091 16.1937 13.9571 15.9055 10.0484 16.1632C9.63835 13.439 18.1397 12.9718 19.7973 13.5142ZM27.2674 3.20206L24.6254 7.83269C23.0065 7.89738 21.4176 7.9816 19.8738 8.08476C20.6765 7.06247 23.1509 4.03552 25.4168 3.40023C25.6956 3.32154 26.3497 3.25539 27.2674 3.20206ZM35.2402 3.02575L32.8701 7.65084C31.8065 7.65638 30.7453 7.66833 29.6895 7.68698L32.3365 3.04849C33.268 3.03566 34.246 3.02838 35.2402 3.02575Z" fill="white"/>
<path d="M36.3509 27.1953C18.3003 27.1953 3.2722 30.9837 0.015625 35.9967C7.00755 32.991 20.6568 30.9514 36.3509 30.9514C52.0458 30.9514 65.6956 32.9907 72.6861 35.9967C69.4304 30.9837 54.4018 27.1953 36.3509 27.1953Z" fill="white"/>
<path d="M80.0472 21.4806H77.9922L90.4508 3.5H93.2765L99.3131 21.4806H97.1553L95.6654 16.9725H83.1298L80.0472 21.4806ZM84.4655 15.1589H95.0489L91.6067 4.79543L84.4655 15.1589Z" fill="white"/>
<path d="M111.43 21.5324H106.447C104.803 21.5324 103.595 21.2128 102.825 20.5738C102.054 19.9347 101.669 18.9933 101.669 17.7497C101.669 17.4043 101.712 16.9725 101.797 16.4543L103.184 8.68172H105.034L103.621 16.6098C103.57 16.9034 103.544 17.1797 103.544 17.4388C103.544 18.2679 103.818 18.8983 104.366 19.3302C104.914 19.762 105.693 19.9779 106.704 19.9779H111.687C112.697 19.9779 113.596 19.7101 114.384 19.1747C115.258 18.5874 115.788 17.7843 115.977 16.7652L117.415 8.68172H119.265L116.979 21.4806H115.181L115.463 19.9261C115.052 20.2888 114.701 20.5565 114.41 20.7292C113.502 21.2647 112.509 21.5324 111.43 21.5324Z" fill="white"/>
<path d="M122.824 16.9207L124.005 10.1844H133.587L133.869 8.6299H124.288L124.75 6.14268H122.901L122.438 8.6299H120.846L120.563 10.1844H122.156L121.026 16.6357C120.974 16.9984 120.94 17.2488 120.923 17.387C120.906 17.5079 120.897 17.7065 120.897 17.9829C120.897 19.1574 121.222 20.0383 121.873 20.6256C122.541 21.1956 123.492 21.4806 124.725 21.4806H127.37C129.528 21.4806 131.155 20.8674 132.251 19.6411C132.953 18.8638 133.407 17.8706 133.613 16.6616L133.69 16.2988H131.84L131.814 16.4543C131.575 17.8015 131.095 18.717 130.376 19.2006C129.657 19.6842 128.689 19.9261 127.473 19.9261H125.007C124.305 19.9261 123.766 19.7533 123.389 19.4079C122.961 19.0106 122.747 18.4493 122.747 17.7238C122.747 17.482 122.772 17.2143 122.824 16.9207Z" fill="white"/>
<path d="M135.769 13.6562C136.094 12.0844 136.736 10.884 137.695 10.0549C138.791 9.10489 140.298 8.6299 142.216 8.6299H147.303C148.981 8.6299 150.222 9.0099 151.027 9.76988C151.712 10.4262 152.055 11.3417 152.055 12.5162C152.055 12.7407 152.055 12.9653 152.055 13.1898C152.003 13.4144 151.969 13.5698 151.952 13.6562L151.464 16.4543C151.156 17.957 150.531 19.1402 149.589 20.0038C148.459 21.0229 146.934 21.5324 145.016 21.5324H139.93C138.32 21.5324 137.122 21.2128 136.334 20.5738C135.563 19.9174 135.178 18.9502 135.178 17.672C135.178 17.482 135.178 17.3266 135.178 17.2056C135.178 17.0675 135.212 16.817 135.281 16.4543L135.486 15.0552L135.769 13.6562ZM137.13 16.4543C137.079 16.7997 137.053 17.102 137.053 17.3611C137.053 19.1056 138.141 19.9779 140.315 19.9779H145.145C146.344 19.9779 147.32 19.7015 148.073 19.1488C148.895 18.5443 149.409 17.6461 149.614 16.4543L150.103 13.6562C150.154 13.3625 150.18 13.0862 150.18 12.8271C150.18 11.0653 149.084 10.1844 146.892 10.1844H142.062C140.778 10.1844 139.776 10.4608 139.057 11.0135C138.355 11.5489 137.875 12.4298 137.618 13.6562L137.13 16.4543Z" fill="white"/>
<path d="M155.338 8.57809C155.664 6.78175 156.357 5.48633 157.419 4.6918C158.481 3.89727 160.022 3.5 162.043 3.5H171.034C174.544 3.5 176.3 4.79543 176.3 7.38629C176.3 7.6281 176.3 7.86992 176.3 8.11173C176.248 8.319 176.214 8.47445 176.197 8.57809H174.347C174.382 8.40536 174.399 8.16355 174.399 7.85264C174.399 7.0063 174.107 6.38449 173.525 5.98722C172.874 5.53814 171.804 5.3136 170.314 5.3136H161.735C160.159 5.3136 159.037 5.58132 158.369 6.11677C157.787 6.58312 157.393 7.40356 157.188 8.57809C157.154 8.73354 157.128 8.88035 157.111 9.01853C157.094 9.13944 157.085 9.27762 157.085 9.43307C157.085 10.124 157.385 10.6162 157.984 10.9099C158.583 11.1862 159.68 11.3244 161.272 11.3244H169.235C171.273 11.3244 172.763 11.6094 173.705 12.1794C174.647 12.7494 175.118 13.6562 175.118 14.8998C175.118 15.1243 175.118 15.3489 175.118 15.5734C175.067 15.7807 175.032 15.9361 175.015 16.0398L174.938 16.4025C174.527 18.2852 173.816 19.6065 172.806 20.3665C171.813 21.1092 170.271 21.4806 168.182 21.4806H158.986C157.41 21.4806 156.186 21.1524 155.313 20.496C154.439 19.8397 154.002 18.8552 154.002 17.5425C154.002 17.3525 154.002 17.197 154.002 17.0761C154.002 16.9379 154.037 16.6961 154.105 16.3507H155.955C155.938 16.4716 155.921 16.6098 155.903 16.7652C155.903 16.9207 155.903 17.0329 155.903 17.102C155.903 17.9484 156.186 18.5702 156.751 18.9674C157.402 19.4338 158.464 19.667 159.936 19.667H168.362C169.749 19.667 170.828 19.4079 171.599 18.8897C172.386 18.3543 172.892 17.5079 173.114 16.3507C173.131 16.1952 173.148 16.0398 173.166 15.8843C173.2 15.7289 173.217 15.5648 173.217 15.392C173.217 14.5802 172.926 14.0016 172.344 13.6562C171.778 13.3107 170.794 13.138 169.39 13.138H160.424C158.506 13.138 157.154 12.8789 156.366 12.3607C155.578 11.8426 155.184 11.048 155.184 9.97715C155.184 9.56261 155.236 9.09626 155.338 8.57809Z" fill="white"/>
<path d="M179.944 16.9207L181.126 10.1844H190.707L190.99 8.6299H181.408L181.871 6.14268H180.021L179.559 8.6299H177.966L177.683 10.1844H179.276L178.146 16.6357C178.094 16.9984 178.06 17.2488 178.043 17.387C178.026 17.5079 178.017 17.7065 178.017 17.9829C178.017 19.1574 178.343 20.0383 178.994 20.6256C179.661 21.1956 180.612 21.4806 181.845 21.4806H184.491C186.649 21.4806 188.275 20.8674 189.371 19.6411C190.074 18.8638 190.527 17.8706 190.733 16.6616L190.81 16.2988H188.96L188.935 16.4543C188.695 17.8015 188.215 18.717 187.496 19.2006C186.777 19.6842 185.809 19.9261 184.593 19.9261H182.127C181.425 19.9261 180.886 19.7533 180.509 19.4079C180.081 19.0106 179.867 18.4493 179.867 17.7238C179.867 17.482 179.893 17.2143 179.944 16.9207Z" fill="white"/>
<path d="M192.889 13.6562C193.214 12.0844 193.857 10.884 194.816 10.0549C195.912 9.10489 197.419 8.6299 199.337 8.6299H204.423C206.101 8.6299 207.343 9.0099 208.148 9.76988C208.833 10.4262 209.175 11.3417 209.175 12.5162C209.175 12.7407 209.175 12.9653 209.175 13.1898C209.124 13.4144 209.09 13.5698 209.072 13.6562L208.584 16.4543C208.276 17.957 207.651 19.1402 206.709 20.0038C205.579 21.0229 204.055 21.5324 202.137 21.5324H197.05C195.441 21.5324 194.242 21.2128 193.454 20.5738C192.684 19.9174 192.298 18.9502 192.298 17.672C192.298 17.482 192.298 17.3266 192.298 17.2056C192.298 17.0675 192.332 16.817 192.401 16.4543L192.606 15.0552L192.889 13.6562ZM194.251 16.4543C194.199 16.7997 194.173 17.102 194.173 17.3611C194.173 19.1056 195.261 19.9779 197.436 19.9779H202.265C203.464 19.9779 204.44 19.7015 205.194 19.1488C206.016 18.5443 206.529 17.6461 206.735 16.4543L207.223 13.6562C207.274 13.3625 207.3 13.0862 207.3 12.8271C207.3 11.0653 206.204 10.1844 204.012 10.1844H199.183C197.898 10.1844 196.896 10.4608 196.177 11.0135C195.475 11.5489 194.995 12.4298 194.739 13.6562L194.251 16.4543Z" fill="white"/>
<path d="M212.176 8.68172H214.437L218.367 13.3971L223.89 8.68172H226.15L219.24 14.5371L224.891 21.4806H222.58L217.904 15.7289L211.123 21.4806H208.914L216.98 14.5371L212.176 8.68172Z" fill="white"/>
<g opacity="0.7">
<path d="M146.635 31.5533H146L149.848 26H150.721L152.585 31.5533H151.919L151.458 30.161H147.587L146.635 31.5533ZM147.999 29.6008H151.268L150.205 26.4001L147.999 29.6008Z" fill="white"/>
<path d="M154.32 28.0485L154.098 29.2968H157.057C157.544 29.2968 157.819 29.1154 157.882 28.7526L157.914 28.5926C157.919 28.5659 157.922 28.5312 157.922 28.4886C157.922 28.1952 157.702 28.0485 157.263 28.0485H154.32ZM153.122 31.5533L153.836 27.5684H157.271C157.684 27.5684 157.991 27.6404 158.192 27.7844C158.398 27.9284 158.501 28.1312 158.501 28.3925C158.501 28.4246 158.501 28.4566 158.501 28.4886C158.491 28.5366 158.485 28.5713 158.485 28.5926L158.453 28.7526C158.416 28.9607 158.329 29.1341 158.192 29.2728C158.054 29.4061 157.89 29.4888 157.7 29.5208C157.901 29.5688 158.049 29.6542 158.144 29.7769C158.239 29.8942 158.287 30.0329 158.287 30.193C158.287 30.225 158.282 30.273 158.271 30.337L158.239 30.513C158.181 30.8438 158.02 31.0998 157.755 31.2812C157.496 31.4626 157.126 31.5533 156.645 31.5533H153.122ZM154.011 29.7769L153.781 31.0572H156.716C157.287 31.0572 157.605 30.8758 157.668 30.513L157.7 30.337C157.71 30.2623 157.716 30.209 157.716 30.177C157.716 30.0489 157.655 29.9502 157.533 29.8809C157.412 29.8115 157.187 29.7769 156.859 29.7769H154.011Z" fill="white"/>
<path d="M161.415 31.5533H160.844L161.463 28.0805H159.32L159.408 27.6004H164.263L164.176 28.0805H162.034L161.415 31.5533Z" fill="white"/>
<path d="M164.58 29.1367C164.681 28.6513 164.879 28.2805 165.175 28.0245C165.514 27.7311 165.979 27.5844 166.572 27.5844H168.142C168.661 27.5844 169.044 27.7017 169.293 27.9364C169.504 28.1392 169.61 28.4219 169.61 28.7846C169.61 28.854 169.61 28.9233 169.61 28.9927C169.594 29.062 169.584 29.11 169.578 29.1367L169.428 30.0009C169.333 30.465 169.139 30.8304 168.849 31.0972C168.499 31.4119 168.029 31.5693 167.436 31.5693H165.865C165.368 31.5693 164.998 31.4706 164.755 31.2732C164.517 31.0705 164.398 30.7718 164.398 30.377C164.398 30.3183 164.398 30.2703 164.398 30.233C164.398 30.1903 164.408 30.1129 164.43 30.0009L164.493 29.5688L164.58 29.1367ZM165.001 30.0009C164.985 30.1076 164.977 30.201 164.977 30.281C164.977 30.8198 165.313 31.0892 165.984 31.0892H167.476C167.846 31.0892 168.148 31.0038 168.38 30.8331C168.634 30.6464 168.793 30.369 168.856 30.0009L169.007 29.1367C169.023 29.046 169.031 28.9607 169.031 28.8807C169.031 28.3365 168.693 28.0645 168.016 28.0645H166.524C166.127 28.0645 165.818 28.1498 165.596 28.3205C165.379 28.4859 165.231 28.758 165.151 29.1367L165.001 30.0009Z" fill="white"/>
<path d="M170.124 30.0649C170.177 29.7769 170.312 29.5555 170.529 29.4008C170.772 29.2247 171.1 29.1367 171.513 29.1367H173.798C174.067 29.1367 174.258 29.1874 174.369 29.2888C174.406 29.3208 174.435 29.3741 174.456 29.4488L174.559 28.9047C174.57 28.83 174.575 28.7713 174.575 28.7286C174.575 28.5259 174.514 28.3712 174.393 28.2645C174.255 28.1418 174.041 28.0805 173.75 28.0805H172.235C171.833 28.0805 171.537 28.1658 171.346 28.3365C171.283 28.3899 171.227 28.4752 171.18 28.5926L171.148 28.7366H170.561L170.593 28.5926C170.566 28.3685 170.722 28.1392 171.061 27.9044C171.352 27.7017 171.724 27.6004 172.179 27.6004H173.901C174.34 27.6004 174.66 27.6857 174.861 27.8564C175.062 28.0271 175.162 28.2805 175.162 28.6166C175.162 28.6913 175.162 28.766 175.162 28.8407C175.146 28.91 175.136 28.9607 175.131 28.9927L174.67 31.5533H174.099L174.155 31.2332C174.075 31.3079 174.009 31.3612 173.956 31.3932C173.787 31.4999 173.602 31.5533 173.401 31.5533H171.18C170.799 31.5533 170.511 31.4919 170.315 31.3692C170.119 31.2412 170.021 31.0412 170.021 30.7691C170.021 30.6997 170.029 30.6251 170.045 30.545L170.124 30.0649ZM171.64 29.6168C171.301 29.6168 171.066 29.6622 170.934 29.7529C170.801 29.8435 170.717 29.9902 170.68 30.193L170.624 30.481C170.614 30.545 170.608 30.5931 170.608 30.6251C170.608 30.7744 170.664 30.8838 170.775 30.9531C170.891 31.0225 171.092 31.0572 171.378 31.0572H173.314C173.615 31.0572 173.843 31.0011 173.996 30.8891C174.155 30.7718 174.255 30.5877 174.298 30.337C174.308 30.305 174.313 30.2703 174.313 30.233C174.313 30.1956 174.313 30.169 174.313 30.153C174.313 29.7955 174.067 29.6168 173.576 29.6168H171.64Z" fill="white"/>
<path d="M175.582 31.5533L176.288 27.6004H176.86L176.59 29.1047H177.209L179.541 27.6004H180.454L177.661 29.3608L179.954 31.5533H179.129L177.113 29.5848H176.503L176.154 31.5533H175.582Z" fill="white"/>
<path d="M182.628 28.0645C182.29 28.0645 182.012 28.1525 181.795 28.3285C181.584 28.4992 181.446 28.758 181.383 29.1047L181.208 30.0969C181.192 30.177 181.184 30.249 181.184 30.313C181.184 30.5584 181.264 30.7504 181.422 30.8891C181.586 31.0225 181.795 31.0892 182.049 31.0892H183.795C184.218 31.0892 184.543 30.9745 184.77 30.7451C184.913 30.6011 185.003 30.433 185.04 30.241L185.048 30.161H185.619L185.611 30.225C185.574 30.4277 185.508 30.6064 185.413 30.7611C185.085 31.2999 184.522 31.5693 183.723 31.5693H181.962C181.502 31.5693 181.161 31.4733 180.938 31.2812C180.716 31.0892 180.605 30.8144 180.605 30.457C180.605 30.4143 180.605 30.369 180.605 30.321C180.605 30.273 180.616 30.1983 180.637 30.0969L180.812 29.1047C180.891 28.6513 181.087 28.2912 181.399 28.0245C181.737 27.7311 182.176 27.5844 182.716 27.5844H184.429L184.445 27.6004C184.995 27.6004 185.387 27.7364 185.619 28.0085C185.778 28.1952 185.857 28.4326 185.857 28.7206C185.857 28.7953 185.852 28.8593 185.841 28.9127L185.834 28.9767H185.262L185.27 28.9287C185.276 28.9073 185.278 28.862 185.278 28.7926C185.278 28.6006 185.225 28.4459 185.119 28.3285C184.966 28.1525 184.707 28.0645 184.342 28.0645H182.628Z" fill="white"/>
<path d="M190.973 29.1367C190.989 29.046 190.997 28.9607 190.997 28.8807C190.997 28.6246 190.92 28.4246 190.767 28.2805C190.613 28.1365 190.394 28.0645 190.108 28.0645H188.315C188.014 28.0645 187.752 28.1632 187.53 28.3605C187.313 28.5526 187.176 28.8113 187.117 29.1367H190.973ZM187.038 29.6168L186.967 30.0009C186.956 30.0543 186.948 30.1049 186.943 30.153C186.938 30.201 186.935 30.2516 186.935 30.305C186.935 30.5824 187.017 30.7824 187.181 30.9051C187.35 31.0278 187.575 31.0892 187.855 31.0892H189.72C190.021 31.0892 190.259 31.0225 190.434 30.8891C190.608 30.7504 190.717 30.577 190.759 30.369L190.767 30.289H191.338L191.33 30.369C191.272 30.6731 191.126 30.9345 190.894 31.1532C190.598 31.4306 190.206 31.5693 189.72 31.5693H187.8C186.826 31.5693 186.34 31.1985 186.34 30.457C186.34 30.3557 186.353 30.2303 186.38 30.0809L186.57 29.0407C186.639 28.6513 186.84 28.3179 187.173 28.0405C187.538 27.7364 187.977 27.5844 188.49 27.5844H190.14C190.616 27.5844 190.984 27.6964 191.243 27.9204C191.481 28.1232 191.6 28.3925 191.6 28.7286C191.6 28.814 191.592 28.8967 191.576 28.9767L191.465 29.6168H187.038Z" fill="white"/>
<path d="M194.079 28.0645C193.741 28.0645 193.463 28.1525 193.246 28.3285C193.035 28.4992 192.897 28.758 192.834 29.1047L192.659 30.0969C192.643 30.177 192.635 30.249 192.635 30.313C192.635 30.5584 192.715 30.7504 192.874 30.8891C193.037 31.0225 193.246 31.0892 193.5 31.0892H195.246C195.669 31.0892 195.994 30.9745 196.222 30.7451C196.364 30.6011 196.454 30.433 196.491 30.241L196.499 30.161H197.07L197.062 30.225C197.025 30.4277 196.959 30.6064 196.864 30.7611C196.536 31.2999 195.973 31.5693 195.174 31.5693H193.413C192.953 31.5693 192.612 31.4733 192.39 31.2812C192.167 31.0892 192.056 30.8144 192.056 30.457C192.056 30.4143 192.056 30.369 192.056 30.321C192.056 30.273 192.067 30.1983 192.088 30.0969L192.263 29.1047C192.342 28.6513 192.538 28.2912 192.85 28.0245C193.188 27.7311 193.627 27.5844 194.167 27.5844H195.88L195.896 27.6004C196.446 27.6004 196.838 27.7364 197.07 28.0085C197.229 28.1952 197.308 28.4326 197.308 28.7206C197.308 28.7953 197.303 28.8593 197.293 28.9127L197.285 28.9767H196.713L196.721 28.9287C196.727 28.9073 196.729 28.862 196.729 28.7926C196.729 28.6006 196.676 28.4459 196.571 28.3285C196.417 28.1525 196.158 28.0645 195.793 28.0645H194.079Z" fill="white"/>
<path d="M199.758 28.0645C199.42 28.0645 199.142 28.1525 198.925 28.3285C198.714 28.4992 198.576 28.758 198.513 29.1047L198.338 30.0969C198.323 30.177 198.315 30.249 198.315 30.313C198.315 30.5584 198.394 30.7504 198.553 30.8891C198.717 31.0225 198.925 31.0892 199.179 31.0892H200.925C201.348 31.0892 201.673 30.9745 201.901 30.7451C202.043 30.6011 202.133 30.433 202.17 30.241L202.178 30.161H202.749L202.742 30.225C202.705 30.4277 202.638 30.6064 202.543 30.7611C202.215 31.2999 201.652 31.5693 200.853 31.5693H199.092C198.632 31.5693 198.291 31.4733 198.069 31.2812C197.846 31.0892 197.735 30.8144 197.735 30.457C197.735 30.4143 197.735 30.369 197.735 30.321C197.735 30.273 197.746 30.1983 197.767 30.0969L197.942 29.1047C198.021 28.6513 198.217 28.2912 198.529 28.0245C198.867 27.7311 199.306 27.5844 199.846 27.5844H201.559L201.575 27.6004C202.125 27.6004 202.517 27.7364 202.749 28.0085C202.908 28.1952 202.987 28.4326 202.987 28.7206C202.987 28.7953 202.982 28.8593 202.972 28.9127L202.964 28.9767H202.392L202.4 28.9287C202.406 28.9073 202.408 28.862 202.408 28.7926C202.408 28.6006 202.355 28.4459 202.25 28.3285C202.096 28.1525 201.837 28.0645 201.472 28.0645H199.758Z" fill="white"/>
<path d="M203.573 27.6004H204.168L205.39 30.9931H205.501L207.548 27.6004H208.143L205.374 32.0734C205.104 32.5108 204.861 32.8069 204.644 32.9616C204.374 33.1536 204.01 33.2497 203.549 33.2497H203.359L203.446 32.7696H203.779C204.081 32.7696 204.337 32.6602 204.549 32.4415C204.676 32.3134 204.88 32.0174 205.16 31.5533H205.017L203.573 27.6004Z" fill="white"/>
<path d="M208.166 30.0649C208.219 29.7769 208.353 29.5555 208.57 29.4008C208.814 29.2247 209.142 29.1367 209.554 29.1367H211.839C212.109 29.1367 212.299 29.1874 212.41 29.2888C212.447 29.3208 212.476 29.3741 212.497 29.4488L212.601 28.9047C212.611 28.83 212.616 28.7713 212.616 28.7286C212.616 28.5259 212.556 28.3712 212.434 28.2645C212.296 28.1418 212.082 28.0805 211.791 28.0805H210.276C209.874 28.0805 209.578 28.1658 209.387 28.3365C209.324 28.3899 209.268 28.4752 209.221 28.5926L209.189 28.7366H208.602L208.634 28.5926C208.607 28.3685 208.763 28.1392 209.102 27.9044C209.393 27.7017 209.766 27.6004 210.221 27.6004H211.942C212.381 27.6004 212.701 27.6857 212.902 27.8564C213.103 28.0271 213.204 28.2805 213.204 28.6166C213.204 28.6913 213.204 28.766 213.204 28.8407C213.188 28.91 213.177 28.9607 213.172 28.9927L212.712 31.5533H212.14L212.196 31.2332C212.117 31.3079 212.051 31.3612 211.998 31.3932C211.828 31.4999 211.643 31.5533 211.442 31.5533H209.221C208.84 31.5533 208.552 31.4919 208.356 31.3692C208.16 31.2412 208.063 31.0412 208.063 30.7691C208.063 30.6997 208.07 30.6251 208.086 30.545L208.166 30.0649ZM209.681 29.6168C209.343 29.6168 209.107 29.6622 208.975 29.7529C208.843 29.8435 208.758 29.9902 208.721 30.193L208.666 30.481C208.655 30.545 208.65 30.5931 208.65 30.6251C208.65 30.7744 208.705 30.8838 208.816 30.9531C208.933 31.0225 209.134 31.0572 209.419 31.0572H211.355C211.656 31.0572 211.884 31.0011 212.037 30.8891C212.196 30.7718 212.296 30.5877 212.339 30.337C212.349 30.305 212.355 30.2703 212.355 30.233C212.355 30.1956 212.355 30.169 212.355 30.153C212.355 29.7955 212.109 29.6168 211.617 29.6168H209.681Z" fill="white"/>
<path d="M217.535 27.6004C218.043 27.6004 218.413 27.7151 218.646 27.9444C218.852 28.1472 218.955 28.4326 218.955 28.8006C218.955 28.8913 218.95 28.966 218.939 29.0247C218.929 29.0834 218.923 29.1261 218.923 29.1527L218.772 30.0169C218.672 30.5024 218.471 30.8758 218.17 31.1372C217.842 31.4252 217.395 31.5693 216.829 31.5693H215.29C214.93 31.5693 214.644 31.4946 214.433 31.3452C214.364 31.2972 214.295 31.2225 214.227 31.1212L213.862 33.1696H213.29L214.282 27.6004H214.853L214.774 28.0325C214.874 27.9364 214.967 27.8644 215.052 27.8164C215.305 27.6724 215.604 27.6004 215.948 27.6004H217.535ZM214.56 29.1527L214.465 29.5848L214.409 30.0169C214.393 30.0969 214.385 30.177 214.385 30.257C214.385 30.5077 214.47 30.7104 214.639 30.8651C214.814 31.0145 215.075 31.0892 215.424 31.0892H216.702C217.136 31.0892 217.477 31.0065 217.725 30.8411C217.974 30.6704 218.133 30.3957 218.201 30.0169L218.352 29.1527C218.368 29.0567 218.376 28.9687 218.376 28.8887C218.376 28.6219 218.278 28.4219 218.082 28.2885C217.892 28.1498 217.612 28.0805 217.241 28.0805H215.972C215.57 28.0805 215.247 28.1792 215.004 28.3765C214.766 28.5739 214.618 28.8326 214.56 29.1527Z" fill="white"/>
<path d="M224.396 30.0649C224.407 30.0223 224.412 29.9556 224.412 29.8649C224.412 29.6355 224.325 29.4568 224.15 29.3288C223.981 29.2007 223.711 29.1367 223.341 29.1367H220.294L220.572 27.6004H219.985L219.279 31.5533H222.817C223.251 31.5533 223.592 31.4706 223.841 31.3052C224.095 31.1398 224.253 30.8865 224.317 30.545L224.396 30.0649ZM220.215 29.6168H223.055C223.346 29.6168 223.547 29.6515 223.658 29.7209C223.769 29.7849 223.825 29.8889 223.825 30.0329C223.825 30.0649 223.82 30.1183 223.809 30.193L223.753 30.481C223.716 30.6731 223.634 30.8144 223.507 30.9051C223.349 31.0172 223.108 31.0732 222.785 31.0732H219.953L220.215 29.6168ZM225.007 31.5533L225.713 27.6004H226.284L225.578 31.5533H225.007Z" fill="white"/>
</g>
</svg>
