<svg width="40" height="40" viewBox="0 0 40 40" fill="none" xmlns="http://www.w3.org/2000/svg">
<path d="M39.8933 27.6387L36.6372 22.6065C36.6042 22.521 36.5538 22.4425 36.4885 22.3767L32.56 16.3054C32.434 16.1115 32.2027 15.9988 31.986 16.0008C31.7553 16.0061 31.5426 16.1301 31.4253 16.3288L27.6858 22.6701L20.6666 9.17187V5.33428H24.6669V6.00091C24.6669 6.3689 24.9649 6.66754 25.3335 6.66754H30.6669C31.0349 6.66754 31.3335 6.3689 31.3335 6.00091V2.00098C31.3335 1.63299 31.0349 1.33435 30.6669 1.33435H26.0002V0.667637C26.0002 0.299652 25.7016 0.00100708 25.3336 0.00100708H20.0002C20.0002 0.00100708 20.0002 0.00100708 20.0001 0.00100708C20 0.00100708 20 0.00100708 19.9999 0.00100708C19.6312 0.00100708 19.3333 0.299652 19.3333 0.667637V9.14987L13.9884 18.058L11.232 13.6477C11.108 13.449 10.878 13.3284 10.6546 13.3343C10.4206 13.3383 10.2067 13.465 10.0893 13.6677L0.0893552 31.0009C0.0306588 31.1023 0 31.2176 0 31.3343V39.3342C0 39.7022 0.29801 40.0009 0.66663 40.0009H1.99997H18.6666C18.7565 40.0009 18.8421 39.9828 18.9203 39.9507L39.3313 40.0007H39.3333C39.5093 40.0007 39.6786 39.9307 39.804 39.806C39.9293 39.6813 40 39.5113 40 39.334V28.0007C40 27.8721 39.9627 27.7467 39.8933 27.6387ZM32.026 17.9354L35.2674 22.9446L35.0726 23.4643L33.8046 22.1964C33.5439 21.9357 33.1227 21.9357 32.862 22.1964L31.4793 23.579L30.1104 21.1839L32.026 17.9354ZM19.9579 10.6989L24.0826 18.6301L22.9645 18.0709C22.7972 17.9876 22.6038 17.9776 22.4298 18.0442C22.2552 18.1109 22.1171 18.2469 22.0471 18.4196L21.2651 20.375L19.9298 17.7029C19.8338 17.511 19.6518 17.377 19.4398 17.343C19.2251 17.309 19.0131 17.3783 18.8618 17.5296L17.5578 18.8337L16.5243 16.422L19.9579 10.6989ZM30.0002 2.66768V5.33436H26.0002V4.66773V2.66776H30.0002V2.66768ZM20.6669 1.33435H24.667V2.00098V4.00094H20.6669V1.33435ZM10.6893 15.2956L11.9399 17.2964L11.1506 18.8755L10.4712 18.1962C10.2106 17.9355 9.78928 17.9355 9.5286 18.1962L8.84926 18.8755L8.74474 18.6662L10.6893 15.2956ZM1.33334 31.5129L7.94594 20.0509L8.07001 20.2989C8.16603 20.4909 8.348 20.6249 8.55999 20.6589C8.77333 20.6915 8.98667 20.6229 9.13798 20.4722L10 19.6102L10.862 20.4722C10.9874 20.5982 11.158 20.6676 11.3333 20.6676C11.3687 20.6676 11.404 20.6649 11.44 20.6589C11.652 20.6249 11.834 20.4909 11.93 20.2989L12.7685 18.6219L13.2183 19.3415L1.62269 38.6675H1.33334V31.5129ZM14.5792 19.6642C14.5795 19.6635 14.5799 19.663 14.5802 19.6624L15.6784 17.8321L16.7206 20.2637C16.8079 20.467 16.99 20.6137 17.2073 20.6556C17.4266 20.6983 17.6486 20.6283 17.8046 20.4723L19.1506 19.1264L20.7366 22.299C20.8499 22.5257 21.0812 22.6677 21.3333 22.6677C21.3426 22.6677 21.3513 22.6677 21.3613 22.6671C21.6233 22.6564 21.8546 22.4924 21.9526 22.249L23.016 19.5877L25.1308 20.6454L26.8878 24.0237L18.2521 38.6675H3.17803L14.5792 19.6642ZM38.6667 38.666L19.828 38.6193L29.3306 22.506L30.7546 24.9981C30.8573 25.1788 31.0392 25.3008 31.2445 25.3282C31.4499 25.3568 31.6579 25.2855 31.8045 25.1388L33.3331 23.6102L34.8618 25.1388C34.9878 25.2648 35.1578 25.3341 35.3331 25.3341C35.3798 25.3341 35.4278 25.3294 35.4744 25.3194C35.6958 25.2707 35.8777 25.1134 35.9577 24.9014L36.1689 24.338L38.6665 28.1979V38.666H38.6667Z" fill="#2062B0"/>
</svg>
