<svg width="40" height="40" viewBox="0 0 40 40" fill="none" xmlns="http://www.w3.org/2000/svg">
<path d="M39.3334 38.6666H28.5952C28.1025 36.1363 24.8419 34.2077 20.6667 34.0201V8.66664H25.3334V11.3333C25.3342 12.0693 25.9307 12.6658 26.6667 12.6666H35.3334C36.0694 12.6658 36.6659 12.0693 36.6667 11.3333V5.94859C36.6659 5.21258 36.0694 4.61609 35.3334 4.61523H31.3334V2.61523C31.318 1.89359 30.7217 1.32031 30 1.33336H20.6666V0.666641C20.6666 0.298438 20.3682 0 20 0C19.6318 0 19.3334 0.298438 19.3334 0.666641V19.9744C18.9299 19.7342 18.4696 19.6062 18 19.6035H15.4948C15.1413 19.6026 14.8026 19.4622 14.552 19.2129L12.6945 17.3554C13.1609 17.0842 13.593 16.7577 13.9811 16.3828C15.7043 14.707 16.3918 12.2331 15.7805 9.90844C15.1693 7.58375 13.3538 5.76813 11.0292 5.15656C8.70461 4.54508 6.2307 5.23234 4.55469 6.95539C3.29367 8.24352 2.61273 9.99031 2.6693 11.792C2.745 13.8319 3.74672 15.726 5.39016 16.9368H3.59766C2.34766 16.9381 1.33461 17.9511 1.33336 19.2011V26.6721C1.33461 27.9222 2.34758 28.9353 3.59766 28.9368H6V36.9368C5.99984 37.5548 6.18789 38.1581 6.53898 38.6666H0.666641C0.298438 38.6666 0 38.965 0 39.3332C0 39.7014 0.298438 40 0.666641 40H39.3333C39.7015 40 39.9999 39.7016 39.9999 39.3334C39.9999 38.9652 39.7016 38.6666 39.3334 38.6666ZM31.1009 8.50586C31.1084 8.49938 31.1127 8.49055 31.1198 8.48375C31.1732 8.42578 31.2197 8.3618 31.2583 8.29313C31.2698 8.27023 31.2798 8.24664 31.2884 8.2225C31.3091 8.16398 31.3215 8.10281 31.3251 8.04078C31.3259 8.02656 31.3333 8.01445 31.3333 7.99992V5.94859H35.3333V11.3334H27.8048L31.1009 8.50586ZM26.6666 10.553V8.66664H28.8659L26.6666 10.553ZM20.6666 2.66664L30 2.61523V7.33336H26C25.9585 7.3375 25.9175 7.34578 25.8776 7.35805L20.6666 7.38477V2.66664ZM10 6.31148C12.4153 6.61961 14.317 8.52148 14.625 10.9368H10.6666C10.2986 10.9364 10.0003 10.6382 10 10.2702V6.31148ZM6 27.6035H3.59766C3.08359 27.603 2.66703 27.1862 2.66664 26.6722V19.2012C2.66711 18.6872 3.08367 18.2706 3.59766 18.2702H6V27.6035ZM4.00258 11.7548C3.92516 9.01047 5.94289 6.65531 8.66664 6.31086V10.2702C8.66781 11.3743 9.56258 12.2691 10.6666 12.2702H14.6256C14.2816 14.9943 11.9263 17.0124 9.18164 16.9346C6.36844 16.8234 4.11344 14.5681 4.00258 11.7548ZM11.3334 36.9369C11.3323 37.8918 10.5584 38.6655 9.60352 38.6667H9.06313C8.1082 38.6656 7.33445 37.8918 7.33328 36.9369V28.8207H11.3333V36.9369H11.3334ZM11.3334 27.4873H7.33336V19.2129L11.3334 23.2129V27.4873ZM8.27602 18.2702H11.7239L13.6093 20.1555C14.1104 20.6541 14.7879 20.9348 15.4948 20.9368H18C18.7364 20.9368 19.3334 21.5338 19.3334 22.2702C19.3334 23.0066 18.7364 23.6035 18 23.6035H14.1615C13.808 23.6026 13.4693 23.4622 13.2188 23.2129L12.4713 22.4655L8.27602 18.2702ZM12.6666 24.4752C13.108 24.7741 13.6284 24.9348 14.1614 24.9368H18C18.4695 24.9341 18.9298 24.8061 19.3334 24.5659V34.0201C16.4931 34.1477 14.0784 35.0805 12.6667 36.462V24.4752H12.6666ZM12.7734 38.6666C13.375 36.8023 16.4401 35.3333 20 35.3333C23.5599 35.3333 26.625 36.8023 27.2266 38.6666H12.7734Z" fill="#2062B0"/>
</svg>
