<svg width="40" height="40" viewBox="0 0 40 40" fill="none" xmlns="http://www.w3.org/2000/svg">
<g clip-path="url(#clip0)">
<path d="M30.6437 38.053V27.2478L38.994 18.8972C39.8534 18.0595 40.1957 16.8243 39.89 15.6639C39.5846 14.5034 38.6781 13.5972 37.5176 13.2912C36.3572 12.9855 35.122 13.3275 34.2843 14.1869L32.4012 16.0694L30.6437 17.8266V4.74459C30.6437 3.64088 29.7489 2.74614 28.6452 2.74614H18.586C18.271 1.19351 16.9059 0.0780182 15.322 0.0780182C13.7377 0.0780182 12.373 1.19351 12.0577 2.74614H1.99845C0.894746 2.74614 0 3.64088 0 4.74459V38.053C0 39.1567 0.894746 40.0514 1.99845 40.0514H28.6452C29.7489 40.0514 30.6437 39.1567 30.6437 38.053ZM8.78284 6.74305C9.06403 7.53858 9.81493 8.07184 10.6588 8.07525H19.9851C20.829 8.07184 21.5796 7.53858 21.8608 6.74305H26.6468V21.8238L20.1523 28.3184C20.0844 28.3875 20.0329 28.4712 20.001 28.5627C20.001 28.5685 19.9938 28.5726 19.9917 28.5782L18.5261 32.9666C18.484 33.1037 18.4638 33.2466 18.4663 33.3898H15.322C14.954 33.3898 14.6557 33.6881 14.6557 34.0558C14.6557 34.4238 14.954 34.722 15.322 34.722H19.792H19.8032C19.9427 34.7214 20.0816 34.6988 20.2143 34.6554L24.603 33.1899C24.6083 33.1899 24.6123 33.1824 24.6182 33.1806C24.71 33.1486 24.7934 33.0972 24.8628 33.0293L26.6468 31.2447V36.0545H3.99691V6.74305H8.78284ZM23.1586 32.2666L19.7926 33.3898L20.9177 30.0223L23.1586 32.2666ZM24.3916 31.6158L23.4491 30.6737L29.1022 25.0215C29.3626 24.7611 29.3626 24.3391 29.1022 24.0787C28.8418 23.8183 28.4198 23.8183 28.1597 24.0787L22.5072 29.7318L21.5644 28.7893L30.9869 19.3681L31.9287 20.3103L30.0441 22.194C29.8711 22.3614 29.8016 22.6091 29.8624 22.842C29.9235 23.0748 30.1055 23.2568 30.3383 23.3179C30.5711 23.3786 30.8188 23.3092 30.9862 23.1362L32.87 21.2521L33.8128 22.194L24.3916 31.6158ZM32.8706 17.4844L35.6972 20.3103L34.7553 21.2521L31.9287 18.4262L32.8706 17.4844ZM35.2262 15.1287C36.0171 14.3741 37.2613 14.3741 38.0521 15.1287C38.427 15.5036 38.6378 16.012 38.6378 16.5422C38.6378 17.072 38.427 17.5805 38.0521 17.9553L36.6393 19.3681L33.8128 16.5415L35.2262 15.1287ZM29.3115 4.74459V19.1591L27.979 20.4913V6.74305C27.979 6.00703 27.3825 5.41054 26.6468 5.41054H21.9836V4.07834H28.6452C29.0132 4.07834 29.3115 4.37659 29.3115 4.74459ZM15.322 1.41363C16.1659 1.41704 16.9165 1.95029 17.1977 2.74614H13.446C13.7272 1.95029 14.4781 1.41704 15.322 1.41363ZM20.6511 4.07834V6.07679C20.6511 6.4448 20.3528 6.74305 19.9851 6.74305H10.6588C10.2908 6.74305 9.99257 6.4448 9.99257 6.07679V4.07834H20.6511ZM1.3322 38.053V4.74459C1.3322 4.37659 1.63045 4.07834 1.99845 4.07834H8.66006V5.41054H3.99691C3.2612 5.41054 2.66471 6.00703 2.66471 6.74305V36.0545C2.66471 36.7902 3.2612 37.3867 3.99691 37.3867H26.6468C27.3825 37.3867 27.979 36.7902 27.979 36.0545V29.9122L29.3115 28.58V38.053C29.3115 38.4207 29.0132 38.7192 28.6452 38.7192H1.99845C1.63045 38.7192 1.3322 38.4207 1.3322 38.053Z" fill="#2062B0"/>
<path d="M6.19052 13.2097C6.31546 13.3346 6.48473 13.4047 6.66145 13.4047H6.70889C6.90173 13.3907 7.07906 13.2934 7.19439 13.1384L9.19285 10.4736C9.41359 10.1791 9.35406 9.76182 9.05985 9.54108C8.76532 9.32002 8.34771 9.37986 8.12696 9.67408L6.58952 11.7246L6.46644 11.6015C6.20509 11.3489 5.78934 11.3526 5.53263 11.6096C5.27562 11.8666 5.2719 12.2821 5.52426 12.5434L6.19052 13.2097Z" fill="#2062B0"/>
<path d="M6.19052 18.5387C6.31546 18.6637 6.48473 18.734 6.66145 18.734H6.70889C6.90173 18.7198 7.07906 18.6227 7.19439 18.4674L9.19285 15.803C9.41359 15.5085 9.35406 15.0909 9.05985 14.8701C8.76532 14.6494 8.34771 14.7092 8.12696 15.0035L6.58952 17.054L6.46644 16.9306C6.20509 16.6782 5.78934 16.682 5.53263 16.9387C5.27562 17.1957 5.2719 17.6111 5.52426 17.8728L6.19052 18.5387Z" fill="#2062B0"/>
<path d="M6.19052 23.8683C6.31546 23.9932 6.48473 24.0636 6.66145 24.0636H6.70889C6.90173 24.0494 7.07906 23.952 7.19439 23.797L9.19285 21.1323C9.33577 20.9419 9.36616 20.6899 9.27253 20.471C9.17921 20.2521 8.97614 20.0999 8.73958 20.0714C8.50334 20.0429 8.26989 20.1427 8.12696 20.333L6.58952 22.3836L6.46644 22.2602C6.20509 22.0078 5.78934 22.0112 5.53263 22.2682C5.27562 22.5253 5.2719 22.9407 5.52426 23.202L6.19052 23.8683Z" fill="#2062B0"/>
<path d="M6.19052 29.1976C6.31546 29.3226 6.48473 29.3926 6.66145 29.3926H6.70889C6.90173 29.3787 7.07906 29.2813 7.19439 29.1263L9.19285 26.4616C9.33577 26.2713 9.36616 26.0192 9.27253 25.8003C9.17921 25.5814 8.97614 25.4289 8.73958 25.4007C8.50334 25.3722 8.26989 25.4717 8.12696 25.6624L6.58952 27.7126L6.46644 27.5895C6.20509 27.3371 5.78934 27.3405 5.53263 27.5976C5.27562 27.8546 5.2719 28.27 5.52426 28.5314L6.19052 29.1976Z" fill="#2062B0"/>
<path d="M6.19052 34.527C6.31546 34.6519 6.48473 34.722 6.66145 34.722H6.70889C6.90173 34.708 7.07906 34.6107 7.19439 34.4557L9.19285 31.791C9.33577 31.6006 9.36616 31.3482 9.27253 31.1297C9.17921 30.9108 8.97614 30.7583 8.73958 30.7297C8.50334 30.7012 8.26989 30.801 8.12696 30.9914L6.58952 33.0419L6.46644 32.9189C6.20509 32.6662 5.78934 32.6699 5.53263 32.9269C5.27562 33.1839 5.2719 33.5994 5.52426 33.8607L6.19052 34.527Z" fill="#2062B0"/>
<path d="M11.3246 34.7219H12.6571C13.0248 34.7219 13.3231 34.4236 13.3231 34.0556C13.3231 33.688 13.0248 33.3897 12.6571 33.3897H11.3246C10.9569 33.3897 10.6587 33.688 10.6587 34.0556C10.6587 34.4236 10.9569 34.7219 11.3246 34.7219Z" fill="#2062B0"/>
<path d="M11.3246 28.7268H18.6525C19.0205 28.7268 19.3188 28.4285 19.3188 28.0605C19.3188 27.6925 19.0205 27.3943 18.6525 27.3943H11.3246C10.9569 27.3943 10.6587 27.6925 10.6587 28.0605C10.6587 28.4285 10.9569 28.7268 11.3246 28.7268Z" fill="#2062B0"/>
<path d="M11.3246 23.3973H22.6497C23.0174 23.3973 23.3157 23.0991 23.3157 22.7311C23.3157 22.3631 23.0174 22.0648 22.6497 22.0648H11.3246C10.9569 22.0648 10.6587 22.3631 10.6587 22.7311C10.6587 23.0991 10.9569 23.3973 11.3246 23.3973Z" fill="#2062B0"/>
<path d="M11.3246 18.0679H24.6482C25.0159 18.0679 25.3141 17.7696 25.3141 17.4016C25.3141 17.0339 25.0159 16.7357 24.6482 16.7357H11.3246C10.9569 16.7357 10.6587 17.0339 10.6587 17.4016C10.6587 17.7696 10.9569 18.0679 11.3246 18.0679Z" fill="#2062B0"/>
<path d="M11.3246 12.7384H24.6482C25.0159 12.7384 25.3141 12.4402 25.3141 12.0725C25.3141 11.7045 25.0159 11.4062 24.6482 11.4062H11.3246C10.9569 11.4062 10.6587 11.7045 10.6587 12.0725C10.6587 12.4402 10.9569 12.7384 11.3246 12.7384Z" fill="#2062B0"/>
</g>
<defs>
<clipPath id="clip0">
<rect width="40" height="40" fill="white"/>
</clipPath>
</defs>
</svg>
