<svg width="40" height="40" viewBox="0 0 40 40" fill="none" xmlns="http://www.w3.org/2000/svg">
<path d="M6 24C1.93031 24 0.28711 25.444 0.219375 25.5055C0.0795315 25.6319 -0.000156021 25.8116 2.29348e-07 26V38C-0.000156021 38.1884 0.0795315 38.3681 0.219375 38.4945C0.28711 38.556 1.93031 40 6 40C10.0697 40 11.7129 38.556 11.7806 38.4945C11.9205 38.3681 12.0002 38.1884 12 38V26C12.0002 25.8116 11.9205 25.6319 11.7806 25.5055C11.7129 25.444 10.0697 24 6 24ZM2.30305 25.8927L2.32656 25.8838C2.46617 25.834 2.62313 25.7851 2.78914 25.7373C2.83273 25.7248 2.87922 25.7128 2.92461 25.7005C3.06508 25.6627 3.21547 25.6266 3.37406 25.5924C3.41977 25.5825 3.46305 25.5721 3.51031 25.5627C3.71258 25.5221 3.92906 25.4857 4.15984 25.4536C4.20688 25.4471 4.25828 25.4423 4.30664 25.4363C4.50031 25.4122 4.70461 25.3922 4.91813 25.3762C4.99109 25.3707 5.06398 25.3652 5.1393 25.3609C5.41227 25.3448 5.69555 25.3334 6.00008 25.3334C6.30508 25.3334 6.58867 25.3448 6.86195 25.3609C6.93766 25.3653 7.01109 25.3708 7.08445 25.3763C7.29773 25.3924 7.5018 25.4124 7.69523 25.4366C7.74391 25.4427 7.79586 25.4475 7.84328 25.454C8.07383 25.4857 8.28969 25.5226 8.49156 25.563C8.54047 25.5728 8.58516 25.5836 8.63234 25.5938C8.78945 25.6278 8.93852 25.6636 9.07781 25.7012C9.12375 25.7135 9.17086 25.7258 9.21492 25.7384C9.38008 25.7859 9.53602 25.8347 9.675 25.8842C9.68781 25.8888 9.6982 25.8934 9.71086 25.898C9.8068 25.9328 9.88922 25.9672 9.97266 26.0017C8.7043 26.4796 7.355 26.7055 6.00016 26.667C4.64539 26.7055 3.29609 26.4797 2.02773 26.0021C2.11523 25.9656 2.20164 25.9293 2.30305 25.8927ZM1.33336 27.1532C2.8125 27.7588 4.40234 28.0473 6 28C7.59766 28.0473 9.1875 27.7588 10.6666 27.1532V29.6546L10.6481 29.6661C10.5898 29.7014 10.5216 29.7406 10.441 29.7833C10.428 29.7902 10.412 29.7977 10.3984 29.8048C10.3244 29.843 10.2396 29.8834 10.1475 29.925C10.1229 29.9361 10.0994 29.947 10.0734 29.9582C9.96336 30.0059 9.84125 30.0547 9.70695 30.1034C9.67969 30.1133 9.6493 30.123 9.62094 30.133C9.4975 30.1759 9.36367 30.2184 9.22047 30.2597C9.18906 30.2688 9.15977 30.278 9.12734 30.287C8.96062 30.3329 8.77898 30.3765 8.58602 30.4173C8.54211 30.4266 8.4957 30.4352 8.45047 30.4441C8.26508 30.4805 8.06922 30.5141 7.86016 30.5432C7.83297 30.547 7.8082 30.5516 7.78063 30.5552C7.55078 30.5855 7.30273 30.6091 7.04414 30.6277C6.98328 30.6321 6.92086 30.6358 6.85828 30.6394C6.58602 30.6553 6.30367 30.6666 6 30.6666C5.69633 30.6666 5.41398 30.6552 5.14172 30.6393C5.07914 30.6356 5.0168 30.632 4.95586 30.6277C4.69703 30.6089 4.44875 30.5854 4.21875 30.5551C4.19227 30.5516 4.16852 30.5471 4.14234 30.5435C3.93117 30.5142 3.73344 30.4803 3.54641 30.4434C3.50313 30.4349 3.45867 30.4266 3.41664 30.4178C3.22133 30.3766 3.03742 30.3326 2.86891 30.286C2.84117 30.2784 2.81602 30.2703 2.78898 30.2626C2.63742 30.2191 2.49617 30.1743 2.36664 30.1289C2.34484 30.1212 2.32141 30.1137 2.30023 30.1061C2.1593 30.0552 2.03133 30.0041 1.9168 29.9543L1.87047 29.9335C1.75961 29.8841 1.65805 29.8356 1.5725 29.7908L1.57055 29.7898C1.47844 29.7415 1.40148 29.6971 1.33773 29.658L1.33328 29.6553V27.1532H1.33336ZM10.6666 37.6556C10.1497 37.973 8.70961 38.6667 6 38.6667C3.28516 38.6667 1.84508 37.9705 1.33336 37.6563V35.1544C1.36047 35.1664 1.3932 35.1786 1.42133 35.1907C1.49836 35.2238 1.57656 35.2567 1.66164 35.2898C1.70813 35.308 1.75844 35.3256 1.80734 35.3437C1.88977 35.374 1.97359 35.4039 2.06305 35.4337C2.12039 35.4527 2.18047 35.4711 2.2407 35.4897C2.3307 35.5176 2.42297 35.5447 2.51969 35.5714C2.58672 35.5899 2.65555 35.6078 2.72578 35.6256C2.825 35.6508 2.92766 35.6748 3.03344 35.6982C3.1093 35.715 3.18547 35.7314 3.26469 35.7472C3.37539 35.7692 3.49078 35.7895 3.6082 35.8092C3.69133 35.8232 3.77328 35.8373 3.85977 35.8501C3.98586 35.8686 4.11836 35.8843 4.2518 35.8998C4.33875 35.91 4.42305 35.921 4.51305 35.9298C4.66461 35.9445 4.82453 35.9548 4.98516 35.9651C5.06602 35.9702 5.14273 35.9773 5.22586 35.9813C5.47391 35.9931 5.73086 36.0002 5.99992 36.0002C6.26898 36.0002 6.52594 35.9931 6.77406 35.9813C6.85727 35.9773 6.93391 35.9702 7.01477 35.9651C7.17539 35.9548 7.33539 35.9444 7.48688 35.9298C7.57695 35.921 7.66125 35.91 7.74813 35.8998C7.88148 35.8843 8.01406 35.8687 8.14016 35.8501C8.22664 35.8373 8.30859 35.8232 8.39172 35.8092C8.50914 35.7895 8.62453 35.7693 8.73523 35.7472C8.81453 35.7314 8.8907 35.715 8.96649 35.6982C9.07227 35.6748 9.17492 35.6508 9.27414 35.6256C9.34445 35.6078 9.4132 35.5899 9.48023 35.5714C9.57687 35.5448 9.66922 35.5176 9.75922 35.4897C9.81945 35.471 9.87961 35.4527 9.93688 35.4337C10.0263 35.404 10.1102 35.374 10.1926 35.3437C10.2416 35.3257 10.2918 35.308 10.3383 35.2898C10.4234 35.2567 10.5016 35.2238 10.5786 35.1907C10.6067 35.1786 10.6395 35.1665 10.6666 35.1544L10.6666 37.6556ZM10.6667 33.6547L10.6482 33.6662C10.5899 33.7015 10.5217 33.7407 10.4411 33.7834C10.428 33.7902 10.4121 33.7978 10.3985 33.8048C10.3245 33.843 10.2397 33.8835 10.1476 33.9251C10.123 33.9362 10.0995 33.9471 10.0735 33.9583C9.96344 34.0059 9.84133 34.0548 9.70703 34.1034C9.67977 34.1134 9.64937 34.1231 9.62102 34.133C9.49758 34.176 9.36375 34.2184 9.22055 34.2598C9.18914 34.2688 9.15984 34.2781 9.12742 34.287C8.9607 34.333 8.77906 34.3766 8.58609 34.4173C8.54219 34.4266 8.49578 34.4352 8.45055 34.4441C8.26516 34.4806 8.0693 34.5141 7.86023 34.5433C7.83305 34.547 7.80828 34.5517 7.7807 34.5553C7.55086 34.5856 7.30281 34.6091 7.04422 34.6278C6.98336 34.6322 6.92094 34.6359 6.85836 34.6395C6.58602 34.6553 6.30367 34.6667 6 34.6667C5.69602 34.6667 5.41344 34.6553 5.14094 34.6394C5.07797 34.6357 5.015 34.632 4.95375 34.6277C4.69539 34.6089 4.44766 34.5854 4.21805 34.5551C4.18875 34.5512 4.16227 34.5463 4.13344 34.5423C3.92555 34.5132 3.73039 34.4798 3.54594 34.4434C3.50117 34.4346 3.45508 34.4262 3.41172 34.417C3.21852 34.3761 3.0368 34.3325 2.86992 34.2864C2.83703 34.2773 2.80711 34.2679 2.77523 34.2586C2.6318 34.2171 2.49766 34.1746 2.37422 34.1316C2.34703 34.1221 2.31773 34.1127 2.29148 34.1031C2.15656 34.0542 2.03406 34.0052 1.92367 33.9573C1.89867 33.9465 1.8757 33.9359 1.85188 33.9252C1.75688 33.8825 1.66938 33.8407 1.59367 33.8015L1.56047 33.7848C1.4782 33.7413 1.4093 33.7016 1.35047 33.6659L1.33336 33.6553V31.1543C1.36047 31.1663 1.3932 31.1785 1.42133 31.1906C1.49836 31.2237 1.57656 31.2566 1.66156 31.2898C1.70805 31.3079 1.75836 31.3255 1.80727 31.3436C1.88969 31.3739 1.97352 31.4038 2.06297 31.4336C2.12031 31.4526 2.18039 31.471 2.24063 31.4896C2.33063 31.5175 2.42289 31.5446 2.51961 31.5713C2.58664 31.5898 2.65547 31.6077 2.7257 31.6255C2.82492 31.6507 2.92758 31.6747 3.03336 31.6981C3.10922 31.7149 3.18539 31.7313 3.26461 31.7471C3.37531 31.7691 3.4907 31.7894 3.60813 31.8091C3.69125 31.8231 3.7732 31.8373 3.85969 31.85C3.98578 31.8685 4.11828 31.8842 4.25172 31.8998C4.33867 31.9099 4.42297 31.9209 4.51297 31.9297C4.66453 31.9444 4.82453 31.9548 4.98508 31.965C5.06594 31.9702 5.14266 31.9773 5.22578 31.9812C5.47383 31.993 5.73078 32.0002 5.99984 32.0002C6.26891 32.0002 6.52586 31.993 6.77398 31.9812C6.85719 31.9773 6.93383 31.9702 7.01469 31.965C7.17531 31.9548 7.33531 31.9443 7.4868 31.9297C7.57688 31.9209 7.66117 31.9099 7.74805 31.8998C7.88141 31.8842 8.01398 31.8686 8.14008 31.85C8.22656 31.8373 8.30852 31.8231 8.39164 31.8091C8.50906 31.7894 8.62445 31.7691 8.73516 31.7471C8.81445 31.7313 8.89062 31.7149 8.96641 31.6981C9.07219 31.6747 9.17484 31.6507 9.27406 31.6255C9.34437 31.6077 9.41313 31.5898 9.48016 31.5713C9.5768 31.5447 9.66914 31.5175 9.75914 31.4896C9.81938 31.4709 9.87953 31.4526 9.9368 31.4336C10.0262 31.4039 10.1101 31.3739 10.1925 31.3436C10.2415 31.3256 10.2917 31.3079 10.3382 31.2898C10.4233 31.2566 10.5015 31.2237 10.5785 31.1906C10.6066 31.1785 10.6394 31.1664 10.6665 31.1543V33.6547H10.6667Z" fill="#2062B0"/>
<path d="M39.7806 9.50555C39.7129 9.44399 38.0697 8 34 8C29.9303 8 28.2871 9.44399 28.2194 9.50555C28.0795 9.63188 27.9998 9.81156 28 10V38C27.9998 38.1885 28.0795 38.3682 28.2194 38.4945C28.2871 38.556 29.9303 40 34 40C38.0697 40 39.7129 38.556 39.7806 38.4945C39.9205 38.3682 40.0002 38.1885 40 38V10C40.0002 9.81156 39.9205 9.63188 39.7806 9.50555ZM30.303 9.89274L30.3266 9.88375C30.4662 9.83399 30.6231 9.785 30.7891 9.73735C30.8327 9.72485 30.8792 9.71281 30.9246 9.70055C31.0651 9.66274 31.2155 9.62664 31.3741 9.59242C31.4198 9.5825 31.463 9.57211 31.5103 9.56266C31.7126 9.52211 31.9291 9.4857 32.1598 9.45359C32.2069 9.44711 32.2583 9.44235 32.3066 9.43633C32.5003 9.41219 32.7046 9.39219 32.9181 9.37617C32.9911 9.3707 33.064 9.36524 33.1393 9.36086C33.4123 9.34484 33.6955 9.33344 34.0001 9.33344C34.3051 9.33344 34.5887 9.34484 34.862 9.36086C34.9377 9.36531 35.0111 9.37078 35.0845 9.37633C35.2977 9.39242 35.5018 9.41242 35.6952 9.43656C35.7439 9.44266 35.7959 9.4475 35.8432 9.45399C36.0738 9.4857 36.2896 9.52258 36.4915 9.56305C36.5404 9.57289 36.5851 9.5836 36.6323 9.59383C36.7894 9.62781 36.9384 9.6636 37.0777 9.70117C37.1237 9.71352 37.1708 9.72578 37.2148 9.73844C37.38 9.78594 37.5359 9.83469 37.6749 9.88422C37.6877 9.88883 37.6981 9.89336 37.7108 9.89797C37.8067 9.93281 37.8891 9.96719 37.9726 10.0017C36.7043 10.4796 35.3549 10.7055 34.0001 10.667C32.6453 10.7055 31.296 10.4797 30.0277 10.0021C30.1152 9.96563 30.2016 9.9293 30.303 9.89274ZM29.3334 11.1532C30.8126 11.7588 32.4023 12.0473 34 12C35.5977 12.0473 37.1875 11.7588 38.6666 11.1532V13.6546L38.6481 13.6661C38.5898 13.7014 38.5216 13.7406 38.441 13.7833C38.428 13.7902 38.412 13.7977 38.3984 13.8048C38.3244 13.843 38.2396 13.8834 38.1475 13.925C38.1229 13.9361 38.0994 13.947 38.0734 13.9582C37.9634 14.0059 37.8412 14.0547 37.707 14.1034C37.6796 14.1133 37.6493 14.1231 37.6209 14.133C37.4975 14.1759 37.3637 14.2184 37.2205 14.2597C37.1891 14.2688 37.1598 14.2781 37.1273 14.287C36.9606 14.333 36.779 14.3766 36.586 14.4174C36.5421 14.4266 36.4957 14.4352 36.4505 14.4441C36.2651 14.4806 36.0692 14.5141 35.8602 14.5433C35.833 14.547 35.8082 14.5517 35.7806 14.5553C35.5508 14.5856 35.3027 14.6091 35.0441 14.6278C34.9833 14.6322 34.9209 14.6359 34.8583 14.6395C34.586 14.6554 34.3037 14.6668 34 14.6668C33.6963 14.6668 33.414 14.6554 33.1417 14.6395C33.0791 14.6359 33.0168 14.6323 32.9559 14.6278C32.697 14.6091 32.4488 14.5856 32.2188 14.5552C32.1923 14.5517 32.1685 14.5473 32.1423 14.5437C31.9312 14.5144 31.7334 14.4805 31.5464 14.4436C31.5031 14.4351 31.4587 14.4269 31.4166 14.418C31.2213 14.3767 31.0374 14.3327 30.8689 14.2862C30.8412 14.2785 30.816 14.2705 30.789 14.2627C30.6374 14.2192 30.4962 14.1745 30.3666 14.1291C30.3448 14.1214 30.3214 14.1139 30.3002 14.1063C30.1593 14.0553 30.0313 14.0042 29.9168 13.9545L29.8705 13.9337C29.7596 13.8842 29.658 13.8358 29.5725 13.7909L29.5705 13.7899C29.4784 13.7416 29.4015 13.6973 29.3377 13.6582L29.3333 13.6554V11.1532H29.3334ZM29.3334 15.1543C29.3605 15.1663 29.3932 15.1785 29.4213 15.1906C29.4984 15.2237 29.5766 15.2566 29.6616 15.2898C29.7081 15.3079 29.7584 15.3256 29.8073 15.3436C29.8898 15.3739 29.9736 15.4038 30.063 15.4336C30.1204 15.4526 30.1805 15.471 30.2407 15.4896C30.3307 15.5175 30.423 15.5446 30.5197 15.5713C30.5867 15.5899 30.6555 15.6077 30.7258 15.6256C30.825 15.6507 30.9277 15.6747 31.0334 15.6981C31.1093 15.7149 31.1855 15.7313 31.2647 15.7471C31.3754 15.7691 31.4908 15.7894 31.6082 15.8091C31.6913 15.8231 31.7733 15.8373 31.8598 15.85C31.9859 15.8685 32.1184 15.8842 32.2517 15.8997C32.3387 15.9099 32.423 15.9209 32.513 15.9296C32.6645 15.9443 32.8245 15.9547 32.9851 15.9649C33.0659 15.9701 33.1427 15.9772 33.2258 15.9812C33.4738 15.9931 33.7308 16.0001 33.9999 16.0001C34.269 16.0001 34.5259 15.993 34.7741 15.9812C34.8573 15.9772 34.9339 15.9701 35.0148 15.9649C35.1754 15.9547 35.3354 15.9442 35.4869 15.9296C35.577 15.9209 35.6612 15.9099 35.7481 15.8997C35.8815 15.8841 36.0141 15.8685 36.1401 15.85C36.2266 15.8373 36.3085 15.8231 36.3916 15.8091C36.5091 15.7894 36.6245 15.7692 36.7352 15.7471C36.8145 15.7313 36.8906 15.7149 36.9664 15.6981C37.0722 15.6747 37.1748 15.6507 37.2741 15.6256C37.3444 15.6077 37.4131 15.5899 37.4802 15.5713C37.5769 15.5447 37.6692 15.5175 37.7592 15.4896C37.8195 15.4709 37.8796 15.4526 37.9369 15.4336C38.0263 15.4039 38.1102 15.3739 38.1926 15.3436C38.2416 15.3256 38.2918 15.3079 38.3383 15.2898C38.4234 15.2566 38.5016 15.2238 38.5786 15.1906C38.6067 15.1784 38.6395 15.1663 38.6666 15.1543V17.6546L38.648 17.6661C38.5898 17.7014 38.5216 17.7406 38.4409 17.7833C38.4279 17.7902 38.412 17.7977 38.3984 17.8048C38.3243 17.843 38.2395 17.8834 38.1474 17.925C38.1228 17.9361 38.0993 17.947 38.0734 17.9582C37.9633 18.0059 37.8412 18.0547 37.7069 18.1034C37.6795 18.1133 37.6492 18.1231 37.6209 18.133C37.4974 18.1759 37.3636 18.2184 37.2204 18.2597C37.189 18.2688 37.1597 18.2781 37.1273 18.287C36.9605 18.333 36.7789 18.3766 36.5859 18.4174C36.542 18.4267 36.4956 18.4352 36.4504 18.4441C36.265 18.4806 36.0691 18.5142 35.8601 18.5433C35.8329 18.547 35.8081 18.5517 35.7805 18.5553C35.5507 18.5856 35.3027 18.6092 35.0441 18.6278C34.9832 18.6322 34.9208 18.6359 34.8582 18.6395C34.5859 18.6554 34.3036 18.6668 33.9999 18.6668C33.6959 18.6668 33.4134 18.6554 33.1409 18.6395C33.0779 18.6358 33.0149 18.6321 32.9537 18.6277C32.6953 18.609 32.4476 18.5855 32.218 18.5552C32.1887 18.5513 32.1622 18.5464 32.1333 18.5424C31.9254 18.5133 31.7302 18.4799 31.5458 18.4435C31.501 18.4347 31.455 18.4263 31.4116 18.417C31.2184 18.3762 31.0366 18.3326 30.8698 18.2865C30.8369 18.2774 30.807 18.268 30.775 18.2587C30.6316 18.2172 30.4974 18.1747 30.374 18.1316C30.3468 18.1222 30.3175 18.1127 30.2913 18.1032C30.1563 18.0543 30.0338 18.0053 29.9234 17.9574C29.8984 17.9466 29.8755 17.936 29.8516 17.9253C29.7566 17.8826 29.6691 17.8408 29.5934 17.8016L29.5602 17.7849C29.478 17.7414 29.4091 17.7017 29.3502 17.666L29.3331 17.6554V15.1543H29.3334ZM29.3334 19.1543C29.3605 19.1663 29.3932 19.1785 29.4213 19.1906C29.4984 19.2237 29.5766 19.2567 29.6616 19.2898C29.7081 19.3079 29.7584 19.3256 29.8073 19.3436C29.8898 19.3739 29.9736 19.4038 30.063 19.4336C30.1204 19.4526 30.1805 19.471 30.2407 19.4896C30.3307 19.5175 30.423 19.5446 30.5197 19.5713C30.5867 19.5899 30.6555 19.6077 30.7258 19.6256C30.825 19.6507 30.9277 19.6747 31.0334 19.6981C31.1093 19.7149 31.1855 19.7313 31.2647 19.7471C31.3754 19.7692 31.4908 19.7894 31.6082 19.8092C31.6913 19.8231 31.7733 19.8373 31.8598 19.85C31.9859 19.8685 32.1184 19.8842 32.2517 19.8997C32.3387 19.9099 32.423 19.9209 32.513 19.9296C32.6645 19.9443 32.8245 19.9547 32.9851 19.9649C33.0659 19.9701 33.1427 19.9772 33.2258 19.9812C33.4738 19.9931 33.7308 20.0001 33.9999 20.0001C34.269 20.0001 34.5259 19.993 34.7741 19.9812C34.8573 19.9772 34.9339 19.9701 35.0148 19.9649C35.1754 19.9547 35.3354 19.9442 35.4869 19.9296C35.577 19.9209 35.6612 19.9099 35.7481 19.8997C35.8815 19.8842 36.0141 19.8685 36.1401 19.85C36.2266 19.8373 36.3085 19.8231 36.3916 19.8092C36.5091 19.7894 36.6245 19.7692 36.7352 19.7471C36.8145 19.7313 36.8906 19.7149 36.9664 19.6981C37.0722 19.6747 37.1748 19.6507 37.2741 19.6256C37.3444 19.6077 37.4131 19.5899 37.4802 19.5713C37.5769 19.5447 37.6692 19.5175 37.7592 19.4896C37.8195 19.4709 37.8796 19.4526 37.9369 19.4336C38.0263 19.4039 38.1102 19.3739 38.1926 19.3436C38.2416 19.3256 38.2918 19.3079 38.3383 19.2898C38.4234 19.2567 38.5016 19.2238 38.5786 19.1906C38.6067 19.1784 38.6395 19.1663 38.6666 19.1543V21.6546L38.648 21.6661C38.5898 21.7014 38.5216 21.7406 38.4409 21.7833C38.4279 21.7902 38.412 21.7977 38.3984 21.8048C38.3243 21.843 38.2395 21.8835 38.1474 21.925C38.1228 21.9361 38.0993 21.947 38.0734 21.9582C37.9633 22.0059 37.8412 22.0547 37.7069 22.1034C37.6795 22.1133 37.6492 22.1231 37.6209 22.133C37.4974 22.176 37.3636 22.2184 37.2204 22.2597C37.189 22.2688 37.1597 22.2781 37.1273 22.287C36.9605 22.3329 36.7789 22.3765 36.5859 22.4173C36.542 22.4266 36.4956 22.4352 36.4504 22.4441C36.265 22.4806 36.0691 22.5141 35.8601 22.5432C35.8329 22.547 35.8081 22.5517 35.7805 22.5552C35.5507 22.5856 35.3027 22.6091 35.0441 22.6277C34.9832 22.6321 34.9208 22.6358 34.8582 22.6394C34.5859 22.6553 34.3036 22.6667 33.9999 22.6667C33.6959 22.6667 33.4134 22.6552 33.1409 22.6393C33.0779 22.6356 33.0149 22.632 32.9537 22.6275C32.6953 22.6088 32.4476 22.5852 32.218 22.5549C32.1887 22.551 32.1622 22.5462 32.1333 22.5421C31.9254 22.5131 31.7302 22.4796 31.5458 22.4433C31.501 22.4345 31.455 22.426 31.4116 22.4168C31.2184 22.376 31.0366 22.3324 30.8698 22.2863C30.8369 22.2771 30.807 22.2677 30.775 22.2585C30.6316 22.217 30.4974 22.1745 30.374 22.1314C30.3468 22.122 30.3175 22.1125 30.2913 22.103C30.1563 22.0541 30.0338 22.0051 29.9234 21.9572C29.8984 21.9463 29.8755 21.9357 29.8516 21.9251C29.7566 21.8824 29.6691 21.8406 29.5934 21.8013L29.5602 21.7846C29.478 21.7412 29.4091 21.7015 29.3502 21.6658L29.3331 21.6552V19.1543H29.3334ZM29.3334 23.1543C29.3605 23.1663 29.3932 23.1785 29.4213 23.1906C29.4984 23.2237 29.5766 23.2567 29.6616 23.2898C29.7081 23.3079 29.7584 23.3256 29.8073 23.3436C29.8898 23.3739 29.9736 23.4038 30.063 23.4336C30.1204 23.4526 30.1805 23.471 30.2407 23.4896C30.3307 23.5175 30.423 23.5446 30.5197 23.5713C30.5867 23.5899 30.6555 23.6078 30.7258 23.6256C30.825 23.6507 30.9277 23.6747 31.0334 23.6981C31.1093 23.7149 31.1855 23.7313 31.2647 23.7471C31.3754 23.7692 31.4908 23.7894 31.6082 23.8092C31.6913 23.8231 31.7733 23.8373 31.8598 23.85C31.9859 23.8686 32.1184 23.8842 32.2517 23.8998C32.3387 23.9099 32.423 23.921 32.513 23.9297C32.6645 23.9444 32.8245 23.9548 32.9851 23.965C33.0659 23.9702 33.1427 23.9773 33.2258 23.9813C33.4738 23.9931 33.7308 24.0002 33.9999 24.0002C34.269 24.0002 34.5259 23.9931 34.7741 23.9813C34.8573 23.9773 34.9339 23.9702 35.0148 23.965C35.1754 23.9548 35.3354 23.9443 35.4869 23.9297C35.577 23.921 35.6612 23.9099 35.7481 23.8998C35.8815 23.8842 36.0141 23.8686 36.1401 23.85C36.2266 23.8373 36.3085 23.8231 36.3916 23.8092C36.5091 23.7894 36.6245 23.7692 36.7352 23.7471C36.8145 23.7313 36.8906 23.7149 36.9664 23.6981C37.0722 23.6747 37.1748 23.6507 37.2741 23.6256C37.3444 23.6078 37.4131 23.5899 37.4802 23.5713C37.5769 23.5447 37.6692 23.5175 37.7592 23.4896C37.8195 23.471 37.8796 23.4526 37.9369 23.4336C38.0263 23.4039 38.1102 23.3739 38.1926 23.3436C38.2416 23.3256 38.2918 23.3079 38.3383 23.2898C38.4234 23.2567 38.5016 23.2238 38.5786 23.1906C38.6067 23.1785 38.6395 23.1663 38.6666 23.1543V25.6546L38.648 25.6661C38.5898 25.7014 38.5216 25.7406 38.4409 25.7833C38.4279 25.7902 38.412 25.7978 38.3984 25.8048C38.3243 25.843 38.2395 25.8835 38.1474 25.925C38.1228 25.9361 38.0993 25.9471 38.0734 25.9582C37.9633 26.0059 37.8412 26.0547 37.7069 26.1034C37.6795 26.1133 37.6492 26.1231 37.6209 26.133C37.4974 26.176 37.3636 26.2184 37.2204 26.2597C37.189 26.2688 37.1597 26.2781 37.1273 26.287C36.9605 26.3329 36.7789 26.3765 36.5859 26.4173C36.542 26.4266 36.4956 26.4352 36.4504 26.4441C36.265 26.4806 36.0691 26.5141 35.8601 26.5432C35.8329 26.547 35.8081 26.5517 35.7805 26.5553C35.5507 26.5856 35.3027 26.6091 35.0441 26.6278C34.9832 26.6321 34.9208 26.6358 34.8582 26.6394C34.5859 26.6553 34.3036 26.6667 33.9999 26.6667C33.6959 26.6667 33.4134 26.6553 33.1409 26.6393C33.0779 26.6356 33.0149 26.632 32.9537 26.6276C32.6953 26.6088 32.4476 26.5853 32.218 26.555C32.1887 26.5511 32.1622 26.5463 32.1333 26.5422C31.9254 26.5131 31.7302 26.4797 31.5458 26.4434C31.501 26.4345 31.455 26.4261 31.4116 26.4169C31.2184 26.376 31.0366 26.3324 30.8698 26.2863C30.8369 26.2772 30.807 26.2678 30.775 26.2585C30.6316 26.2171 30.4974 26.1746 30.374 26.1315C30.3468 26.122 30.3175 26.1126 30.2913 26.1031C30.1563 26.0542 30.0338 26.0052 29.9234 25.9573C29.8984 25.9464 29.8755 25.9358 29.8516 25.9252C29.7566 25.8824 29.6691 25.8406 29.5934 25.8014L29.5602 25.7847C29.478 25.7413 29.4091 25.7016 29.3502 25.6659L29.3331 25.6553V23.1543H29.3334ZM29.3334 27.1543C29.3605 27.1663 29.3932 27.1785 29.4213 27.1906C29.4984 27.2237 29.5766 27.2567 29.6616 27.2898C29.7081 27.3079 29.7584 27.3256 29.8073 27.3436C29.8898 27.3739 29.9736 27.4038 30.063 27.4336C30.1204 27.4526 30.1805 27.471 30.2407 27.4896C30.3307 27.5175 30.423 27.5446 30.5197 27.5713C30.5867 27.5899 30.6555 27.6078 30.7258 27.6256C30.825 27.6507 30.9277 27.6747 31.0334 27.6981C31.1093 27.7149 31.1855 27.7313 31.2647 27.7471C31.3754 27.7692 31.4908 27.7894 31.6082 27.8092C31.6913 27.8231 31.7733 27.8373 31.8598 27.85C31.9859 27.8686 32.1184 27.8842 32.2517 27.8998C32.3387 27.9099 32.423 27.921 32.513 27.9297C32.6645 27.9444 32.8245 27.9548 32.9851 27.965C33.0659 27.9702 33.1427 27.9773 33.2258 27.9813C33.4738 27.9931 33.7308 28.0002 33.9999 28.0002C34.269 28.0002 34.5259 27.9931 34.7741 27.9813C34.8573 27.9773 34.9339 27.9702 35.0148 27.965C35.1754 27.9548 35.3354 27.9443 35.4869 27.9297C35.577 27.921 35.6612 27.9099 35.7481 27.8998C35.8815 27.8842 36.0141 27.8686 36.1401 27.85C36.2266 27.8373 36.3085 27.8231 36.3916 27.8092C36.5091 27.7894 36.6245 27.7692 36.7352 27.7471C36.8145 27.7313 36.8906 27.7149 36.9664 27.6981C37.0722 27.6747 37.1748 27.6507 37.2741 27.6256C37.3444 27.6078 37.4131 27.5899 37.4802 27.5713C37.5769 27.5447 37.6692 27.5175 37.7592 27.4896C37.8195 27.471 37.8796 27.4526 37.9369 27.4336C38.0263 27.4039 38.1102 27.3739 38.1926 27.3436C38.2416 27.3256 38.2918 27.3079 38.3383 27.2898C38.4234 27.2567 38.5016 27.2238 38.5786 27.1906C38.6067 27.1785 38.6395 27.1663 38.6666 27.1543V29.6546L38.648 29.6661C38.5898 29.7014 38.5216 29.7406 38.4409 29.7833C38.4279 29.7902 38.412 29.7978 38.3984 29.8048C38.3243 29.843 38.2395 29.8835 38.1474 29.925C38.1228 29.9361 38.0993 29.9471 38.0734 29.9582C37.9633 30.0059 37.8412 30.0547 37.7069 30.1034C37.6795 30.1133 37.6492 30.1231 37.6209 30.133C37.4974 30.176 37.3636 30.2184 37.2204 30.2597C37.189 30.2688 37.1597 30.2781 37.1273 30.287C36.9605 30.3329 36.7789 30.3765 36.5859 30.4173C36.542 30.4266 36.4956 30.4352 36.4504 30.4441C36.265 30.4806 36.0691 30.5141 35.8601 30.5432C35.8329 30.547 35.8081 30.5517 35.7805 30.5553C35.5507 30.5856 35.3027 30.6091 35.0441 30.6278C34.9832 30.6321 34.9208 30.6358 34.8582 30.6394C34.5859 30.6553 34.3036 30.6667 33.9999 30.6667C33.6959 30.6667 33.4134 30.6553 33.1409 30.6393C33.0779 30.6356 33.0149 30.632 32.9537 30.6276C32.6953 30.6088 32.4476 30.5853 32.218 30.555C32.1887 30.5511 32.1622 30.5463 32.1333 30.5422C31.9254 30.5131 31.7302 30.4797 31.5458 30.4434C31.501 30.4346 31.455 30.4261 31.4116 30.4169C31.2184 30.376 31.0366 30.3324 30.8698 30.2864C30.8369 30.2772 30.807 30.2678 30.775 30.2585C30.6316 30.2171 30.4974 30.1746 30.374 30.1315C30.3468 30.1221 30.3175 30.1126 30.2913 30.1031C30.1563 30.0542 30.0338 30.0052 29.9234 29.9573C29.8984 29.9464 29.8755 29.9358 29.8516 29.9252C29.7566 29.8824 29.6691 29.8406 29.5934 29.8014L29.5602 29.7847C29.478 29.7413 29.4091 29.7016 29.3502 29.6659L29.3331 29.6553V27.1543H29.3334ZM29.3334 31.1543C29.3605 31.1663 29.3932 31.1785 29.4213 31.1906C29.4984 31.2237 29.5766 31.2567 29.6616 31.2898C29.7081 31.3079 29.7584 31.3256 29.8073 31.3436C29.8898 31.3739 29.9736 31.4039 30.063 31.4336C30.1204 31.4526 30.1805 31.471 30.2407 31.4896C30.3307 31.5175 30.423 31.5446 30.5197 31.5714C30.5867 31.5899 30.6555 31.6078 30.7258 31.6256C30.825 31.6507 30.9277 31.6747 31.0334 31.6981C31.1093 31.7149 31.1855 31.7314 31.2647 31.7471C31.3754 31.7692 31.4908 31.7894 31.6082 31.8092C31.6913 31.8231 31.7733 31.8373 31.8598 31.85C31.9859 31.8685 32.1184 31.8842 32.2517 31.8998C32.3387 31.9099 32.423 31.921 32.513 31.9297C32.6645 31.9444 32.8245 31.9548 32.9851 31.965C33.0659 31.9702 33.1427 31.9773 33.2258 31.9813C33.4738 31.9931 33.7308 32.0002 33.9999 32.0002C34.269 32.0002 34.5259 31.9931 34.7741 31.9813C34.8573 31.9773 34.9339 31.9702 35.0148 31.965C35.1754 31.9548 35.3354 31.9443 35.4869 31.9297C35.577 31.921 35.6612 31.9099 35.7481 31.8998C35.8815 31.8842 36.0141 31.8686 36.1401 31.85C36.2266 31.8373 36.3085 31.8231 36.3916 31.8092C36.5091 31.7894 36.6245 31.7692 36.7352 31.7471C36.8145 31.7314 36.8906 31.7149 36.9664 31.6981C37.0722 31.6747 37.1748 31.6507 37.2741 31.6256C37.3444 31.6078 37.4131 31.5899 37.4802 31.5714C37.5769 31.5447 37.6692 31.5175 37.7592 31.4896C37.8195 31.471 37.8796 31.4526 37.9369 31.4336C38.0263 31.4039 38.1102 31.3739 38.1926 31.3436C38.2416 31.3256 38.2918 31.3079 38.3383 31.2898C38.4234 31.2567 38.5016 31.2238 38.5786 31.1906C38.6067 31.1785 38.6395 31.1663 38.6666 31.1543V33.6546L38.648 33.6661C38.5898 33.7014 38.5216 33.7407 38.4409 33.7833C38.4279 33.7902 38.412 33.7978 38.3984 33.8048C38.3243 33.843 38.2395 33.8835 38.1474 33.925C38.1228 33.9361 38.0993 33.9471 38.0734 33.9582C37.9633 34.0059 37.8412 34.0547 37.7069 34.1034C37.6795 34.1133 37.6492 34.1231 37.6209 34.133C37.4974 34.176 37.3636 34.2184 37.2204 34.2597C37.189 34.2688 37.1597 34.2781 37.1273 34.287C36.9605 34.3329 36.7789 34.3765 36.5859 34.4173C36.542 34.4266 36.4956 34.4352 36.4504 34.4441C36.265 34.4806 36.0691 34.5141 35.8601 34.5432C35.8329 34.547 35.8081 34.5517 35.7805 34.5553C35.5507 34.5856 35.3027 34.6091 35.0441 34.6278C34.9832 34.6321 34.9208 34.6358 34.8582 34.6395C34.5859 34.6554 34.3036 34.6667 33.9999 34.6667C33.6959 34.6667 33.4134 34.6553 33.1409 34.6394C33.0779 34.6357 33.0149 34.6321 32.9537 34.6277C32.6953 34.6089 32.4476 34.5854 32.218 34.5551C32.1887 34.5512 32.1622 34.5464 32.1333 34.5423C31.9254 34.5132 31.7302 34.4798 31.5458 34.4435C31.501 34.4346 31.455 34.4262 31.4116 34.417C31.2184 34.3761 31.0366 34.3325 30.8698 34.2864C30.8369 34.2773 30.807 34.2679 30.775 34.2586C30.6316 34.2171 30.4974 34.1746 30.374 34.1316C30.3468 34.1221 30.3175 34.1127 30.2913 34.1031C30.1563 34.0542 30.0338 34.0053 29.9234 33.9574C29.8984 33.9465 29.8755 33.9359 29.8516 33.9253C29.7566 33.8825 29.6691 33.8407 29.5934 33.8015L29.5602 33.7848C29.478 33.7414 29.4091 33.7017 29.3502 33.666L29.3331 33.6553V31.1543H29.3334ZM38.6666 37.6557C38.1497 37.973 36.7096 38.6667 34 38.6667C31.2852 38.6667 29.8451 37.9705 29.3334 37.6564V35.1544C29.3605 35.1664 29.3932 35.1786 29.4213 35.1907C29.4984 35.2238 29.5766 35.2567 29.6616 35.2899C29.7081 35.308 29.7584 35.3257 29.8073 35.3437C29.8898 35.374 29.9736 35.4039 30.063 35.4337C30.1204 35.4527 30.1805 35.4711 30.2407 35.4897C30.3307 35.5176 30.423 35.5447 30.5197 35.5714C30.5867 35.5899 30.6555 35.6078 30.7258 35.6257C30.825 35.6508 30.9277 35.6748 31.0334 35.6982C31.1093 35.715 31.1855 35.7314 31.2647 35.7472C31.3754 35.7692 31.4908 35.7895 31.6082 35.8092C31.6913 35.8232 31.7733 35.8374 31.8598 35.8501C31.9859 35.8686 32.1184 35.8843 32.2517 35.8999C32.3387 35.91 32.423 35.921 32.513 35.9298C32.6645 35.9445 32.8245 35.9549 32.9851 35.9651C33.0659 35.9703 33.1427 35.9774 33.2258 35.9814C33.4738 35.9932 33.7308 36.0003 33.9999 36.0003C34.269 36.0003 34.5259 35.9932 34.7741 35.9814C34.8573 35.9774 34.9339 35.9703 35.0148 35.9651C35.1754 35.9549 35.3354 35.9444 35.4869 35.9298C35.577 35.921 35.6612 35.91 35.7481 35.8999C35.8815 35.8843 36.0141 35.8687 36.1401 35.8501C36.2266 35.8374 36.3085 35.8232 36.3916 35.8092C36.5091 35.7895 36.6245 35.7693 36.7352 35.7472C36.8145 35.7314 36.8906 35.715 36.9664 35.6982C37.0722 35.6748 37.1748 35.6508 37.2741 35.6257C37.3444 35.6078 37.4131 35.5899 37.4802 35.5714C37.5769 35.5448 37.6692 35.5176 37.7592 35.4897C37.8195 35.471 37.8796 35.4527 37.9369 35.4337C38.0263 35.404 38.1102 35.374 38.1926 35.3437C38.2416 35.3257 38.2918 35.308 38.3383 35.2899C38.4234 35.2567 38.5016 35.2239 38.5786 35.1907C38.6067 35.1786 38.6395 35.1665 38.6666 35.1544L38.6666 37.6557Z" fill="#2062B0"/>
<path d="M20 16C15.9303 16 14.2871 17.444 14.2194 17.5055C14.0795 17.6319 13.9998 17.8116 14 18V38C13.9998 38.1884 14.0795 38.3681 14.2194 38.4945C14.2871 38.556 15.9303 40 20 40C24.0697 40 25.7129 38.556 25.7806 38.4945C25.9205 38.3681 26.0002 38.1884 26 38V18C26.0002 17.8116 25.9205 17.6319 25.7806 17.5055C25.7129 17.444 24.0697 16 20 16ZM16.3031 17.8927L16.3266 17.8837C16.4662 17.834 16.6231 17.785 16.7891 17.7373C16.8327 17.7248 16.8792 17.7128 16.9246 17.7005C17.0651 17.6627 17.2155 17.6266 17.3741 17.5924C17.4198 17.5825 17.4631 17.5721 17.5103 17.5627C17.7126 17.5221 17.9291 17.4857 18.1598 17.4536C18.2069 17.4471 18.2583 17.4423 18.3066 17.4363C18.5003 17.4122 18.7046 17.3922 18.9181 17.3762C18.9911 17.3707 19.064 17.3652 19.1393 17.3609C19.4123 17.3448 19.6956 17.3334 20.0001 17.3334C20.3051 17.3334 20.5887 17.3448 20.862 17.3609C20.9377 17.3653 21.0111 17.3708 21.0845 17.3763C21.2977 17.3924 21.5018 17.4124 21.6952 17.4366C21.7439 17.4427 21.7959 17.4475 21.8432 17.454C22.0738 17.4857 22.2896 17.5226 22.4915 17.563C22.5404 17.5729 22.5851 17.5836 22.6323 17.5938C22.7894 17.6278 22.9384 17.6636 23.0777 17.7012C23.1237 17.7135 23.1708 17.7258 23.2149 17.7384C23.38 17.7859 23.5359 17.8347 23.6749 17.8842C23.6877 17.8888 23.6981 17.8934 23.7108 17.898C23.8067 17.9328 23.8892 17.9672 23.9726 18.0017C22.7043 18.4796 21.3549 18.7055 20.0001 18.667C18.6453 18.7055 17.296 18.4797 16.0277 18.0021C16.1152 17.9656 16.2016 17.9293 16.3031 17.8927ZM15.3334 19.1532C16.8125 19.7588 18.4023 20.0473 20 20C21.5977 20.0473 23.1875 19.7588 24.6667 19.1532V21.6546L24.6481 21.6661C24.5899 21.7014 24.5217 21.7406 24.441 21.7833C24.428 21.7902 24.412 21.7977 24.3984 21.8048C24.3244 21.843 24.2396 21.8834 24.1475 21.925C24.1229 21.9361 24.0994 21.947 24.0735 21.9582C23.9634 22.0059 23.8413 22.0547 23.707 22.1034C23.6796 22.1133 23.6493 22.123 23.6209 22.133C23.4975 22.1759 23.3637 22.2184 23.2205 22.2597C23.1891 22.2688 23.1598 22.278 23.1274 22.287C22.9606 22.3329 22.779 22.3765 22.586 22.4173C22.5421 22.4266 22.4957 22.4352 22.4505 22.4441C22.2651 22.4805 22.0692 22.5141 21.8602 22.5432C21.833 22.547 21.8082 22.5516 21.7806 22.5552C21.5508 22.5855 21.3027 22.6091 21.0441 22.6277C20.9833 22.6321 20.9209 22.6358 20.8583 22.6394C20.586 22.6553 20.3037 22.6666 20 22.6666C19.6963 22.6666 19.414 22.6552 19.1417 22.6393C19.0791 22.6356 19.0168 22.632 18.9559 22.6276C18.697 22.6088 18.4488 22.5853 18.2188 22.555C18.1923 22.5515 18.1685 22.547 18.1423 22.5434C17.9312 22.5141 17.7334 22.4802 17.5464 22.4434C17.5031 22.4348 17.4587 22.4266 17.4166 22.4177C17.2213 22.3765 17.0374 22.3325 16.8689 22.2859C16.8412 22.2783 16.816 22.2702 16.789 22.2625C16.6374 22.219 16.4962 22.1742 16.3666 22.1288C16.3448 22.1212 16.3214 22.1137 16.3002 22.106C16.1593 22.0551 16.0313 22.004 15.9168 21.9542L15.8705 21.9334C15.7596 21.884 15.658 21.8355 15.5725 21.7907L15.5705 21.7897C15.4784 21.7414 15.4015 21.697 15.3377 21.658L15.3333 21.6552V19.1532H15.3334ZM24.6667 37.6556C24.1497 37.973 22.7096 38.6667 20 38.6667C17.2852 38.6667 15.8451 37.9705 15.3334 37.6563V35.1544C15.3605 35.1664 15.3932 35.1786 15.4213 35.1907C15.4984 35.2238 15.5766 35.2567 15.6616 35.2898C15.7081 35.308 15.7584 35.3256 15.8073 35.3437C15.8898 35.374 15.9736 35.4039 16.063 35.4337C16.1204 35.4527 16.1805 35.4711 16.2407 35.4897C16.3307 35.5176 16.423 35.5447 16.5197 35.5714C16.5867 35.5899 16.6556 35.6078 16.7259 35.6256C16.8251 35.6508 16.9277 35.6748 17.0335 35.6982C17.1094 35.715 17.1856 35.7314 17.2648 35.7472C17.3755 35.7692 17.4909 35.7895 17.6083 35.8092C17.6914 35.8232 17.7734 35.8373 17.8598 35.8501C17.9859 35.8686 18.1184 35.8843 18.2518 35.8998C18.3388 35.91 18.4231 35.921 18.5131 35.9298C18.6646 35.9445 18.8246 35.9548 18.9852 35.9651C19.066 35.9702 19.1427 35.9773 19.2259 35.9813C19.4739 35.9931 19.7309 36.0002 19.9999 36.0002C20.269 36.0002 20.5259 35.9931 20.7741 35.9813C20.8573 35.9773 20.9339 35.9702 21.0148 35.9651C21.1754 35.9548 21.3354 35.9444 21.4869 35.9298C21.577 35.921 21.6613 35.91 21.7481 35.8998C21.8815 35.8843 22.0141 35.8687 22.1401 35.8501C22.2266 35.8373 22.3085 35.8232 22.3917 35.8092C22.5091 35.7895 22.6245 35.7693 22.7352 35.7472C22.8145 35.7314 22.8906 35.715 22.9664 35.6982C23.0722 35.6748 23.1749 35.6508 23.2741 35.6256C23.3444 35.6078 23.4131 35.5899 23.4802 35.5714C23.5768 35.5448 23.6692 35.5176 23.7592 35.4897C23.8194 35.471 23.8795 35.4527 23.9368 35.4337C24.0263 35.404 24.1101 35.374 24.1925 35.3437C24.2415 35.3257 24.2917 35.308 24.3382 35.2898C24.4233 35.2567 24.5015 35.2238 24.5785 35.1907C24.6067 35.1786 24.6394 35.1665 24.6665 35.1544L24.6667 37.6556ZM24.6667 33.6547L24.6482 33.6662C24.5899 33.7015 24.5217 33.7407 24.4411 33.7834C24.4281 33.7902 24.4121 33.7978 24.3985 33.8048C24.3245 33.843 24.2397 33.8835 24.1476 33.9251C24.123 33.9362 24.0995 33.9471 24.0735 33.9583C23.9634 34.0059 23.8413 34.0548 23.707 34.1034C23.6797 34.1134 23.6494 34.1231 23.621 34.133C23.4976 34.176 23.3638 34.2184 23.2206 34.2598C23.1892 34.2688 23.1599 34.2781 23.1274 34.287C22.9607 34.333 22.7791 34.3766 22.5861 34.4173C22.5422 34.4266 22.4958 34.4352 22.4506 34.4441C22.2652 34.4806 22.0693 34.5141 21.8602 34.5433C21.8331 34.547 21.8083 34.5517 21.7807 34.5553C21.5509 34.5856 21.3028 34.6091 21.0442 34.6278C20.9834 34.6322 20.9209 34.6359 20.8584 34.6395C20.5861 34.6555 20.3038 34.6668 20.0001 34.6668C19.6961 34.6668 19.4135 34.6554 19.141 34.6395C19.0781 34.6358 19.0151 34.6321 18.9538 34.6277C18.6955 34.609 18.4477 34.5855 18.2181 34.5552C18.1888 34.5513 18.1623 34.5464 18.1334 34.5423C17.9256 34.5133 17.7304 34.4798 17.5459 34.4435C17.5012 34.4347 17.4552 34.4262 17.4117 34.417C17.2185 34.3762 17.0368 34.3326 16.8699 34.2865C16.837 34.2773 16.8071 34.268 16.7752 34.2587C16.6318 34.2172 16.4977 34.1747 16.3742 34.1316C16.347 34.1222 16.3177 34.1127 16.2915 34.1032C16.1566 34.0543 16.0341 34.0053 15.9237 33.9574C15.8987 33.9466 15.8757 33.9359 15.8519 33.9253C15.7569 33.8826 15.6694 33.8408 15.5937 33.8016L15.5605 33.7848C15.4782 33.7414 15.4093 33.7017 15.3505 33.666L15.3334 33.6554V31.1544C15.3605 31.1664 15.3932 31.1786 15.4213 31.1907C15.4984 31.2237 15.5766 31.2567 15.6616 31.2898C15.7081 31.308 15.7584 31.3256 15.8073 31.3437C15.8898 31.374 15.9736 31.4039 16.063 31.4337C16.1204 31.4527 16.1805 31.4711 16.2407 31.4897C16.3307 31.5176 16.423 31.5447 16.5197 31.5714C16.5867 31.5899 16.6556 31.6078 16.7259 31.6256C16.8251 31.6508 16.9277 31.6748 17.0335 31.6982C17.1094 31.715 17.1856 31.7314 17.2648 31.7472C17.3755 31.7692 17.4909 31.7895 17.6083 31.8092C17.6914 31.8232 17.7734 31.8373 17.8598 31.8501C17.9859 31.8686 18.1184 31.8843 18.2518 31.8998C18.3388 31.91 18.4231 31.921 18.5131 31.9298C18.6646 31.9445 18.8246 31.9548 18.9852 31.9651C19.066 31.9702 19.1427 31.9773 19.2259 31.9813C19.4739 31.9931 19.7309 32.0002 19.9999 32.0002C20.269 32.0002 20.5259 31.9931 20.7741 31.9813C20.8573 31.9773 20.9339 31.9702 21.0148 31.9651C21.1754 31.9548 21.3354 31.9444 21.4869 31.9298C21.577 31.921 21.6613 31.91 21.7481 31.8998C21.8815 31.8843 22.0141 31.8687 22.1401 31.8501C22.2266 31.8373 22.3085 31.8232 22.3917 31.8092C22.5091 31.7895 22.6245 31.7692 22.7352 31.7472C22.8145 31.7314 22.8906 31.715 22.9664 31.6982C23.0722 31.6748 23.1749 31.6508 23.2741 31.6256C23.3444 31.6078 23.4131 31.5899 23.4802 31.5714C23.5768 31.5448 23.6692 31.5176 23.7592 31.4897C23.8194 31.471 23.8795 31.4527 23.9368 31.4337C24.0263 31.404 24.1101 31.374 24.1925 31.3437C24.2415 31.3257 24.2917 31.308 24.3382 31.2898C24.4233 31.2567 24.5015 31.2238 24.5785 31.1907C24.6067 31.1786 24.6394 31.1665 24.6665 31.1544V33.6547H24.6667ZM24.6667 29.6547L24.6482 29.6662C24.5899 29.7015 24.5217 29.7407 24.4411 29.7834C24.4281 29.7902 24.4121 29.7978 24.3985 29.8048C24.3245 29.843 24.2397 29.8835 24.1476 29.9251C24.123 29.9362 24.0995 29.9471 24.0735 29.9583C23.9634 30.0059 23.8413 30.0548 23.707 30.1034C23.6797 30.1134 23.6494 30.1231 23.621 30.133C23.4976 30.176 23.3638 30.2184 23.2206 30.2598C23.1892 30.2688 23.1599 30.2781 23.1274 30.287C22.9607 30.333 22.7791 30.3766 22.5861 30.4173C22.5422 30.4266 22.4958 30.4352 22.4506 30.4441C22.2652 30.4806 22.0693 30.5141 21.8602 30.5433C21.8331 30.547 21.8083 30.5517 21.7807 30.5553C21.5509 30.5856 21.3028 30.6091 21.0442 30.6278C20.9834 30.6322 20.9209 30.6359 20.8584 30.6395C20.5861 30.6553 20.3038 30.6667 20.0001 30.6667C19.6961 30.6667 19.4135 30.6553 19.141 30.6394C19.0781 30.6357 19.0151 30.632 18.9538 30.6277C18.6955 30.6089 18.4477 30.5854 18.2181 30.5551C18.1888 30.5512 18.1623 30.5463 18.1334 30.5423C17.9256 30.5132 17.7304 30.4798 17.5459 30.4434C17.5012 30.4346 17.4552 30.4262 17.4117 30.417C17.2185 30.3761 17.0368 30.3325 16.8699 30.2864C16.837 30.2773 16.8071 30.2679 16.7752 30.2586C16.6318 30.2171 16.4977 30.1747 16.3742 30.1316C16.347 30.1221 16.3177 30.1127 16.2915 30.1031C16.1566 30.0542 16.0341 30.0052 15.9237 29.9573C15.8987 29.9465 15.8757 29.9359 15.8519 29.9252C15.7569 29.8825 15.6694 29.8407 15.5937 29.8015L15.5605 29.7848C15.4782 29.7413 15.4093 29.7016 15.3505 29.6659L15.3334 29.6553V27.1543C15.3605 27.1663 15.3932 27.1785 15.4213 27.1906C15.4984 27.2237 15.5766 27.2566 15.6616 27.2898C15.708 27.3079 15.7584 27.3255 15.8073 27.3436C15.8897 27.3739 15.9735 27.4038 16.063 27.4336C16.1203 27.4526 16.1804 27.471 16.2406 27.4896C16.3306 27.5175 16.4229 27.5446 16.5196 27.5713C16.5866 27.5898 16.6555 27.6077 16.7257 27.6255C16.8249 27.6507 16.9276 27.6747 17.0334 27.6981C17.1092 27.7149 17.1854 27.7313 17.2646 27.7471C17.3753 27.7691 17.4907 27.7894 17.6081 27.8091C17.6913 27.8231 17.7732 27.8373 17.8597 27.85C17.9858 27.8686 18.1183 27.8842 18.2516 27.8998C18.3386 27.9099 18.4229 27.9209 18.5129 27.9297C18.6645 27.9444 18.8245 27.9548 18.985 27.965C19.0659 27.9702 19.1426 27.9773 19.2257 27.9812C19.4738 27.993 19.7308 28.0002 19.9999 28.0002C20.2689 28.0002 20.5259 27.993 20.774 27.9812C20.8572 27.9773 20.9338 27.9702 21.0147 27.965C21.1753 27.9548 21.3353 27.9443 21.4868 27.9297C21.5769 27.9209 21.6612 27.9099 21.7481 27.8998C21.8814 27.8842 22.014 27.8686 22.14 27.85C22.2265 27.8373 22.3084 27.8231 22.3916 27.8091C22.509 27.7894 22.6244 27.7692 22.7351 27.7471C22.8144 27.7313 22.8906 27.7149 22.9663 27.6981C23.0721 27.6747 23.1748 27.6507 23.274 27.6255C23.3443 27.6077 23.4131 27.5898 23.4801 27.5713C23.5767 27.5447 23.6691 27.5175 23.7591 27.4896C23.8193 27.4709 23.8795 27.4526 23.9367 27.4336C24.0262 27.4039 24.11 27.3739 24.1924 27.3436C24.2414 27.3256 24.2917 27.3079 24.3381 27.2898C24.4232 27.2566 24.5014 27.2238 24.5785 27.1906C24.6066 27.1785 24.6393 27.1664 24.6664 27.1543V29.6547H24.6667ZM24.6667 25.6547L24.6482 25.6662C24.5899 25.7015 24.5217 25.7407 24.4411 25.7834C24.4281 25.7902 24.4121 25.7978 24.3985 25.8048C24.3245 25.843 24.2397 25.8835 24.1476 25.9251C24.123 25.9362 24.0995 25.9471 24.0735 25.9583C23.9634 26.0059 23.8413 26.0548 23.707 26.1034C23.6797 26.1134 23.6494 26.1231 23.621 26.133C23.4976 26.176 23.3638 26.2184 23.2206 26.2598C23.1892 26.2688 23.1599 26.2781 23.1274 26.287C22.9607 26.333 22.7791 26.3766 22.5861 26.4173C22.5422 26.4266 22.4958 26.4352 22.4506 26.4441C22.2652 26.4806 22.0693 26.5141 21.8602 26.5433C21.8331 26.547 21.8083 26.5517 21.7807 26.5553C21.5509 26.5856 21.3028 26.6091 21.0442 26.6278C20.9834 26.6322 20.9209 26.6359 20.8584 26.6395C20.5861 26.6553 20.3038 26.6667 20.0001 26.6667C19.6961 26.6667 19.4135 26.6553 19.141 26.6394C19.0781 26.6357 19.0151 26.632 18.9538 26.6277C18.6955 26.6089 18.4477 26.5854 18.2181 26.5551C18.1888 26.5512 18.1623 26.5463 18.1334 26.5423C17.9256 26.5132 17.7304 26.4798 17.5459 26.4434C17.5012 26.4346 17.4552 26.4262 17.4117 26.417C17.2185 26.3761 17.0368 26.3325 16.8699 26.2864C16.837 26.2773 16.8071 26.2679 16.7752 26.2586C16.6318 26.2171 16.4977 26.1747 16.3742 26.1316C16.347 26.1221 16.3177 26.1127 16.2915 26.1031C16.1566 26.0542 16.0341 26.0052 15.9237 25.9573C15.8987 25.9465 15.8757 25.9359 15.8519 25.9252C15.7569 25.8825 15.6694 25.8407 15.5937 25.8015L15.5605 25.7848C15.4782 25.7413 15.4093 25.7016 15.3505 25.6659L15.3334 25.6553V23.1543C15.3605 23.1663 15.3932 23.1785 15.4213 23.1906C15.4984 23.2237 15.5766 23.2566 15.6616 23.2898C15.708 23.3079 15.7584 23.3255 15.8073 23.3436C15.8897 23.3739 15.9735 23.4038 16.063 23.4336C16.1203 23.4526 16.1804 23.471 16.2406 23.4896C16.3306 23.5175 16.4229 23.5446 16.5196 23.5713C16.5866 23.5898 16.6555 23.6077 16.7257 23.6255C16.8249 23.6507 16.9276 23.6747 17.0334 23.6981C17.1092 23.7149 17.1854 23.7313 17.2646 23.7471C17.3753 23.7691 17.4907 23.7894 17.6081 23.8091C17.6913 23.8231 17.7732 23.8373 17.8597 23.85C17.9858 23.8686 18.1183 23.8842 18.2516 23.8998C18.3386 23.9099 18.4229 23.9209 18.5129 23.9297C18.6645 23.9444 18.8245 23.9548 18.985 23.965C19.0659 23.9702 19.1426 23.9773 19.2257 23.9812C19.4738 23.993 19.7308 24.0002 19.9999 24.0002C20.2689 24.0002 20.5259 23.993 20.774 23.9812C20.8572 23.9773 20.9338 23.9702 21.0147 23.965C21.1753 23.9548 21.3353 23.9443 21.4868 23.9297C21.5769 23.9209 21.6612 23.9099 21.7481 23.8998C21.8814 23.8842 22.014 23.8686 22.14 23.85C22.2265 23.8373 22.3084 23.8231 22.3916 23.8091C22.509 23.7894 22.6244 23.7692 22.7351 23.7471C22.8144 23.7313 22.8906 23.7149 22.9663 23.6981C23.0721 23.6747 23.1748 23.6507 23.274 23.6255C23.3443 23.6077 23.4131 23.5898 23.4801 23.5713C23.5767 23.5447 23.6691 23.5175 23.7591 23.4896C23.8193 23.4709 23.8795 23.4526 23.9367 23.4336C24.0262 23.4039 24.11 23.3739 24.1924 23.3436C24.2414 23.3256 24.2917 23.3079 24.3381 23.2898C24.4232 23.2566 24.5014 23.2237 24.5785 23.1906C24.6066 23.1785 24.6393 23.1664 24.6664 23.1543V25.6547H24.6667Z" fill="#2062B0"/>
<path d="M5.99867 22.6666C6.17547 22.6667 6.34508 22.5965 6.47016 22.4714C6.59516 22.3464 6.66539 22.1768 6.66539 21.9999V10C6.66578 9.63195 6.96398 9.33367 7.33203 9.33336H19.332V12.9212L18.9635 12.737C18.7504 12.6298 18.4962 12.6447 18.297 12.7759C18.0978 12.9073 17.984 13.135 17.9984 13.3731C18.0129 13.6112 18.1535 13.8235 18.3672 13.9297L19.7005 14.5963C19.7064 14.5992 19.7132 14.598 19.7191 14.6007C19.8952 14.6887 20.1024 14.6887 20.2785 14.6007C20.2844 14.598 20.2912 14.5992 20.297 14.5963L21.6303 13.9297C21.844 13.8235 21.9846 13.6112 21.9991 13.3731C22.0135 13.135 21.8997 12.9073 21.7005 12.7759C21.5012 12.6446 21.2471 12.6298 21.034 12.737L20.6655 12.9212V2C20.6659 1.63195 20.9641 1.33367 21.3321 1.33336H32.6655C33.0335 1.33375 33.3318 1.63195 33.3321 2V4.92125L32.9636 4.73703C32.7505 4.62984 32.4962 4.64469 32.297 4.77594C32.0978 4.90727 31.984 5.135 31.9984 5.37313C32.0129 5.61125 32.1535 5.82352 32.3672 5.92969L33.7005 6.59633C33.7064 6.59922 33.7132 6.59797 33.7191 6.6007C33.8952 6.68867 34.1024 6.68867 34.2785 6.6007C34.2844 6.59797 34.2912 6.59922 34.297 6.59633L35.6303 5.92969C35.9587 5.76453 36.0915 5.36469 35.9271 5.03586C35.7627 4.70703 35.3632 4.57336 35.034 4.73695L34.6655 4.92117V2C34.6643 0.895938 33.7695 0.00117187 32.6655 0H21.332C20.228 0.00117187 19.3332 0.895938 19.332 2V8H7.33203C6.22797 8.00117 5.3332 8.89594 5.33203 10V22C5.33195 22.1768 5.40219 22.3464 5.52727 22.4715C5.65227 22.5965 5.82188 22.6667 5.99867 22.6666Z" fill="#2062B0"/>
</svg>
