<svg width="40" height="40" viewBox="0 0 40 40" fill="none" xmlns="http://www.w3.org/2000/svg">
<path d="M39.3334 38.6666H36.6667V20C36.6655 18.8959 35.7708 18.0012 34.6667 18V14C34.6655 12.8959 33.7708 12.0012 32.6667 12V8C32.6655 6.89594 31.7708 6.00117 30.6667 6V2C30.6655 0.895938 29.7708 0.00117187 28.6667 0H11.3334C10.2293 0.00117187 9.33453 0.895938 9.33336 2V6C8.2293 6.00117 7.33453 6.89594 7.33336 8V12C6.2293 12.0012 5.33453 12.8959 5.33336 14V18C4.2293 18.0012 3.33453 18.8959 3.33336 20V38.6666H0.666641C0.298438 38.6666 0 38.9651 0 39.3333C0 39.7015 0.298438 40 0.666641 40H39.3333C39.7015 40 39.9999 39.7016 39.9999 39.3334C39.9999 38.9652 39.7016 38.6666 39.3334 38.6666ZM10.6666 2C10.6669 1.63195 10.9652 1.33359 11.3333 1.33336H28.6666C29.0348 1.33359 29.333 1.63195 29.3333 2V6H19.2659C18.9491 4.44805 17.584 3.33336 16 3.33336C14.416 3.33336 13.0509 4.44805 12.7341 6H10.6667V2H10.6666ZM17.8772 6H14.1229C14.4014 5.20156 15.1545 4.66664 16.0001 4.66664C16.8457 4.66664 17.5987 5.20156 17.8772 6ZM8.66664 8C8.66687 7.63188 8.96523 7.33359 9.33328 7.33336H30.6666C31.0348 7.33359 31.333 7.63195 31.3333 8V12H17.2659C16.9491 10.448 15.584 9.33336 14 9.33336C12.416 9.33336 11.0509 10.448 10.7341 12H8.66672V8H8.66664ZM15.8772 12H12.1229C12.4014 11.2016 13.1545 10.6666 14.0001 10.6666C14.8457 10.6666 15.5987 11.2016 15.8772 12ZM6.66664 14C6.66687 13.6319 6.96523 13.3336 7.33328 13.3334H32.6666C33.0347 13.3336 33.333 13.632 33.3333 14V18H15.2659C14.9491 16.448 13.584 15.3334 12 15.3334C10.416 15.3334 9.05086 16.448 8.73406 18H6.66664V14ZM13.8772 18H10.1229C10.4014 17.2016 11.1545 16.6666 12.0001 16.6666C12.8457 16.6666 13.5987 17.2016 13.8772 18ZM35.3334 38.6666H4.66664V20C4.66688 19.632 4.96523 19.3336 5.33328 19.3334H34.6666C35.0348 19.3336 35.333 19.632 35.3333 20V38.6666H35.3334Z" fill="#2062B0"/>
<path d="M11.332 30C13.5412 30 15.332 28.2091 15.332 26C15.332 23.7909 13.5412 22 11.332 22C9.12289 22 7.33203 23.7909 7.33203 26C7.33445 28.2081 9.12383 29.9976 11.332 30ZM11.332 23.3334C12.8048 23.3334 13.9987 24.5273 13.9987 26C13.9987 27.4727 12.8048 28.6666 11.332 28.6666C9.8593 28.6666 8.66539 27.4727 8.66539 26C8.6668 24.5278 9.85985 23.3348 11.332 23.3334Z" fill="#2062B0"/>
<path d="M31.9987 22H17.9987C17.6305 22 17.332 22.2984 17.332 22.6666C17.332 23.0348 17.6305 23.3333 17.9987 23.3333H31.9987C32.3669 23.3333 32.6653 23.0348 32.6653 22.6666C32.6653 22.2984 32.3669 22 31.9987 22Z" fill="#2062B0"/>
<path d="M31.9987 25.334H17.9987C17.6305 25.334 17.332 25.6325 17.332 26.0006C17.332 26.3688 17.6305 26.6673 17.9987 26.6673H31.9987C32.3669 26.6673 32.6653 26.3687 32.6653 26.0006C32.6653 25.6324 32.3669 25.334 31.9987 25.334Z" fill="#2062B0"/>
<path d="M31.9987 28.667H17.9987C17.6305 28.667 17.332 28.9654 17.332 29.3336C17.332 29.7018 17.6305 30.0004 17.9987 30.0004H31.9987C32.3669 30.0004 32.6653 29.7019 32.6653 29.3337C32.6653 28.9655 32.3669 28.667 31.9987 28.667Z" fill="#2062B0"/>
<path d="M31.9987 32H7.99867C7.63047 32 7.33203 32.2984 7.33203 32.6666C7.33203 33.0348 7.63047 33.3333 7.99867 33.3333H31.9987C32.3669 33.3333 32.6653 33.0348 32.6653 32.6666C32.6653 32.2984 32.3669 32 31.9987 32Z" fill="#2062B0"/>
<path d="M31.9987 35.334H7.99867C7.63047 35.334 7.33203 35.6325 7.33203 36.0006C7.33203 36.3687 7.63047 36.6673 7.99867 36.6673H31.9987C32.3669 36.6673 32.6653 36.3688 32.6653 36.0006C32.6653 35.6324 32.3669 35.334 31.9987 35.334Z" fill="#2062B0"/>
</svg>
