<svg width="40" height="16" viewBox="0 0 40 16" fill="none" xmlns="http://www.w3.org/2000/svg">
<path d="M38 0H2C0.895938 0.00117188 0.00117187 0.895937 0 2V14C0.00117187 15.1041 0.895938 15.9988 2 16H38C39.1041 15.9988 39.9988 15.1041 40 14V2C39.9988 0.895937 39.1041 0.00117188 38 0ZM13.3334 14.6666H2C1.63203 14.6662 1.33383 14.368 1.33336 14V2C1.33383 1.63203 1.63203 1.33383 2 1.33336H13.3334V14.6666ZM38.6666 14C38.6662 14.368 38.368 14.6662 38 14.6666H14.6666V1.33336H38C38.368 1.33383 38.6662 1.63203 38.6666 2V14Z" fill="#2062B0"/>
<path d="M5.99867 12.6664H8.66531C9.13984 12.6639 9.60484 12.5333 10.0114 12.2885L10.8607 13.1377C11.0286 13.3086 11.2753 13.3764 11.5069 13.315C11.7385 13.2537 11.9194 13.0728 11.9807 12.8412C12.042 12.6096 11.9743 12.3629 11.8034 12.195L10.9541 11.3457C11.199 10.9392 11.3295 10.4742 11.332 9.99964V5.99964C11.3304 4.52762 10.1374 3.33465 8.66539 3.33301H5.99867C4.52664 3.33473 3.33367 4.52762 3.33203 5.99964V9.99964C3.33367 11.4717 4.52664 12.6647 5.99867 12.6664ZM4.66531 5.99972C4.66602 5.26363 5.26258 4.66715 5.99867 4.66636H8.66531C9.40141 4.66707 9.99789 5.26363 9.99867 5.99972V9.99972C9.99711 10.115 9.98039 10.2296 9.94898 10.3407L9.13664 9.52839C8.87563 9.27206 8.45688 9.27401 8.1982 9.53261C7.93953 9.7912 7.93766 10.21 8.19398 10.471L9.00625 11.2833C8.89523 11.3147 8.78062 11.3314 8.66531 11.333H5.99867C5.26258 11.3323 4.66609 10.7357 4.66531 9.99964V5.99972Z" fill="#2062B0"/>
<path d="M17.3333 2.66699H16.6666C16.2984 2.66699 16 2.96543 16 3.33363C16 3.70184 16.2985 4.00027 16.6666 4.00027H17.3333C17.7015 4.00027 17.9999 3.70184 17.9999 3.33363C17.9999 2.96543 17.7015 2.66699 17.3333 2.66699Z" fill="#2062B0"/>
<path d="M36.6653 2.66699H19.9987C19.6305 2.66699 19.332 2.96543 19.332 3.33363C19.332 3.70184 19.6305 4.00027 19.9987 4.00027H36.6653C37.0335 4.00027 37.332 3.70184 37.332 3.33363C37.332 2.96543 37.0335 2.66699 36.6653 2.66699Z" fill="#2062B0"/>
<path d="M36.6653 5.33398H19.9987C19.6305 5.33398 19.332 5.63242 19.332 6.00062C19.332 6.36883 19.6305 6.66726 19.9987 6.66726H36.6653C37.0335 6.66726 37.332 6.36883 37.332 6.00062C37.332 5.63242 37.0335 5.33398 36.6653 5.33398Z" fill="#2062B0"/>
<path d="M22.6654 8.66699H20.6654C19.9293 8.6677 19.3328 9.26426 19.332 10.0004V12.0004C19.3327 12.7364 19.9293 13.3329 20.6654 13.3337H22.6654C23.4015 13.333 23.998 12.7364 23.9988 12.0004V10.0004C23.998 9.26426 23.4015 8.66777 22.6654 8.66699ZM20.6654 12.0004V10.0004H22.6654L22.6663 12.0004H20.6654Z" fill="#2062B0"/>
<path d="M29.3334 8.66699H27.3334C26.5973 8.6677 26.0008 9.26426 26 10.0004V12.0004C26.0007 12.7364 26.5973 13.3329 27.3334 13.3337H29.3334C30.0695 13.333 30.6659 12.7364 30.6667 12.0004V10.0004C30.6659 9.26426 30.0694 8.66777 29.3334 8.66699ZM27.3334 12.0004V10.0004H29.3334L29.3343 12.0004H27.3334Z" fill="#2062B0"/>
<path d="M36.0013 8.66699H34.0013C33.2652 8.6677 32.6687 9.26426 32.668 10.0004V12.0004C32.6687 12.7364 33.2652 13.3329 34.0013 13.3337H36.0013C36.7374 13.333 37.3339 12.7364 37.3347 12.0004V10.0004C37.3339 9.26426 36.7374 8.66777 36.0013 8.66699ZM34.0013 12.0004V10.0004H36.0013L36.0023 12.0004H34.0013Z" fill="#2062B0"/>
</svg>
