<svg width="40" height="40" viewBox="0 0 40 40" fill="none" xmlns="http://www.w3.org/2000/svg">
<path d="M31.7251 23.4482C27.1616 23.4482 23.4492 27.1607 23.4492 31.7241C23.4492 36.2876 27.1616 40 31.7251 40C36.2885 40 40.0009 36.2876 40.0009 31.7241C40.0009 27.1607 36.2885 23.4482 31.7251 23.4482ZM31.7251 38.6207C27.9223 38.6207 24.8285 35.5269 24.8285 31.7241C24.8285 27.9213 27.9223 24.8276 31.7251 24.8276C35.5278 24.8276 38.6216 27.9213 38.6216 31.7241C38.6216 35.5269 35.5278 38.6207 31.7251 38.6207Z" fill="#2062B0"/>
<path d="M35.8627 31.0344H32.4145V27.5861C32.4145 27.2048 32.1062 26.8965 31.7248 26.8965C31.3434 26.8965 31.0352 27.2048 31.0352 27.5861V31.7241C31.0352 32.1054 31.3434 32.4137 31.7248 32.4137H35.8627C36.2441 32.4137 36.5524 32.1054 36.5524 31.7241C36.5524 31.3427 36.2441 31.0344 35.8627 31.0344Z" fill="#2062B0"/>
<path d="M18.6212 14.4824H17.2419H12.4143H11.035H4.82812V20.6893V22.0686V26.8962V28.2755V34.4824H11.035H12.4143H18.6212V28.2755V26.8962V22.0686H23.4488H24.8281H31.035V14.4824H24.8281H23.4488H18.6212ZM24.8281 15.8617H29.6557V20.6893H24.8281V15.8617ZM12.4143 15.8617H17.2419V20.6893H12.4143V15.8617ZM6.20744 15.8617H11.035V20.6893H6.20744V15.8617ZM6.20744 22.0686H11.035V26.8962H6.20744V22.0686ZM11.035 33.1031H6.20744V28.2755H11.035V33.1031ZM17.2419 33.1031H12.4143V28.2755H17.2419V33.1031ZM17.2419 26.8962H12.4143V22.0686H17.2419V26.8962ZM23.4488 20.6893H18.6212V15.8617H23.4488V20.6893Z" fill="#2062B0"/>
<path d="M22.7586 37.931H1.37931V11.0345H34.4828V20C34.4828 20.3814 34.791 20.6897 35.1724 20.6897C35.5538 20.6897 35.8621 20.3814 35.8621 20V10.3448V3.44828C35.8621 3.0669 35.5538 2.75862 35.1724 2.75862H31.7241V0.689655C31.7241 0.308276 31.4159 0 31.0345 0H26.2069C25.8255 0 25.5172 0.308276 25.5172 0.689655V2.75862H10.3448V0.689655C10.3448 0.308276 10.0366 0 9.65517 0H4.82759C4.44621 0 4.13793 0.308276 4.13793 0.689655V2.75862H0.689655C0.308276 2.75862 0 3.0669 0 3.44828V10.3448V38.6207C0 39.0021 0.308276 39.3103 0.689655 39.3103H22.7586C23.14 39.3103 23.4483 39.0021 23.4483 38.6207C23.4483 38.2393 23.14 37.931 22.7586 37.931ZM26.8966 1.37931H30.3448V3.44828V5.51724H26.8966V3.44828V1.37931ZM5.51724 1.37931H8.96552V3.44828V5.51724H5.51724V3.44828V1.37931ZM1.37931 4.13793H4.13793V6.2069C4.13793 6.58828 4.44621 6.89655 4.82759 6.89655H9.65517C10.0366 6.89655 10.3448 6.58828 10.3448 6.2069V4.13793H25.5172V6.2069C25.5172 6.58828 25.8255 6.89655 26.2069 6.89655H31.0345C31.4159 6.89655 31.7241 6.58828 31.7241 6.2069V4.13793H34.4828V9.65517H1.37931V4.13793Z" fill="#2062B0"/>
</svg>
