<svg width="40" height="40" viewBox="0 0 40 40" fill="none" xmlns="http://www.w3.org/2000/svg">
<path d="M10.7682 18.5677C13.1305 18.5677 15.0521 16.6462 15.0521 14.2846C15.0521 11.9215 13.1305 10 10.7682 10C8.40591 10 6.48438 11.9215 6.48438 14.2838C6.48437 16.6462 8.40591 18.5677 10.7682 18.5677ZM10.7682 11.5385C12.2821 11.5385 13.5136 12.7708 13.5136 14.2838C13.5136 15.7969 12.2821 17.0292 10.7682 17.0292C9.25438 17.0292 8.02284 15.7977 8.02284 14.2846C8.02284 12.7715 9.25438 11.5385 10.7682 11.5385Z" fill="#2062B0"/>
<path d="M0.769531 0V30.7692V40H39.2311V30.7692V0H0.769531ZM2.30799 1.53846H37.6926V22.0977L29.7511 14.8177C29.6003 14.68 29.4018 14.6115 29.1972 14.6162C28.9934 14.6254 28.8011 14.7154 28.6634 14.8662L21.1295 23.1177L17.4811 19.4692C17.1934 19.1823 16.7334 19.1677 16.4288 19.4354L3.55569 30.7692H2.30799V1.53846ZM37.6926 38.4615H2.30799V32.3077H37.6926V38.4615ZM5.88415 30.7692L16.9026 21.0685L24.8272 28.9923C25.128 29.2931 25.6141 29.2931 25.9149 28.9923C26.2157 28.6915 26.2157 28.2054 25.9149 27.9046L22.2172 24.2069L29.2795 16.4731L37.6926 24.1846V30.7692H5.88415Z" fill="#2062B0"/>
</svg>
