<svg width="36" height="40" viewBox="0 0 36 40" fill="none" xmlns="http://www.w3.org/2000/svg">
<path d="M7.1914 11.3327H20.1747C20.3927 11.3326 20.5969 11.226 20.7215 11.0472C20.8461 10.8683 20.8755 10.6399 20.8001 10.4353L18.0981 3.10202C18.0015 2.84009 17.7519 2.66608 17.4727 2.66602H4.4894C4.27165 2.6665 4.06787 2.7733 3.94355 2.95207C3.81924 3.13084 3.79006 3.35905 3.8654 3.56335L6.5674 10.8967C6.66382 11.1581 6.91271 11.3321 7.1914 11.3327ZM17.0081 3.99935L19.2181 9.99934H7.65606L5.44607 3.99935H17.0081Z" fill="#2062B0"/>
<path d="M0.666668 10.1413V34.7807C0.664978 35.3116 0.876028 35.8211 1.25267 36.1953L4.86133 39.804C4.92334 39.866 4.99697 39.9152 5.078 39.9487C5.15895 39.9823 5.24569 39.9997 5.33333 40H24C24.3682 40 24.6667 39.7015 24.6667 39.3333V37.3333H33.3333C34.8061 37.3333 36 36.1394 36 34.6667V18C36 16.5272 34.8061 15.3333 33.3333 15.3333H24.6667V13.3333C24.6655 13.3259 24.6639 13.3186 24.662 13.3113C24.6614 13.2402 24.649 13.1697 24.6253 13.1027L19.9587 0.436C19.8621 0.17407 19.6125 6.54733e-05 19.3333 0H0.666668C0.586946 0.00151633 0.508142 0.0173222 0.434001 0.0466667C0.419335 0.0526667 0.405335 0.0566667 0.391335 0.0666667C0.324017 0.0970574 0.262272 0.138521 0.208668 0.189333C0.200001 0.2 0.189335 0.208 0.178668 0.219333C0.15752 0.240102 0.137913 0.262383 0.120001 0.286C0.099152 0.31807 0.0812989 0.351991 0.066668 0.387333C0.0613347 0.4 0.054668 0.405333 0.050668 0.416C0.02244 0.488356 0.00687942 0.565031 0.00466799 0.642667C0.00466799 0.650667 1.32105e-06 0.658 1.32105e-06 0.666667V6.35867C-0.000471759 7.08179 0.12612 7.79936 0.374001 8.47867C0.568168 9.01147 0.667229 9.57425 0.666668 10.1413ZM2 34.7807V10.1413C2.00047 9.41822 1.87388 8.70064 1.626 8.02133C1.43183 7.48853 1.33277 6.92575 1.33333 6.35867L1.33333 4.40467L4.66667 13.4527V37.724L2.19533 35.2527C2.07014 35.1275 1.99986 34.9577 2 34.7807ZM28 16.6667V36H22C21.2636 36 20.6667 35.403 20.6667 34.6667V18C20.6667 17.2636 21.2636 16.6667 22 16.6667H28ZM34.6667 18V34.6667C34.6667 35.403 34.0697 36 33.3333 36H32.6667V16.6667H33.3333C34.0697 16.6667 34.6667 17.2636 34.6667 18ZM31.3333 16.6667V36H29.3333V16.6667H31.3333ZM22 15.3333C20.5272 15.3333 19.3333 16.5272 19.3333 18V34.6667C19.3333 36.1394 20.5272 37.3333 22 37.3333H23.3333V38.6667H6V14H23.3333V15.3333H22ZM18.8667 1.33333L23.0413 12.6667H5.8L1.62333 1.33333H18.8667Z" fill="#2062B0"/>
<path d="M8.47043 7.13873L9.80376 5.80539C9.97707 5.63801 10.0466 5.39014 9.98556 5.15705C9.92455 4.92396 9.74252 4.74193 9.50943 4.68092C9.27635 4.61991 9.02848 4.68942 8.86109 4.86272L7.52776 6.19606C7.35446 6.36344 7.28495 6.61131 7.34596 6.8444C7.40697 7.07748 7.589 7.25951 7.82209 7.32052C8.05518 7.38153 8.30304 7.31203 8.47043 7.13873Z" fill="#2062B0"/>
<path d="M8.86316 9.13872C9.12349 9.39898 9.54549 9.39898 9.80583 9.13872L13.1392 5.80539C13.3125 5.63801 13.382 5.39014 13.321 5.15705C13.2599 4.92396 13.0779 4.74193 12.8448 4.68092C12.6117 4.61991 12.3639 4.68942 12.1965 4.86272L8.86316 8.19606C8.60291 8.45639 8.60291 8.87839 8.86316 9.13872Z" fill="#2062B0"/>
<path d="M16.6654 16.667H12.6654C11.929 16.667 11.332 17.2639 11.332 18.0003V19.3337C11.332 20.07 11.929 20.667 12.6654 20.667H16.6654C17.4017 20.667 17.9987 20.07 17.9987 19.3337V18.0003C17.9987 17.2639 17.4017 16.667 16.6654 16.667ZM12.6654 19.3337V18.0003H16.6654V19.3337H12.6654Z" fill="#2062B0"/>
<path d="M7.9987 15.333C7.63051 15.333 7.33203 15.6315 7.33203 15.9997V17.333C7.33203 17.7012 7.63051 17.9997 7.9987 17.9997C8.36689 17.9997 8.66537 17.7012 8.66537 17.333V15.9997C8.66537 15.6315 8.36689 15.333 7.9987 15.333Z" fill="#2062B0"/>
<path d="M7.9987 19.333C7.63051 19.333 7.33203 19.6315 7.33203 19.9997V36.6663C7.33203 37.0345 7.63051 37.333 7.9987 37.333C8.36689 37.333 8.66537 37.0345 8.66537 36.6663V19.9997C8.66537 19.6315 8.36689 19.333 7.9987 19.333Z" fill="#2062B0"/>
<path d="M22.7054 30.667C22.0253 31.3294 21.8143 32.3378 22.1718 33.2172C22.5294 34.0967 23.3841 34.6719 24.3334 34.6719C25.2828 34.6719 26.1375 34.0967 26.495 33.2172C26.8525 32.3378 26.6415 31.3294 25.9614 30.667C26.6415 30.0046 26.8525 28.9962 26.495 28.1168C26.1375 27.2373 25.2828 26.6621 24.3334 26.6621C23.3841 26.6621 22.5294 27.2373 22.1718 28.1168C21.8143 28.9962 22.0253 30.0046 22.7054 30.667ZM25.3334 32.3337C25.3334 32.8859 24.8857 33.3337 24.3334 33.3337C23.7811 33.3337 23.3334 32.8859 23.3334 32.3337C23.3334 31.7814 23.7811 31.3337 24.3334 31.3337C24.8857 31.3337 25.3334 31.7814 25.3334 32.3337ZM24.3334 28.0003C24.8857 28.0003 25.3334 28.448 25.3334 29.0003C25.3334 29.5526 24.8857 30.0003 24.3334 30.0003C23.7811 30.0003 23.3334 29.5526 23.3334 29.0003C23.3334 28.448 23.7811 28.0003 24.3334 28.0003Z" fill="#2062B0"/>
</svg>
