<svg width="40" height="40" viewBox="0 0 40 40" fill="none" xmlns="http://www.w3.org/2000/svg">
<path d="M14 28H4.66664C4.26664 28 4 28.2666 4 28.6666V36.6666C4 37.0666 4.26664 37.3333 4.66664 37.3333H14C14.4 37.3333 14.6666 37.0666 14.6666 36.6666V28.6666C14.6666 28.2666 14.4 28 14 28ZM13.3334 36H5.33336V29.3334H13.3334V36Z" fill="#2062B0"/>
<path d="M7.33461 32.0003H11.3346C11.7346 32.0003 12.0013 31.7336 12.0013 31.3336C12.0013 30.9336 11.7346 30.667 11.3346 30.667H7.33461C6.93461 30.667 6.66797 30.9336 6.66797 31.3336C6.66789 31.7336 6.93461 32.0003 7.33461 32.0003Z" fill="#2062B0"/>
<path d="M7.33461 34.6663H10.0012C10.4012 34.6663 10.6679 34.3997 10.6679 33.9997C10.6679 33.5997 10.4012 33.333 10.0012 33.333H7.33461C6.93461 33.333 6.66797 33.5997 6.66797 33.9997C6.66797 34.3997 6.93461 34.6663 7.33461 34.6663Z" fill="#2062B0"/>
<path d="M38 0H24.6666C23.6 0 22.6666 0.866641 22.6666 2V8H20V7.33336C20 6.93336 19.7334 6.66672 19.3334 6.66672H12.6667C12.2667 6.66672 12.0001 6.93336 12.0001 7.33336V8H3.33336C1.46664 8 0 9.53336 0 11.3334V36.6667C0 38.5334 1.53336 40 3.33336 40H28.6667C30.5334 40 32.0001 38.5334 32.0001 36.6666V17.3334H38.0001C39.0667 17.3334 40.0001 16.4 40.0001 15.3334V2C40 0.933359 39.1334 0 38 0ZM13.3334 8H18.6667V8.66664V15.2666L16.4001 13.4666C16.2667 13.4 16.1334 13.3333 16.0001 13.3333C15.8667 13.3333 15.7334 13.3999 15.6001 13.4666L13.3334 15.2666V8.66664V8H13.3334ZM30.6666 36.6666C30.6666 37.8 29.8 38.6666 28.6666 38.6666H3.33336C2.2 38.6666 1.33336 37.7333 1.33336 36.6666V11.3334C1.33336 10.2 2.26672 9.33336 3.33336 9.33336H12V15.4C12 15.8666 12.2666 16.3334 12.7334 16.5334C12.8667 16.6 13.0667 16.6667 13.2667 16.6667C13.5334 16.6667 13.8001 16.6001 14.0667 16.4001L16.0001 14.8667L17.9334 16.4001C18.3334 16.6667 18.8001 16.7334 19.2668 16.5334C19.7334 16.3334 20.0002 15.8668 20.0002 15.4001V9.33344H22.6668V15.3334C22.6668 16.4668 23.5334 17.3334 24.6668 17.3334H30.6668V36.6666H30.6666ZM38.6666 15.3334C38.6666 15.6667 38.4 16 38 16H31.3334H24.6667C24.3334 16 24.0001 15.7334 24.0001 15.3334V8.66672V2C24.0001 1.66664 24.2667 1.33336 24.6667 1.33336H38C38.3334 1.33336 38.6666 1.6 38.6666 2V15.3334Z" fill="#2062B0"/>
<path d="M36 8.66699C35.6 8.66699 35.3334 8.93363 35.3334 9.33363C35.3334 10.467 34.4667 11.3336 33.3334 11.3336H28.2667L29.1334 10.467C29.4 10.2004 29.4 9.80035 29.1334 9.53363C28.8667 9.26699 28.4667 9.26699 28.2 9.53363L26.3141 11.4196C26.118 11.5286 26 11.7347 26 12.0004C26 12.2659 26.118 12.4721 26.3141 12.5811L28.2 14.467C28.3334 14.6004 28.4666 14.667 28.6666 14.667C28.8666 14.667 29 14.6004 29.1333 14.467C29.3999 14.2004 29.3999 13.8004 29.1333 13.5336L28.2666 12.667H33.3333C35.1999 12.667 36.6666 11.2004 36.6666 9.33363C36.6666 8.93371 36.4 8.66699 36 8.66699Z" fill="#2062B0"/>
<path d="M36.3527 4.75291L34.4667 2.86697C34.2001 2.60033 33.8001 2.60033 33.5334 2.86697C33.2667 3.13361 33.2667 3.53361 33.5334 3.80033L34.4 4.66697H29.3334C27.4667 4.66697 26 6.13361 26 8.00033C26 8.40033 26.2666 8.66697 26.6666 8.66697C27.0666 8.66697 27.3333 8.40033 27.3333 8.00033C27.3333 6.86697 28.1999 6.00033 29.3333 6.00033H34.3999L33.5333 6.86697C33.2666 7.13361 33.2666 7.53361 33.5333 7.80033C33.6666 7.93369 33.7999 8.00033 33.9999 8.00033C34.1999 8.00033 34.3333 7.93369 34.4666 7.80033L36.3525 5.91439C36.5485 5.80541 36.6666 5.59924 36.6666 5.33369C36.6666 5.06814 36.5487 4.86197 36.3527 4.75291Z" fill="#2062B0"/>
</svg>
