<svg width="34" height="40" viewBox="0 0 34 40" fill="none" xmlns="http://www.w3.org/2000/svg">
<path d="M20.4916 33.2939C19.1973 33.2939 18.1445 34.3468 18.1445 35.641C18.1445 36.9352 19.1973 37.988 20.4916 37.988C21.7858 37.988 22.8386 36.9352 22.8386 35.641C22.8386 34.3468 21.7858 33.2939 20.4916 33.2939ZM20.4916 36.6468C19.937 36.6468 19.4857 36.1955 19.4857 35.641C19.4857 35.0864 19.937 34.6351 20.4916 34.6351C21.0461 34.6351 21.4974 35.0864 21.4974 35.641C21.4974 36.1955 21.0468 36.6468 20.4916 36.6468Z" fill="#2062B0"/>
<path d="M6.09833 14.2233L8.46882 16.5938C8.59958 16.7245 8.77125 16.7903 8.94292 16.7903C9.11459 16.7903 9.28626 16.7245 9.41702 16.5938C9.67921 16.3316 9.67921 15.9078 9.41702 15.6456L7.94711 14.1757C8.68542 13.0592 8.68542 11.594 7.94711 10.4774L10.8869 7.53695C11.9739 8.25984 13.4975 8.25984 14.5858 7.53695L16.0557 9.00686C16.3179 9.26906 16.7417 9.26906 17.0039 9.00686C17.2661 8.74467 17.2661 8.32086 17.0039 8.05866L14.6328 5.6875L14.1587 6.1616C13.3982 6.92136 12.0738 6.92136 11.3134 6.1616L10.8393 5.6875L6.09766 10.4292L6.57175 10.9033C7.35566 11.6878 7.35566 12.9639 6.57175 13.7485L6.09833 14.2233Z" fill="#2062B0"/>
<path d="M26.0582 19.0125C25.3199 20.129 25.3199 21.5942 26.0582 22.7108L23.1183 25.6512C22.03 24.9277 20.5064 24.9277 19.4194 25.6512L17.9495 24.1813C17.6873 23.9191 17.2635 23.9191 17.0013 24.1813C16.7391 24.4435 16.7391 24.8673 17.0013 25.1295L19.3725 27.5007L19.8466 27.0266C20.607 26.2662 21.9314 26.2675 22.6919 27.0266L23.166 27.5007L27.9076 22.759L27.4335 22.2849C26.6496 21.5004 26.6496 20.2243 27.4335 19.4397L27.9076 18.9656L25.5371 16.5951C25.2749 16.3329 24.8511 16.3329 24.5889 16.5951C24.3267 16.8573 24.3267 17.2811 24.5889 17.5433L26.0582 19.0125Z" fill="#2062B0"/>
<path d="M28.8581 21.5326C29.2284 21.5326 29.5287 21.2323 29.5287 20.862C29.5287 20.4916 29.2284 20.1914 28.8581 20.1914C28.4877 20.1914 28.1875 20.4916 28.1875 20.862C28.1875 21.2323 28.4877 21.5326 28.8581 21.5326Z" fill="#2062B0"/>
<path d="M21.2721 29.1195C21.6425 29.1195 21.9427 28.8192 21.9427 28.4489C21.9427 28.0785 21.6425 27.7783 21.2721 27.7783C20.9018 27.7783 20.6016 28.0785 20.6016 28.4489C20.6016 28.8192 20.9018 29.1195 21.2721 29.1195Z" fill="#2062B0"/>
<path d="M13.2082 5.21418C13.4704 4.95198 13.7165 4.52751 13.455 4.26598C13.1928 4.00379 12.7683 4.00379 12.5068 4.26598C12.2446 4.52818 11.9985 4.95266 12.26 5.21418C12.5222 5.47571 12.9467 5.47571 13.2082 5.21418Z" fill="#2062B0"/>
<path d="M5.15105 12.9974C5.5214 12.9974 5.82163 12.6972 5.82163 12.3268C5.82163 11.9565 5.5214 11.6562 5.15105 11.6562C4.7807 11.6562 4.48047 11.9565 4.48047 12.3268C4.48047 12.6972 4.7807 12.9974 5.15105 12.9974Z" fill="#2062B0"/>
<path d="M31.5561 24.912C31.5561 24.3219 31.4602 23.7425 31.2791 23.1819L33.596 20.865L30.5415 17.7723C31.1738 17.2091 31.5561 16.3977 31.5561 15.5239C31.5561 13.8602 30.2022 12.5063 28.5385 12.5063C28.4164 12.5063 28.2957 12.5184 28.1764 12.5331C28.1911 12.4137 28.2032 12.2937 28.2032 12.171C28.2032 10.5073 26.8493 9.15339 25.1856 9.15339C25.0635 9.15339 24.9428 9.16546 24.8235 9.18022C24.8382 9.06085 24.8503 8.94082 24.8503 8.8181C24.8503 7.1544 23.4964 5.8005 21.8327 5.8005C21.7106 5.8005 21.5899 5.81257 21.4706 5.82733C21.4853 5.70796 21.4974 5.58793 21.4974 5.46521C21.4974 3.71702 20.3319 2.44761 18.7266 2.44761C17.8495 2.44761 16.9643 2.82716 16.35 3.40117L12.9904 0L0.402344 12.3212L6.6005 18.52C6.26923 19.0042 6.07477 19.5883 6.07477 20.2179C6.07477 21.2667 6.61391 22.1908 7.42866 22.7313C7.4689 22.7849 7.51718 22.8392 7.58021 22.8929L14.7923 30.0781V31.2825H13.4511V40H25.5215H30.8862V31.2825H29.545V29.2513C30.8278 28.1643 31.5561 26.6012 31.5561 24.912ZM7.41525 20.2179C7.41525 19.7774 7.5896 19.379 7.86789 19.08L7.97049 18.9861C8.20385 18.7728 8.48415 18.632 8.77988 18.573C8.88114 18.5536 8.9844 18.5415 9.09103 18.5415H10.567H15.7968C16.7209 18.5415 17.4733 19.2932 17.4733 20.2179C17.4733 20.3266 17.4612 20.4319 17.4411 20.5351C17.2996 21.2406 16.6967 21.8039 15.9524 21.8756L15.7532 21.8944H11.8706H9.97418H9.09103C8.16764 21.8944 7.41525 21.1427 7.41525 20.2179ZM13.2104 12.8007C15.3019 10.7091 18.7051 10.7091 20.7966 12.8007C21.8099 13.8139 22.3678 15.1618 22.3678 16.5941C22.3678 18.0265 21.8099 19.3743 20.7966 20.3876C20.1227 21.0615 19.2865 21.5336 18.3839 21.7723C18.4563 21.6523 18.5194 21.5262 18.575 21.3961C18.5784 21.3881 18.5804 21.3787 18.5844 21.3707C18.6481 21.2171 18.6957 21.0562 18.7339 20.8912C18.744 20.8483 18.7527 20.806 18.7608 20.7631C18.793 20.5854 18.8158 20.405 18.8158 20.2179C18.8158 18.5542 17.4619 17.2003 15.7982 17.2003H11.6774C11.491 15.5789 12.0449 13.9661 13.2104 12.8007ZM30.2149 15.5239C30.2149 16.0322 29.9822 16.5043 29.5986 16.8168L27.2597 14.4483C27.5735 14.0748 28.0369 13.8468 28.5385 13.8468C29.4632 13.8474 30.2149 14.5992 30.2149 15.5239ZM26.862 12.171C26.862 12.6692 26.636 13.1299 26.2665 13.4431L23.9276 11.0746C24.2407 10.7145 24.694 10.4939 25.1856 10.4939C26.1103 10.4946 26.862 11.2463 26.862 12.171ZM23.5091 8.8181C23.5091 9.30562 23.2905 9.75692 22.9344 10.0694L20.5955 7.70159C20.908 7.3549 21.3512 7.14233 21.832 7.14233C22.7574 7.14166 23.5091 7.89338 23.5091 8.8181ZM18.7266 3.78877C19.7143 3.78877 20.1562 4.63101 20.1562 5.46521C20.1562 5.94267 19.9457 6.38324 19.603 6.69505L17.2895 4.35272C17.6543 4.02213 18.2015 3.78877 18.7266 3.78877ZM12.9743 1.89237L15.5923 4.5425L15.5346 4.67393L18.8875 8.02682L19.2717 8.41106L22.2404 11.3797L22.6246 11.764L25.5933 14.7326L25.9775 15.1168L29.3304 18.4697L29.3412 18.465L31.7056 20.859L21.2821 31.2825H21.26L13.2131 23.2355H15.7975C15.8659 23.2355 15.9303 23.2201 15.998 23.2154C16.3319 23.2664 16.6665 23.2939 16.9998 23.2939C18.7655 23.2939 20.4821 22.5978 21.7442 21.3358C23.0109 20.0691 23.7083 18.3852 23.7083 16.5941C23.7083 14.803 23.0109 13.1185 21.7442 11.8525C19.1303 9.23856 14.8754 9.23856 12.2609 11.8525C10.8399 13.2734 10.1472 15.2262 10.3296 17.201H9.09103C8.91399 17.201 8.74032 17.2225 8.56798 17.254C8.51232 17.264 8.45733 17.2748 8.40301 17.2875C8.27829 17.3177 8.15624 17.3559 8.03688 17.4015C7.93294 17.4404 7.83369 17.4873 7.73579 17.5376C7.68684 17.5631 7.63587 17.5839 7.58826 17.6114L2.30947 12.3319L12.9743 1.89237ZM15.8967 29.26C15.8665 29.2339 15.835 29.2104 15.776 29.1661L9.8233 23.2355H11.3167L19.3636 31.2825H16.1334V29.4598L15.8967 29.26ZM14.7916 38.6588V32.6236H19.9403H20.4412C20.5344 32.6236 20.6263 32.631 20.7175 32.6377L21.2701 33.1903L21.6369 32.8235C23.1128 33.3237 24.179 34.7192 24.179 36.3614V38.6588H14.7916ZM29.5443 38.6588H25.5209V36.3614C25.5209 34.8821 24.8811 33.5524 23.8686 32.6236H29.5443V38.6588ZM23.1785 31.2825L25.6791 28.7819L30.17 24.291C30.2002 24.4962 30.2149 24.7028 30.2149 24.912C30.2149 26.29 29.5792 27.5588 28.4701 28.393L28.2032 28.5941V31.2825H23.1785Z" fill="#2062B0"/>
</svg>
