<svg width="40" height="40" viewBox="0 0 40 40" fill="none" xmlns="http://www.w3.org/2000/svg">
<path d="M39.3098 9.82359C39.3043 9.80359 39.2942 9.78594 39.2869 9.76664C39.2746 9.73086 39.2592 9.69625 39.2411 9.66305C39.1791 9.57531 39.1038 9.49773 39.0182 9.43289C39.0092 9.42734 38.9991 9.42523 38.9901 9.42008C38.9816 9.41531 38.975 9.40797 38.9662 9.40359L20.2994 0.0703125C20.1116 -0.0234375 19.8908 -0.0234375 19.703 0.0703125L1.03641 9.40367C1.02742 9.40812 1.02094 9.41555 1.01234 9.42031C1.0032 9.42531 0.993125 9.4275 0.984375 9.43297C0.965625 9.44656 0.947656 9.46117 0.930469 9.47664C0.909063 9.49195 0.888672 9.50852 0.869297 9.52625C0.845859 9.55055 0.824297 9.57656 0.804844 9.60414C0.789375 9.62297 0.774844 9.64266 0.761484 9.66305C0.743437 9.69602 0.728203 9.73047 0.716016 9.76602C0.707266 9.78484 0.699531 9.80414 0.692734 9.82375C0.676641 9.88109 0.668281 9.94039 0.667969 10V30C0.667891 30.2525 0.810547 30.4834 1.03648 30.5963L19.703 39.9297C19.713 39.9346 19.7242 39.9327 19.7343 39.937C19.9023 40.0209 20.1001 40.0209 20.2681 39.937C20.2782 39.9327 20.2895 39.9346 20.2994 39.9297L38.9661 30.5963C39.192 30.4834 39.3346 30.2525 39.3346 30V10C39.3343 9.94031 39.3259 9.88102 39.3098 9.82359ZM20.0013 1.41211L37.177 10L32.0013 12.5879L14.8255 4L20.0013 1.41211ZM13.3345 4.74547L30.5103 13.3334L29.3345 13.9213L12.1588 5.33336L13.3345 4.74547ZM31.3345 14.4121V15.5879L27.3345 17.5879V16.4121L31.3345 14.4121ZM10.6679 6.07875L27.8437 14.6666L26.6679 15.2545L9.49211 6.66664L10.6679 6.07875ZM19.3345 38.2545L2.00125 29.5879V11.0787L19.3346 19.7454V38.2545H19.3345ZM20.0013 18.5879L2.82547 10L8.00125 7.41211L25.177 16L20.0013 18.5879ZM38.0013 29.5879L20.6679 38.2545V19.7455L26.0012 17.0788V18.6667C26.0013 18.8977 26.1209 19.1123 26.3175 19.2337C26.5141 19.3552 26.7595 19.3663 26.9661 19.263L32.2995 16.5964C32.5253 16.4834 32.668 16.2526 32.668 16.0001V13.7455L38.0013 11.0789V29.5879H38.0013Z" fill="#2062B0"/>
<path d="M32.0717 17.886L26.142 20.8508C25.2363 21.3 24.6647 22.225 24.668 23.2359V23.5878C24.6669 24.0504 24.906 24.4804 25.2995 24.7236C25.6929 24.9668 26.1845 24.9883 26.5977 24.7805L32.5274 21.8157C33.433 21.3665 34.0046 20.4415 34.0013 19.4306V19.0787C34.0015 18.6165 33.7623 18.1872 33.3691 17.9443C32.9759 17.7013 32.4849 17.6792 32.0717 17.886ZM32.668 19.4306C32.6696 19.936 32.3838 20.3984 31.931 20.623L26.0013 23.5879V23.236C25.9997 22.7306 26.2855 22.2682 26.7383 22.0436L32.668 19.0787V19.4306Z" fill="#2062B0"/>
</svg>
