<svg width="40" height="40" viewBox="0 0 40 40" fill="none" xmlns="http://www.w3.org/2000/svg">
<g clip-path="url(#clip0)">
<path d="M33.987 13.3672C33.9866 13.3672 33.9861 13.3672 33.9857 13.3672H0.572699C0.256779 13.3669 0.000334457 13.6226 3.26992e-07 13.9385C3.26992e-07 13.939 3.26992e-07 13.9395 3.26992e-07 13.9399V29.9781C-0.000333803 30.294 0.255442 30.5505 0.571362 30.5508C0.57178 30.5508 0.572281 30.5508 0.572699 30.5508H23.2935C23.6098 30.5508 23.8662 30.2944 23.8662 29.9781C23.8662 29.6619 23.6098 29.4054 23.2935 29.4054H1.1454V14.5126H33.413V15.9447C33.4126 16.2606 33.6684 16.517 33.9843 16.5174C33.9847 16.5174 33.9852 16.5174 33.9857 16.5174C34.3016 16.5177 34.558 16.2619 34.5584 15.946C34.5584 15.9456 34.5584 15.9451 34.5584 15.9447V13.9399C34.5587 13.624 34.3029 13.3676 33.987 13.3672Z" fill="#2062B0"/>
<path d="M30.1016 10.7069L3.37119 4.69257C3.22284 4.65941 3.06739 4.6863 2.93883 4.76741C2.81044 4.84919 2.71964 4.97842 2.68623 5.12694L1.34971 11.1413C1.28105 11.4502 1.47584 11.7562 1.78475 11.8249C2.09365 11.8936 2.39971 11.6988 2.46838 11.3899L3.67993 5.9362L29.8503 11.8242C29.8917 11.8338 29.9341 11.8386 29.9766 11.8383C30.2929 11.8377 30.5488 11.5808 30.5483 11.2646C30.5478 10.9972 30.3624 10.7658 30.1016 10.7069Z" fill="#2062B0"/>
<path d="M26.8549 7.39296L10.8167 0.710366C10.5379 0.594172 10.2167 0.71354 10.0816 0.983684L8.74505 3.65672C8.59411 3.93589 8.69802 4.28464 8.97727 4.43558C9.25644 4.58652 9.60519 4.48261 9.75613 4.20336C9.76206 4.19241 9.76766 4.18122 9.77284 4.16986V4.1712L10.8694 1.97663L26.4125 8.45274C26.7052 8.57486 27.0415 8.4367 27.1636 8.144C27.2857 7.85147 27.1476 7.51517 26.8549 7.39296Z" fill="#2062B0"/>
<path d="M27.2595 16.04H21.9555C21.6393 16.04 21.3828 16.2965 21.3828 16.6127C21.3828 16.929 21.6393 17.1854 21.9555 17.1854H27.2595C27.5757 17.1854 27.8322 16.929 27.8322 16.6127C27.8322 16.2965 27.5757 16.04 27.2595 16.04Z" fill="#2062B0"/>
<path d="M16.6112 16.0781C13.3633 16.0781 10.7305 18.711 10.7305 21.9588C10.7338 25.2052 13.3647 27.8362 16.6112 27.8395C19.859 27.8395 22.4918 25.2066 22.4918 21.9588C22.4918 18.711 19.859 16.0781 16.6112 16.0781ZM16.6112 26.7703C13.9538 26.7703 11.7997 24.6161 11.7997 21.9588C11.8026 19.3027 13.9551 17.1503 16.6112 17.1473C19.2685 17.1473 21.4226 19.3015 21.4226 21.9588C21.4226 24.6161 19.2685 26.7703 16.6112 26.7703Z" fill="#2062B0"/>
<path d="M32.6477 17.9492C29.106 17.9492 25.2969 18.7859 25.2969 20.6223V36.6605C25.2969 38.4968 29.106 39.3335 32.6477 39.3335C36.1895 39.3335 39.9986 38.4968 39.9986 36.6605V20.6223C39.9986 18.7859 36.1895 17.9492 32.6477 17.9492ZM38.6621 36.6504C38.5612 37.0213 36.557 37.997 32.6477 37.997C28.7384 37.997 26.7343 37.0213 26.6334 36.6605V35.61C28.0554 36.3263 30.4044 36.6605 32.6477 36.6605C34.8911 36.6605 37.2407 36.323 38.6621 35.6093V36.6504ZM38.6621 33.9774C38.5612 34.3483 36.557 35.3239 32.6477 35.3239C28.7384 35.3239 26.7343 34.3483 26.6334 33.9874V32.9369C28.0554 33.6533 30.4044 33.9874 32.6477 33.9874C34.8911 33.9874 37.2407 33.65 38.6621 32.9363V33.9774ZM38.6621 31.3044C38.5612 31.6753 36.557 32.6509 32.6477 32.6509C28.7384 32.6509 26.7343 31.6753 26.6334 31.3144V30.2639C28.0554 30.9803 30.4044 31.3144 32.6477 31.3144C34.8911 31.3144 37.2407 30.9769 38.6621 30.2632V31.3044ZM38.6621 28.6313C38.5612 29.0022 36.557 29.9779 32.6477 29.9779C28.7384 29.9779 26.7343 29.0022 26.6334 28.6414V27.5909C28.0554 28.3072 30.4044 28.6414 32.6477 28.6414C34.8911 28.6414 37.2407 28.3039 38.6621 27.5902V28.6313ZM38.6621 25.9583C38.5612 26.3292 36.557 27.3048 32.6477 27.3048C28.7384 27.3048 26.7343 26.3292 26.6334 25.9683V24.9178C28.0554 25.6309 30.4044 25.9683 32.6477 25.9683C34.8911 25.9683 37.2407 25.6309 38.6621 24.9172V25.9583ZM38.6621 23.2853C38.5612 23.6561 36.557 24.6318 32.6477 24.6318C28.7384 24.6318 26.7343 23.6561 26.6334 23.2953V22.2448C28.0554 22.9578 30.4044 23.2953 32.6477 23.2953C34.8911 23.2953 37.2407 22.9578 38.6621 22.2441V23.2853ZM32.6477 21.9588C28.7444 21.9588 26.741 20.9858 26.6334 20.6343V20.6303C26.741 20.2581 28.7444 19.2857 32.6477 19.2857C36.5236 19.2857 38.5284 20.244 38.6621 20.6223C38.5284 21.0005 36.5236 21.9588 32.6477 21.9588Z" fill="#2062B0"/>
<path d="M11.2644 26.7315H6.21298L3.81794 24.112V19.7683L6.46291 17.1854H11.2644C11.5806 17.1854 11.8371 16.929 11.8371 16.6127C11.8371 16.2965 11.5806 16.04 11.2644 16.04H6.23036C6.08067 16.0397 5.93674 16.098 5.8294 16.2024L2.84429 19.114C2.73277 19.2443 2.67163 19.4103 2.67188 19.5818V24.3345C2.67188 24.4774 2.72525 24.6152 2.82157 24.7207L5.5367 27.6905C5.64521 27.8093 5.79875 27.877 5.95971 27.8769H11.2644C11.5806 27.8769 11.8371 27.6205 11.8371 27.3042C11.8371 26.988 11.5807 26.7315 11.2644 26.7315Z" fill="#2062B0"/>
<path d="M16.9444 21.2901H16.2761C16.0683 21.2901 15.942 21.1738 15.942 21.123C15.942 21.0722 16.0683 20.9559 16.2761 20.9559H17.9468C18.3158 20.9559 18.615 20.6567 18.615 20.2877C18.615 19.9186 18.3158 19.6194 17.9468 19.6194H17.2785C17.2785 19.2504 16.9793 18.9512 16.6102 18.9512C16.2412 18.9512 15.942 19.2504 15.942 19.6194V19.6495C15.2008 19.7542 14.6393 20.3719 14.6055 21.1197C14.6533 21.9958 15.3996 22.669 16.2761 22.6266H16.9444C17.1522 22.6266 17.2785 22.7429 17.2785 22.7937C17.2785 22.8444 17.1522 22.9607 16.9444 22.9607H15.2737C14.9047 22.9607 14.6055 23.2599 14.6055 23.629C14.6055 23.998 14.9047 24.2972 15.2737 24.2972H15.942C15.942 24.6663 16.2412 24.9655 16.6102 24.9655C16.9793 24.9655 17.2785 24.6663 17.2785 24.2972V24.2672C18.0197 24.1625 18.5812 23.5448 18.615 22.797C18.5672 21.9208 17.8209 21.2476 16.9444 21.2901Z" fill="#2062B0"/>
</g>
<defs>
<clipPath id="clip0">
<rect width="40" height="40" fill="white"/>
</clipPath>
</defs>
</svg>
