<svg width="40" height="40" viewBox="0 0 40 40" fill="none" xmlns="http://www.w3.org/2000/svg">
<g clip-path="url(#clip0)">
<path d="M3.99885 40H35.9989C36.3535 40.0015 36.6939 39.8604 36.9435 39.6084C37.1931 39.3564 37.331 39.0147 37.3262 38.66V35.9673C37.1049 31.476 34.6595 30.722 34.5609 30.694L25.9989 28.1687V24.4353C26.8742 23.6271 27.4153 22.5205 27.5155 21.3333H29.3322C30.4368 21.3333 31.3322 20.4379 31.3322 19.3333V15.3333C31.3287 14.4888 30.7951 13.7375 29.9989 13.456V9.33333C29.9989 4.01267 25.7002 0 19.9989 0C14.2975 0 9.99885 4.01267 9.99885 9.33333V13.456C9.20262 13.7375 8.66902 14.4888 8.66552 15.3333V19.3333C8.66902 20.1779 9.20262 20.9292 9.99885 21.2107V22C9.99885 23.4728 11.1928 24.6667 12.6655 24.6667H13.9989V28.1687L5.44219 30.6927C5.33819 30.722 2.89419 31.476 2.67219 36V38.6487C2.66446 39.0051 2.80094 39.3496 3.0507 39.604C3.30046 39.8584 3.64234 40.0012 3.99885 40ZM11.3322 10.7333C12.1784 6.6669 15.8494 3.81477 19.9989 4C24.1441 3.82798 27.8076 6.67424 28.6655 10.7333V13.3333H27.8415C27.1749 10.5233 25.8869 9.66067 25.7395 9.57067C23.8842 8.45733 18.0775 8.64133 15.9022 8.78067C15.2707 8.80437 14.6703 9.06055 14.2162 9.5C13.2388 10.5913 12.5483 11.9087 12.2069 13.3333H11.3322V10.7333ZM15.3322 25.8533C16.4229 27.2667 16.9362 28.6667 18.9469 28.6667C21.9689 28.6667 22.5115 28.944 24.0835 26.658C24.2602 26.4013 24.4522 26.1287 24.6662 25.85V28.5613C23.5942 31.398 16.3815 31.374 15.3329 28.5613L15.3322 25.8533ZM24.8122 23.728C22.7322 25.5953 22.6715 27.3333 21.0502 27.3333C18.1709 27.3333 18.1902 27.6133 17.0129 25.9027C16.7589 25.5333 16.4589 25.11 16.0869 24.6667H17.5175C17.7538 25.0778 18.1913 25.3319 18.6655 25.3333H21.3322C22.0686 25.3333 22.6655 24.7364 22.6655 24V22.6667C22.6655 21.9303 22.0686 21.3333 21.3322 21.3333H18.6655C17.9291 21.3333 17.3322 21.9303 17.3322 22.6667V23.3333H14.7989C13.7322 22.174 13.7589 21.1493 13.8055 19.8867C13.8898 18.9119 13.8253 17.93 13.6142 16.9747C13.3562 15.6287 13.1942 14.708 13.5142 13.5993C13.8004 12.4296 14.3656 11.3465 15.1615 10.4427C15.386 10.2351 15.6785 10.1166 15.9842 10.1093C18.1522 9.97 23.0669 9.80533 25.0575 10.716C25.8495 11.3307 26.8202 13.462 26.6609 15.158C26.5075 16.7667 26.1695 17.558 26.1695 18.8247C26.1682 20.8967 26.5815 22.1333 24.8115 23.7247L24.8122 23.728ZM18.6655 24V22.6667H21.3322V24H18.6655ZM29.9989 19.3333C29.9989 19.7015 29.7004 20 29.3322 20H27.5322C27.4302 17.142 27.7435 17.8667 27.9869 15.2873C28.0022 15.0808 28.0062 14.8736 27.9989 14.6667H29.3322C29.7004 14.6667 29.9989 14.9651 29.9989 15.3333V19.3333ZM28.2149 6.656C26.7855 4.66667 24.2842 2.66667 19.9989 2.66667C15.7135 2.66667 13.2122 4.66667 11.7829 6.656C14.2655 -0.463333 25.7322 -0.453333 28.2149 6.656ZM9.99885 15.3333C9.99885 14.9651 10.2973 14.6667 10.6655 14.6667H12.0075C12.017 15.5273 12.116 16.3845 12.3029 17.2247C12.5024 18.1355 12.5573 19.0721 12.4655 20H10.6655C10.2973 20 9.99885 19.7015 9.99885 19.3333V15.3333ZM11.3322 22V21.3333H12.4822C12.5379 22.0408 12.7577 22.7256 13.1242 23.3333H12.6655C11.9291 23.3333 11.3322 22.7364 11.3322 22ZM5.81552 31.9727L14.2982 29.47C14.8262 30.4 16.2729 32 19.9989 32C23.7249 32 25.1715 30.4 25.6995 29.4667L34.1735 31.9667C34.2402 31.9893 35.8255 32.5667 35.9955 35.9967V38.6667H4.00552V36.0327C4.17619 32.5667 5.75752 31.9927 5.81552 31.9727Z" fill="#2062B0"/>
</g>
<defs>
<clipPath id="clip0">
<rect width="40" height="40" fill="white"/>
</clipPath>
</defs>
</svg>
