<svg width="38" height="40" viewBox="0 0 38 40" fill="none" xmlns="http://www.w3.org/2000/svg">
<path d="M1.70064 5.23066C2.20356 5.39977 2.7532 5.36088 3.22731 5.12266L3.81731 4.82733L12.4313 31.286C12.5902 31.7646 12.9234 32.1658 13.3646 32.41C12.1173 33.9566 11.9861 36.1234 13.0376 37.8093C14.0891 39.4951 16.0927 40.3303 18.0303 39.8904C19.9679 39.4506 21.4145 37.8321 21.635 35.8574C21.8555 33.8828 20.8015 31.9851 19.0086 31.1287L35.6666 25.218C36.3607 24.9956 36.8789 24.4133 37.0191 23.6981C37.1593 22.9829 36.8994 22.2481 36.3406 21.7801C35.7819 21.3121 35.0128 21.1851 34.3333 21.4487L32.5606 22.0773L28.34 10.06C28.2814 9.89317 28.1589 9.75646 27.9995 9.67994C27.8401 9.60343 27.6568 9.59338 27.49 9.652L25.4566 10.3653L22.692 2.488C22.6334 2.32117 22.5109 2.18446 22.3515 2.10794C22.1921 2.03143 22.0088 2.02137 21.842 2.08L18.4666 3.26666L15.9333 4.15533L12.56 5.33933C12.3932 5.39794 12.2564 5.52042 12.1799 5.67982C12.1034 5.83923 12.0934 6.02251 12.152 6.18933L14.922 14.0667L13.6513 14.5127C13.3043 14.6347 13.1217 15.0148 13.2433 15.362L17.48 27.4287L15.5993 28.0953L6.90131 1.38066C6.72112 0.827032 6.30863 0.379401 5.77154 0.154654C5.23445 -0.070093 4.62609 -0.0496437 4.10531 0.210662L1.43864 1.544C0.714821 1.90564 0.280218 2.66779 0.337576 3.47489C0.394934 4.28199 0.932952 4.97501 1.70064 5.23066ZM22.2706 12.8973L23.404 16.1247L22.2826 15.838C22.0219 15.7712 21.7466 15.8677 21.5846 16.0827L20.888 17.008L19.7546 13.7807L21.0133 13.3387L22.2706 12.8973ZM18.832 6.312L18.4773 6.222C18.2166 6.15517 17.9413 6.25168 17.7793 6.46666L17.56 6.75866L17.0093 5.19L17.6453 4.96666L18.2806 4.74333L18.832 6.312ZM15.7513 5.63133L16.7146 8.37533C16.7958 8.60751 16.9983 8.77613 17.2413 8.814C17.2751 8.81909 17.3092 8.82154 17.3433 8.82133C17.5531 8.82133 17.7507 8.72253 17.8766 8.55466L18.578 7.62133L19.7113 7.91C19.9495 7.97081 20.2018 7.89564 20.3678 7.7144C20.5338 7.53316 20.5867 7.27526 20.5053 7.04333L19.5386 4.30133L21.6546 3.55866L24.1733 10.7333L16.154 13.5493L13.6353 6.374L15.7513 5.63133ZM18.496 14.222L20.042 18.6253C20.1235 18.8571 20.3259 19.0253 20.5688 19.0629C20.8116 19.1006 21.0554 19.0016 21.2033 18.8053L22.382 17.24L24.2793 17.7253C24.5176 17.7865 24.7701 17.7114 24.9364 17.5301C25.1026 17.3488 25.1555 17.0907 25.074 16.8587L23.5286 12.4587L27.3026 11.1333L31.2773 22.4533L18.6966 26.8667L14.722 15.5467L18.496 14.222ZM17 32C18.7136 31.9778 20.1722 33.2425 20.3929 34.942C20.6137 36.6415 19.5266 38.2369 17.8642 38.6532C16.2018 39.0695 14.4911 38.1748 13.8848 36.5719C13.2785 34.969 13.9688 33.1661 15.4906 32.378L16.3793 32.0627C16.5838 32.0224 16.7916 32.0015 17 32ZM2.03464 2.73666L4.70131 1.40333C4.87503 1.31608 5.07818 1.309 5.25755 1.38395C5.43692 1.45891 5.57464 1.60842 5.63464 1.79333L14.5433 29.1587C14.599 29.3296 14.7213 29.4709 14.8826 29.5504C15.0439 29.6298 15.2305 29.6407 15.4 29.5807L34.7773 22.7047C35.0313 22.6156 35.3138 22.688 35.4937 22.8881C35.6736 23.0883 35.7155 23.377 35.6 23.62C35.5247 23.78 35.3882 23.903 35.2213 23.9613L16.0546 30.7613C15.6485 30.8465 15.2556 30.9859 14.8866 31.176L14.5533 31.294C14.3838 31.3541 14.1973 31.3431 14.036 31.2637C13.8747 31.1842 13.7523 31.043 13.6966 30.872L4.84531 3.67866C4.78479 3.4937 4.64646 3.34442 4.46664 3.27C4.38504 3.23626 4.29761 3.21882 4.20931 3.21866C4.10615 3.21753 4.00415 3.24035 3.91131 3.28533L2.63131 3.93333C2.30178 4.09901 1.90033 3.96619 1.73464 3.63666C1.56896 3.30713 1.70178 2.90568 2.03131 2.74L2.03464 2.73666Z" fill="#2062B0"/>
</svg>
