<svg width="40" height="34" viewBox="0 0 40 34" fill="none" xmlns="http://www.w3.org/2000/svg">
<path d="M26.0001 25.3334H14.0001C13.6001 25.3334 13.3335 25.6 13.3335 26V30C13.3335 30.4 13.6001 30.6667 14.0001 30.6667H26.0001C26.4001 30.6667 26.6668 30.4 26.6668 30V26C26.6668 25.6 26.4001 25.3334 26.0001 25.3334ZM25.3335 29.3334H14.6668V26.6667H25.3334V29.3334H25.3335Z" fill="#2062B0"/>
<path d="M26.3335 13.4L23.1335 15.3333C22.0002 16 20.8002 16.6 19.6669 17.1333C19.3335 17.2667 18.9335 17.4667 18.5335 17.6667C17.1335 18.4 16.4002 19.9333 16.7335 21.4667C17.0002 22.6667 18.0002 23.6667 19.2002 23.9333C19.4668 24 19.7335 24 20.0002 24C21.2668 24 22.4002 23.2666 23.0002 22.1333C23.1335 21.8 23.3335 21.4 23.5335 21C24.1335 19.8666 24.6669 18.6666 25.3335 17.5333L27.2669 14.3333C27.4003 14.0667 27.3335 13.8 27.1335 13.5333C26.9335 13.2666 26.6002 13.2666 26.3335 13.4ZM24.2002 16.8C23.4668 18 22.8668 19.2 22.3335 20.4C22.2002 20.8 22.0002 21.1333 21.8002 21.5333C21.4002 22.4 20.4668 22.8 19.5335 22.6C18.8002 22.4666 18.2002 21.8666 18.0669 21.1333C17.8669 20.2 18.2669 19.2667 19.1335 18.8667C19.4669 18.6667 19.8669 18.5333 20.2669 18.3333C21.4669 17.7333 22.7335 17.1333 23.8669 16.4667L24.7335 15.9333L24.2002 16.8Z" fill="#2062B0"/>
<path d="M38.5718 13.2662C38.5634 13.2213 38.5507 13.1766 38.5334 13.1332C38.5159 13.0896 38.4938 13.0497 38.468 13.0131C37.469 10.6213 36.0176 8.46117 34.222 6.64086C34.1967 6.60321 34.1673 6.56711 34.1334 6.53321C34.0995 6.4993 34.0634 6.46985 34.0257 6.44453C30.4088 2.87696 25.4503 0.666565 20 0.666565C17.3892 0.666565 14.8915 1.17438 12.5996 2.09477C12.5547 2.10321 12.5101 2.11586 12.4667 2.13321C12.4232 2.15063 12.3832 2.17281 12.3466 2.1986C9.95477 3.19758 7.79469 4.64899 5.97437 6.44453C5.93672 6.46985 5.90063 6.4993 5.86672 6.53321C5.83281 6.56711 5.80328 6.60321 5.77805 6.64086C2.21039 10.2577 0 15.2163 0 20.6666C0 25.1999 1.46664 29.5332 4.33336 33.0666C4.46672 33.2666 4.66672 33.3332 4.86672 33.3332H35.1334C35.3334 33.3332 35.5334 33.2666 35.6667 33.0666C38.5334 29.5333 40 25.1999 40 20.6666C40 18.0558 39.4922 15.558 38.5718 13.2662ZM34.8666 31.9999H5.2C4.29852 30.8374 3.54984 29.5902 2.9582 28.2799L4.8 27.5333C5.13336 27.3999 5.26664 26.9999 5.13336 26.6666C5 26.3333 4.6 26.2 4.26672 26.3333L2.46125 27.0652C1.79141 25.2416 1.41484 23.3136 1.34578 21.3333H6C6.4 21.3333 6.66664 21.0666 6.66664 20.6666C6.66664 20.2666 6.4 19.9999 6 19.9999H1.34664C1.42141 17.8978 1.84789 15.8816 2.56914 14.0082L4.4 14.7999C4.46664 14.8666 4.6 14.8666 4.66664 14.8666C4.93328 14.8666 5.13328 14.7332 5.26664 14.4666C5.4 14.1332 5.26664 13.7332 4.93328 13.5999L3.08391 12.8002C3.91977 11.0165 5.02969 9.38446 6.35906 7.95899L7.73328 9.33321C7.86664 9.46657 7.99992 9.53321 8.19992 9.53321C8.39992 9.53321 8.53328 9.46657 8.66656 9.33321C8.9332 9.06656 8.9332 8.66657 8.66656 8.39985L7.29234 7.02563C8.78586 5.63282 10.5057 4.48024 12.3895 3.63203L13.1333 5.46657C13.1999 5.73321 13.4666 5.86656 13.7333 5.86656C13.7999 5.86656 13.8666 5.86657 13.9999 5.79992C14.3333 5.66656 14.4666 5.26656 14.3333 4.93328L13.6045 3.13547C15.403 2.4743 17.3294 2.08453 19.3333 2.01328V6.66664C19.3333 7.06664 19.5999 7.33328 19.9999 7.33328C20.3999 7.33328 20.6666 7.06664 20.6666 6.66664V2.01321C22.7687 2.08797 24.7849 2.51446 26.6583 3.23571L25.8666 5.06664C25.7332 5.4 25.8666 5.8 26.1999 5.93328C26.2666 5.99992 26.3999 5.99992 26.4666 5.99992C26.7332 5.99992 26.9999 5.79992 27.0666 5.59992L27.8663 3.75055C29.65 4.58641 31.282 5.69633 32.7075 7.02571L31.3333 8.39992C31.0666 8.66656 31.0666 9.06657 31.3333 9.33328C31.4666 9.46664 31.5999 9.53328 31.7999 9.53328C31.9333 9.53328 32.1333 9.46664 32.2666 9.33328L33.6408 7.95906C35.0336 9.45258 36.1862 11.1724 37.0344 13.0563L35.1998 13.8C34.8665 13.9334 34.7332 14.3334 34.8665 14.6666C34.9331 14.9333 35.1998 15.0666 35.4665 15.0666C35.5331 15.0666 35.5998 15 35.7331 15L37.531 14.2712C38.1922 16.0697 38.582 17.9961 38.6532 20H34C33.6 20 33.3334 20.2666 33.3334 20.6666C33.3334 21.0666 33.6 21.3333 34 21.3333H38.6543C38.5819 23.4109 38.1721 25.4309 37.4498 27.3332L35.6 26.5333C35.2666 26.3999 34.8666 26.5333 34.7334 26.8666C34.6 27.2 34.7334 27.6 35.0667 27.7333L36.9402 28.5434C36.3784 29.7576 35.6854 30.9156 34.8666 31.9999Z" fill="#2062B0"/>
</svg>
