<svg width="40" height="36" viewBox="0 0 40 36" fill="none" xmlns="http://www.w3.org/2000/svg">
<path d="M39.9927 12C39.9267 10.8593 38.57 9.968 35.8567 9.288C35.948 9.088 35.9993 8.88 36 8.664V4H35.9887C35.75 0.114667 19.8287 0 18 0C16.1713 0 0.25 0.114667 0.0113333 4H0V4.08667V8.666C0.00333333 9.93267 1.638 10.924 4.07 11.662C4.03667 11.7727 4.01667 11.8853 4.01 12H4V12.0867V16.658C1.38 17.3327 0.0713333 18.2113 0.00666667 19.3333H0V19.42V23.9993C0.002 24.8813 0.797333 25.6293 2.09867 26.2527C2.04933 26.388 2.01867 26.526 2.01 26.6673H2V26.754V31.3333C2.00533 33.5507 6.998 34.9273 12.5453 35.57C12.586 35.578 12.6233 35.5947 12.6667 35.5947C12.6793 35.5947 12.69 35.588 12.7027 35.5873C13.772 35.708 14.8587 35.802 15.934 35.8693C15.9567 35.872 15.9767 35.8827 16 35.8827C16.0127 35.8827 16.0227 35.876 16.0347 35.8753C17.4 35.958 18.7433 36 20 36C21.2567 36 22.6 35.958 23.9653 35.8747C23.9773 35.8753 23.988 35.882 24 35.882C24.0233 35.882 24.0433 35.8707 24.066 35.8687C25.1413 35.8013 26.228 35.708 27.2973 35.5867C27.31 35.5867 27.3207 35.5933 27.3333 35.5933C27.3767 35.5933 27.414 35.5767 27.4547 35.5687C33.002 34.926 37.994 33.5487 38 31.3307V26.6667H37.9893C37.9427 25.8493 37.246 25.1673 35.87 24.5973C35.954 24.4047 36 24.2047 36 23.9973V19.64C38.3933 18.904 39.9967 17.9193 40 16.664V12H39.9927ZM34.5947 24.214L34.3673 24.4133C34.0173 24.722 33.434 25.0333 32.6667 25.3333V22.1547C33.4593 21.8787 34.134 21.5727 34.6667 21.2373V23.996C34.6667 24.0647 34.6413 24.138 34.5947 24.214ZM19.684 27.312C19.5867 27.3147 19.4887 27.316 19.3907 27.318C19.1527 27.3227 18.9087 27.324 18.6673 27.326V23.996C18.8507 23.994 19.034 23.9913 19.2173 23.988C19.2527 23.9873 19.288 23.9867 19.3233 23.986C19.9947 23.9733 20.666 23.9527 21.334 23.922V27.2507C21.1913 27.258 21.048 27.2647 20.9033 27.2707C20.502 27.2887 20.0967 27.302 19.684 27.312ZM16.7727 27.3213C16.4673 27.316 16.1633 27.3087 15.8613 27.2993C15.824 27.298 15.7867 27.2967 15.7493 27.2953C15.386 27.2833 15.0253 27.268 14.6673 27.2507V23.9227C15.3353 23.954 16.0067 23.9747 16.678 23.9867C16.7133 23.9873 16.7487 23.988 16.7833 23.9887C16.9667 23.992 17.15 23.9947 17.3333 23.9967V27.3287C17.204 27.3273 17.0747 27.3273 16.946 27.3253C16.8873 27.324 16.8307 27.322 16.7727 27.3213ZM4.73133 25.8013C4.70933 25.7947 4.68867 25.7887 4.66667 25.7827V22.562C5.28933 22.73 5.95867 22.8833 6.66667 23.0227V26.2767C6.05467 26.1467 5.49 26.01 4.976 25.87C4.89467 25.8467 4.81067 25.8247 4.73133 25.8013ZM18.7833 31.322C18.9667 31.3253 19.15 31.328 19.3333 31.33V34.6627C18.412 34.654 17.5227 34.6273 16.6667 34.5853V31.2567C17.3347 31.288 18.006 31.3087 18.6773 31.3207C18.7127 31.3207 18.748 31.3213 18.7833 31.322ZM21.3227 31.32C21.994 31.3073 22.6653 31.2867 23.3333 31.256V34.5847C22.4773 34.6267 21.588 34.6533 20.6667 34.662V31.3293C20.85 31.3273 21.0333 31.3247 21.2167 31.3213C21.252 31.3213 21.2873 31.3207 21.3227 31.32ZM26.6667 31.0187V34.3293C26.026 34.3967 25.3593 34.456 24.6667 34.5047V31.18C25.3427 31.136 26.0107 31.082 26.6667 31.0187ZM28 30.8747C28.6873 30.792 29.3547 30.698 30 30.5933V33.8667C29.372 33.9773 28.7047 34.0793 28 34.172V30.8747ZM31.3333 30.3553C32.0413 30.216 32.7107 30.0627 33.3333 29.8947V33.1153C32.7393 33.2867 32.0707 33.4527 31.3333 33.6093V30.3553ZM8.66667 30.3553V33.6093C7.92933 33.4527 7.26067 33.2867 6.66667 33.1153V29.8947C7.28933 30.0627 7.95867 30.2167 8.66667 30.3553ZM10 30.594C10.6453 30.6987 11.3127 30.7927 12 30.8753V34.1727C11.2953 34.08 10.628 33.978 10 33.8673V30.594ZM13.3333 31.0187C13.9893 31.082 14.6573 31.136 15.3333 31.1807V34.5053C14.6407 34.4567 13.974 34.3973 13.3333 34.33V31.0187ZM11.6793 27.032C11.6113 27.0253 11.544 27.018 11.4767 27.0113C11.4287 27.0067 11.3813 27.0007 11.3333 26.996V23.686C11.9893 23.7493 12.6573 23.8033 13.3333 23.848V27.17C12.7733 27.13 12.22 27.0847 11.6793 27.032ZM10 23.5413V26.8387C9.29533 26.746 8.628 26.644 8 26.5333V23.26C8.64533 23.3647 9.31267 23.4593 10 23.5413ZM23.1107 27.1387C22.964 27.15 22.816 27.1613 22.6667 27.172V23.8473C23.3427 23.8027 24.0107 23.7493 24.6667 23.6853V26.996C24.2547 27.0393 23.8333 27.08 23.4007 27.1153C23.304 27.124 23.2073 27.1313 23.1107 27.1387ZM26 26.8387V23.5413C26.6873 23.4587 27.3547 23.3647 28 23.26V26.5333C27.372 26.644 26.7047 26.7467 26 26.8387ZM29.3333 23.022C30.0413 22.8827 30.7107 22.7293 31.3333 22.5613V25.782C30.7393 25.9533 30.0707 26.1193 29.3333 26.276V23.022ZM20.2167 19.9767C19.7153 19.964 19.2253 19.9447 18.744 19.9213C18.718 19.92 18.692 19.9187 18.6667 19.918V16.5893C19.3347 16.6207 20.006 16.6413 20.6773 16.6533C20.7127 16.654 20.748 16.6547 20.7827 16.6553C20.966 16.6587 21.1493 16.6613 21.3327 16.6633V19.992C21.008 19.9887 20.6807 19.9873 20.364 19.98C20.3153 19.9787 20.2653 19.978 20.2167 19.9767ZM4.66667 10.4493V7.22867C5.28933 7.39667 5.95867 7.55 6.66667 7.68933V10.9433C6.58467 10.926 6.5 10.9087 6.42 10.8913C6.06533 10.8133 5.71933 10.732 5.38867 10.646C5.13667 10.5813 4.89733 10.5153 4.66667 10.4493ZM16.7833 8.65533C16.9667 8.65867 17.15 8.66133 17.3333 8.66333V11.992C16.436 11.9833 15.544 11.96 14.6667 11.916V8.59C15.3347 8.62133 16.006 8.642 16.6773 8.654C16.7127 8.654 16.748 8.65467 16.7833 8.65533ZM19.3227 8.65333C19.994 8.64067 20.6653 8.62 21.3333 8.58933V11.9153C21.22 11.9207 21.1113 11.9287 20.9973 11.934C20.988 11.9347 20.9787 11.9347 20.9687 11.9353C20.5213 11.9553 20.0653 11.97 19.6033 11.9807C19.5313 11.9827 19.4593 11.9833 19.3873 11.9853C19.15 11.99 18.9073 11.9907 18.6667 11.9933V8.66333C18.85 8.66133 19.0333 8.65867 19.2167 8.65533C19.252 8.65467 19.2873 8.654 19.3227 8.65333ZM34.514 8.988L34.4953 8.984L34.2527 9.17267C33.9007 9.44667 33.36 9.724 32.6667 9.992V6.82067C33.4593 6.54467 34.134 6.23867 34.6667 5.90333V8.662C34.6667 8.76333 34.6133 8.87267 34.514 8.988ZM26 11.5013V8.208C26.6873 8.12533 27.3547 8.03133 28 7.92667V11.1947C27.368 11.3067 26.7027 11.4093 26 11.5013ZM29.3333 10.938V7.68933C30.0413 7.55 30.7107 7.39667 31.3333 7.22867V10.442C30.736 10.616 30.0633 10.782 29.3333 10.938ZM24.6667 8.352V11.6587C24.0227 11.7267 23.356 11.786 22.6667 11.8353V8.514C23.3427 8.46933 24.0107 8.41533 24.6667 8.352ZM11.3333 11.66V8.352C11.9893 8.41533 12.6573 8.46933 13.3333 8.514V11.8327C12.6547 11.784 11.9853 11.7287 11.3333 11.66ZM10 8.208V11.502C9.868 11.4847 9.73067 11.4707 9.6 11.4527C9.51467 11.4407 9.43333 11.428 9.34933 11.416C8.964 11.3607 8.58733 11.3013 8.218 11.2393C8.144 11.2267 8.07267 11.2133 8 11.2007V7.92733C8.64533 8.03133 9.31267 8.126 10 8.208ZM17.168 19.826C17.078 19.8193 16.9873 19.8127 16.898 19.806C16.4713 19.7727 16.0547 19.736 15.648 19.6953C15.5607 19.6867 15.4733 19.6773 15.3867 19.6687C15.3687 19.6667 15.3513 19.664 15.3333 19.6627V16.352C15.9893 16.4153 16.6573 16.4693 17.3333 16.514V19.8367C17.2793 19.8327 17.222 19.83 17.168 19.826ZM12.7633 19.328C12.4993 19.286 12.2513 19.2407 12 19.1967V15.9273C12.6453 16.032 13.3127 16.126 14 16.2087V19.506C13.592 19.452 13.1927 19.396 12.8093 19.336C12.794 19.3327 12.7787 19.33 12.7633 19.328ZM10.6667 15.6887V18.9373C9.93 18.7793 9.262 18.6113 8.66667 18.4367V15.228C9.28933 15.396 9.95867 15.55 10.6667 15.6887ZM7.33333 14.8207V17.988C6.28533 17.5833 5.60933 17.17 5.38933 16.802L5.34467 16.7273C5.34067 16.7067 5.334 16.6847 5.33333 16.664V13.9033C5.866 14.2387 6.54067 14.5447 7.33333 14.8207ZM23.3227 16.6533C23.994 16.6407 24.6653 16.62 25.3333 16.5893V19.9147C24.4573 19.958 23.5667 19.982 22.6667 19.9913V16.6633C22.85 16.6613 23.0333 16.6587 23.2167 16.6553C23.252 16.6547 23.2873 16.654 23.3227 16.6533ZM31.938 19.2113C31.6453 19.262 31.35 19.312 31.0467 19.358C30.8727 19.3847 30.6947 19.41 30.516 19.4353C30.3473 19.4593 30.172 19.48 30.0007 19.502V16.208C30.688 16.1253 31.3553 16.0313 32.0007 15.9267V19.2C31.9793 19.204 31.9587 19.208 31.938 19.2113ZM27.424 19.7807C27.1753 19.8013 26.9187 19.8147 26.6667 19.8327V16.514C27.3427 16.4693 28.0107 16.416 28.6667 16.352V19.6593C28.2793 19.7 27.8927 19.7407 27.4947 19.774C27.4707 19.776 27.448 19.7787 27.424 19.7807ZM35.0427 18.5307C34.7107 18.6233 34.3593 18.71 34.0007 18.7947C33.8347 18.8333 33.6653 18.872 33.492 18.9093C33.4407 18.9207 33.386 18.9307 33.334 18.942V15.6893C34.042 15.55 34.7113 15.3967 35.334 15.2287V18.4493C35.238 18.476 35.1413 18.5033 35.0427 18.5307ZM38.6593 12.0433C38.598 12.496 37.572 13.098 35.7407 13.664C33.382 14.3927 29.6913 15.06 25.014 15.2667C24.7747 15.2767 24.536 15.2867 24.292 15.2947C24.0927 15.3013 23.8927 15.3073 23.6893 15.3127C23.1373 15.3247 22.5773 15.3333 22 15.3333C21.4227 15.3333 20.8627 15.3247 20.3107 15.312C20.108 15.3073 19.908 15.3007 19.708 15.294C19.4633 15.2867 19.2247 15.276 18.986 15.266C14.3087 15.0593 10.6173 14.392 8.25933 13.6633C6.44267 13.102 5.41867 12.5047 5.34267 12.054C5.346 12.0413 5.346 12.0307 5.354 12.0147C5.39933 12.026 5.45 12.0353 5.496 12.0467C5.75667 12.1087 6.024 12.1687 6.296 12.226C7.62067 12.5113 9.08867 12.7453 10.6527 12.924C10.658 12.924 10.662 12.9267 10.6667 12.9267C10.668 12.9267 10.6693 12.926 10.67 12.926C11.7353 13.0473 12.8407 13.1427 13.9753 13.21C13.984 13.21 13.9913 13.2147 14 13.2147C14.0047 13.2147 14.008 13.212 14.0127 13.212C14.8293 13.26 15.6567 13.2953 16.494 13.314C17.0067 13.3267 17.51 13.3333 18 13.3333C18.35 13.3333 18.7087 13.3293 19.0707 13.3227C23.9147 13.248 28.404 12.672 31.528 11.7793C31.672 11.7387 31.8127 11.6967 31.9513 11.6547C32.036 11.6287 32.1227 11.6033 32.2047 11.5773C32.446 11.5 32.6773 11.4207 32.9007 11.338C32.9393 11.3233 32.976 11.3087 33.0147 11.294C33.2033 11.2227 33.3847 11.1487 33.558 11.0733C33.608 11.0513 33.6593 11.03 33.708 11.008C33.8927 10.9247 34.0713 10.8393 34.2367 10.7507C34.3113 10.7113 34.376 10.6707 34.446 10.6307C34.526 10.5847 34.606 10.538 34.68 10.4907C34.722 10.464 34.772 10.4387 34.812 10.412C37.7967 11.0593 38.5833 11.7673 38.6593 12.0433ZM18 1.33333C28.9927 1.33333 34.5527 3.064 34.6567 4.05733C34.576 4.508 33.5527 5.10333 31.7407 5.66333C29.382 6.392 25.6913 7.05933 21.014 7.266C20.7747 7.276 20.536 7.286 20.292 7.294C20.0927 7.30067 19.8927 7.30667 19.6893 7.312C19.1373 7.32467 18.5773 7.33333 18 7.33333C17.4227 7.33333 16.8627 7.32467 16.3107 7.312C16.108 7.30733 15.908 7.30067 15.708 7.294C15.4633 7.28667 15.2247 7.276 14.986 7.266C10.3087 7.05933 6.61733 6.392 4.25933 5.66333C2.44667 5.10333 1.424 4.508 1.34333 4.05733C1.44733 3.064 7.00733 1.33333 18 1.33333ZM1.33333 8.664V5.90333C1.866 6.23867 2.54067 6.54467 3.33333 6.82067V10.0127C2.03667 9.52667 1.33467 9.03933 1.33333 8.664ZM4.56267 17.89C4.57267 17.9007 4.588 17.91 4.598 17.9207C5.51067 18.842 7.40067 19.566 9.75333 20.106C9.80733 20.1187 9.86467 20.1307 9.91933 20.1433C10.092 20.182 10.2673 20.22 10.4447 20.2567C12.6053 20.7167 15.1847 21.0493 17.9947 21.214C17.9967 21.214 17.998 21.2147 17.9993 21.2147C18.0007 21.2147 18.0013 21.214 18.002 21.214C18.9047 21.2667 19.828 21.3033 20.7707 21.3193C21.188 21.328 21.5987 21.3333 22 21.3333C22.46 21.3333 22.932 21.328 23.412 21.3167C24.284 21.2987 25.1433 21.2627 25.9907 21.2133C25.994 21.2133 25.9967 21.2153 26 21.2153C26.006 21.2153 26.0107 21.212 26.0167 21.212C28.834 21.046 31.4773 20.71 33.7127 20.2267C33.2287 20.48 32.566 20.742 31.7407 20.9973C29.2507 21.7667 25.274 22.4673 20.22 22.63C20.07 22.6347 19.922 22.64 19.77 22.644C19.6067 22.648 19.4407 22.6507 19.2747 22.654C18.8553 22.6607 18.4333 22.6667 18 22.6667C17.4227 22.6667 16.8627 22.658 16.3107 22.6453C16.108 22.6407 15.908 22.634 15.708 22.6273C15.4633 22.62 15.2247 22.6093 14.986 22.5993C10.3087 22.3927 6.61733 21.7253 4.25933 20.9967C2.426 20.43 1.4 19.8273 1.34067 19.3747C1.41467 19.124 2.08867 18.4967 4.56267 17.89ZM1.33333 23.9973V21.2367C1.866 21.572 2.54067 21.878 3.33333 22.154V25.3333L2.95267 25.1853L2.94467 25.1933C1.898 24.7593 1.33467 24.3333 1.33333 23.9973ZM3.33333 31.3307V28.57C3.866 28.9053 4.54067 29.2113 5.33333 29.4873V32.6793C4.03667 32.1933 3.33467 31.706 3.33333 31.3307ZM34.6667 32.6793V29.488C35.4593 29.212 36.134 28.906 36.6667 28.5707V31.3293C36.666 31.7047 35.9633 32.1927 34.6667 32.6793ZM36.658 26.718C36.5853 27.1693 35.5613 27.768 33.7407 28.3307C31.382 29.0593 27.6913 29.7267 23.014 29.9333C22.7747 29.9433 22.536 29.9533 22.292 29.9613C22.0927 29.968 21.8927 29.974 21.6893 29.9793C21.1373 29.9913 20.5773 30 20 30C19.4227 30 18.862 29.9913 18.3093 29.9787C18.1087 29.974 17.9107 29.9673 17.7127 29.9607C17.4667 29.9527 17.2267 29.9427 16.986 29.9327C12.3087 29.726 8.618 29.0587 6.25933 28.33C4.496 27.7853 3.47733 27.2067 3.34933 26.76C3.548 26.8293 3.754 26.8967 3.96533 26.9627C3.98667 26.9693 4.008 26.976 4.02933 26.982C4.20933 27.0373 4.39333 27.0907 4.582 27.1427C4.65333 27.1627 4.72533 27.1827 4.798 27.202C4.90467 27.2307 5.014 27.258 5.12333 27.286C7.55133 27.908 10.6507 28.3487 13.9967 28.5467C13.998 28.5467 13.9987 28.5473 14 28.5473C14.0007 28.5473 14.0013 28.5467 14.002 28.5467C15.0353 28.608 16.0907 28.646 17.1573 28.6587C17.4413 28.664 17.7233 28.6667 18 28.6667C18.3673 28.6667 18.7433 28.662 19.124 28.6553C20.0967 28.6393 21.0567 28.6033 21.9953 28.5473C21.9973 28.5473 21.9987 28.5487 22.0007 28.5487C22.004 28.5487 22.006 28.5467 22.0093 28.5467C23.1527 28.478 24.2593 28.38 25.3227 28.258C25.3267 28.258 25.33 28.26 25.334 28.26C25.3487 28.26 25.3607 28.2527 25.3753 28.2513C26.5593 28.1147 27.682 27.9467 28.724 27.7513C28.9387 27.712 29.15 27.6713 29.3593 27.6293C29.406 27.62 29.4527 27.6107 29.4993 27.6007C31.468 27.1967 33.172 26.6733 34.3413 26.0247C34.4053 25.99 34.4653 25.954 34.526 25.9187C34.6 25.8747 34.6707 25.83 34.7393 25.7847C34.8033 25.7433 34.8773 25.7033 34.936 25.6613C36.252 26.1307 36.6147 26.5507 36.658 26.718ZM36.6667 18.0127V14.8213C37.4593 14.5453 38.134 14.2393 38.6667 13.904V16.6627C38.666 17.038 37.9633 17.526 36.6667 18.0127Z" fill="#2062B0"/>
</svg>
