<svg width="40" height="38" viewBox="0 0 40 38" fill="none" xmlns="http://www.w3.org/2000/svg">
<path d="M37.3333 23.9999H32.9953L28.8067 18.5546L26.9307 16.1159C26.5507 15.624 25.9649 15.3352 25.3433 15.3333H25.3333V9.99994C25.3333 9.26356 24.7364 8.66661 24 8.66661H22.6667V1.33327C22.6667 0.596893 22.0697 -6.10352e-05 21.3333 -6.10352e-05H14.6667C13.9303 -6.10352e-05 13.3333 0.596893 13.3333 1.33327V7.33327H10.6667C9.93029 7.33327 9.33333 7.93023 9.33333 8.66661V15.3333C9.33381 15.5052 9.36754 15.6755 9.43267 15.8346C9.28049 15.9645 9.14859 16.1164 9.04133 16.2853L4.294 23.9999H2.66667C1.19391 23.9999 0 25.1938 0 26.6666V31.3333C0 32.4378 0.895431 33.3333 2 33.3333H4.66667C4.6665 34.5887 5.17382 35.7909 6.07333 36.6666H4.66667C4.29848 36.6666 4 36.9651 4 37.3333C4 37.7015 4.29848 37.9999 4.66667 37.9999H9.33333C11.9094 37.997 13.9971 35.9094 14 33.3333H24.6667C24.6665 34.5887 25.1738 35.7909 26.0733 36.6666H24.6667C24.2985 36.6666 24 36.9651 24 37.3333C24 37.7015 24.2985 37.9999 24.6667 37.9999H29.3333C31.9094 37.997 33.9971 35.9094 34 33.3333H38C39.1046 33.3333 40 32.4378 40 31.3333V26.6666C40 25.1938 38.8061 23.9999 37.3333 23.9999ZM37.3333 25.3333C38.0697 25.3333 38.6667 25.9302 38.6667 26.6666H36V25.3333H37.3333ZM25.3433 16.6666C25.3832 16.672 25.4225 16.6812 25.4607 16.6939L22.9067 18.8206C22.6235 19.0562 22.585 19.4768 22.8207 19.7599C23.0563 20.0431 23.4769 20.0816 23.76 19.8459L26.416 17.6339L27.3733 18.8786L24.24 21.4873C24.0568 21.6397 23.9689 21.8783 24.0094 22.1131C24.0498 22.3479 24.2124 22.5434 24.436 22.6258C24.6596 22.7082 24.9102 22.665 25.0933 22.5126L28.1867 19.9366L31.3127 23.9999H20.6667V16.6666H25.3433ZM11.3333 23.9999V16.6666H19.3333V23.9999H11.3333ZM24 15.3333H18.6667V9.99994H20.6667V11.3333C20.6667 11.7015 20.9651 11.9999 21.3333 11.9999C21.7015 11.9999 22 11.7015 22 11.3333V9.99994H24V15.3333ZM18.6667 1.33327V3.58794L18.298 3.40327C18.1104 3.30953 17.8896 3.30953 17.702 3.40327L17.3333 3.58794V1.33327H18.6667ZM14.6667 1.33327H16V4.66661C15.9999 4.89769 16.1195 5.11234 16.316 5.23389C16.5125 5.35545 16.758 5.36657 16.9647 5.26327L18 4.74527L19.0353 5.26327C19.242 5.36657 19.4875 5.35545 19.684 5.23389C19.8805 5.11234 20.0001 4.89769 20 4.66661V1.33327H21.3333V8.66661H18.6667C18.6667 7.93023 18.0697 7.33327 17.3333 7.33327H14.6667V1.33327ZM14.6667 8.66661V10.9213L14.298 10.7366C14.1104 10.6429 13.8896 10.6429 13.702 10.7366L13.3333 10.9213V8.66661H14.6667ZM10.6667 8.66661H12V11.9999C11.9999 12.231 12.1195 12.4457 12.316 12.5672C12.5125 12.6888 12.758 12.6999 12.9647 12.5966L14 12.0786L15.0353 12.5966C15.242 12.6999 15.4875 12.6888 15.684 12.5672C15.8805 12.4457 16.0001 12.231 16 11.9999V8.66661H17.3333V15.3333H10.6667V8.66661ZM10 17.2719V23.9999H5.86L10 17.2719ZM2.66667 25.3333V26.6666H1.33333C1.33333 25.9302 1.93029 25.3333 2.66667 25.3333ZM9.33333 36.6666C7.49238 36.6666 6 35.1742 6 33.3333C6 31.4923 7.49238 29.9999 9.33333 29.9999C11.1743 29.9999 12.6667 31.4923 12.6667 33.3333C12.6645 35.1733 11.1734 36.6644 9.33333 36.6666ZM29.3333 36.6666C27.4924 36.6666 26 35.1742 26 33.3333C26 31.4923 27.4924 29.9999 29.3333 29.9999C31.1743 29.9999 32.6667 31.4923 32.6667 33.3333C32.6645 35.1733 31.1734 36.6644 29.3333 36.6666ZM38 31.9999H33.8C33.2043 30.0313 31.3901 28.6848 29.3333 28.6848C27.2766 28.6848 25.4623 30.0313 24.8667 31.9999H20.6667V27.3333C20.6667 26.9651 20.3682 26.6666 20 26.6666C19.6318 26.6666 19.3333 26.9651 19.3333 27.3333V31.9999H13.8C13.2043 30.0313 11.3901 28.6848 9.33333 28.6848C7.27658 28.6848 5.46234 30.0313 4.86667 31.9999H2C1.63181 31.9999 1.33333 31.7015 1.33333 31.3333V30.6666H2C2.36819 30.6666 2.66667 30.3681 2.66667 29.9999C2.66667 29.6318 2.36819 29.3333 2 29.3333H1.33333V27.9999H2.66667C3.40305 27.9999 4 27.403 4 26.6666V25.3333H34.6667V26.6666C34.6667 27.403 35.2636 27.9999 36 27.9999H38.6667V29.3333H37.3333C36.9651 29.3333 36.6667 29.6318 36.6667 29.9999C36.6667 30.3681 36.9651 30.6666 37.3333 30.6666H38.6667V31.3333C38.6667 31.7015 38.3682 31.9999 38 31.9999Z" fill="#2062B0"/>
</svg>
