<svg width="24" height="24" viewBox="0 0 24 24" fill="none" xmlns="http://www.w3.org/2000/svg">
<g opacity="0.5">
<path d="M20.7891 19.6969L15.7828 14.6438C16.7625 13.4157 17.3531 11.8594 17.3531 10.1672C17.3531 6.2063 14.1422 2.99536 10.1766 2.99536C6.21094 2.99536 3 6.21099 3 10.1719C3 14.1329 6.21094 17.3438 10.1766 17.3438C11.8922 17.3438 13.4625 16.7438 14.7 15.7407L19.6734 20.761C19.8234 20.9204 20.0297 21.0001 20.2313 21.0001C20.4234 21.0001 20.6156 20.9297 20.7609 20.7891C21.0703 20.4938 21.0797 20.0063 20.7891 19.6969V19.6969ZM10.1766 15.8016C8.67188 15.8016 7.25625 15.2157 6.19219 14.1516C5.12813 13.0876 4.54219 11.6719 4.54219 10.1719C4.54219 8.66724 5.12813 7.25161 6.19219 6.19224C7.25625 5.12818 8.67188 4.54224 10.1766 4.54224C11.6813 4.54224 13.0969 5.12818 14.1609 6.19224C15.225 7.2563 15.8109 8.67193 15.8109 10.1719C15.8109 11.6766 15.225 13.0922 14.1609 14.1516C13.0969 15.2157 11.6813 15.8016 10.1766 15.8016V15.8016Z" fill="#999999"/>
</g>
</svg>
