<svg width="394" height="270" viewBox="0 0 394 270" fill="none" xmlns="http://www.w3.org/2000/svg">
<path d="M357.24 37.1106L356.045 223.828L122.491 222.329L123.69 35.6118L357.24 37.1106Z" fill="#F5F5F5"/>
<path d="M130.618 210.624L347.763 212.021L348.81 48.8095L131.669 47.4151L130.618 210.624Z" fill="#E92C28"/>
<path d="M322.991 17.6135L321.795 204.331L88.2417 202.829L89.4407 16.1147L322.991 17.6135Z" fill="#F5F5F5"/>
<path d="M96.3677 191.126L313.512 192.523L314.56 29.3148L97.4185 27.9171L96.3677 191.126Z" fill="#E92C28"/>
<path d="M292.491 1.49875L291.292 188.216L57.7417 186.718L58.9373 -2.94715e-05L292.491 1.49875Z" fill="#F5F5F5"/>
<path d="M65.8687 175.016L283.01 176.41L284.057 13.2015L66.9161 11.8072L65.8687 175.016Z" fill="#E92C28"/>
<path d="M258.241 21.5569L257.042 208.274L23.4922 206.772L24.6878 20.0581L258.241 21.5569Z" fill="#F5F5F5"/>
<path d="M31.6152 195.07L248.76 196.465L249.807 33.2562L32.6661 31.8619L31.6152 195.07Z" fill="#455A64"/>
<path d="M393.059 270H258.059V90H393.059V270Z" fill="#263238"/>
<path d="M163.508 132.153H106.174C99.3168 132.153 93.7629 126.599 93.7629 119.745C93.7629 112.891 99.3168 107.337 106.174 107.337H163.508C170.359 107.337 175.916 112.891 175.916 119.745C175.916 126.599 170.359 132.153 163.508 132.153ZM0 270H269.676V89.4865H0V270Z" fill="#E92C28"/>
</svg>
