<svg width="16" height="14" viewBox="0 0 16 14" fill="none" xmlns="http://www.w3.org/2000/svg">
<path d="M14.0924 0.390539C13.8973 0.399144 13.7156 0.455953 13.5557 0.520617C13.4058 0.580896 12.8333 0.826461 11.9314 1.2132C11.0288 1.60027 9.83369 2.11338 8.55879 2.66163C6.00898 3.75814 3.14233 4.99242 1.67402 5.62413C1.61881 5.64788 1.42616 5.70942 1.22168 5.86906C1.0172 6.02869 0.799805 6.35947 0.799805 6.72804C0.799805 7.02524 0.941445 7.32051 1.11973 7.49679C1.29801 7.67307 1.48665 7.76016 1.64824 7.82609C2.23454 8.06531 4.05291 8.80943 4.39629 8.94991C4.51713 9.3201 5.1753 11.3334 5.32793 11.8269C5.42854 12.1525 5.52432 12.3564 5.64902 12.5183C5.71137 12.5992 5.78385 12.6701 5.87168 12.7257C5.90678 12.7479 5.94528 12.765 5.98418 12.7808L5.98652 12.7819C5.99549 12.7855 6.00321 12.7917 6.0123 12.7948C6.02945 12.8008 6.04093 12.8016 6.06387 12.8066C6.15526 12.8361 6.24753 12.8546 6.32988 12.8546C6.68098 12.8546 6.8959 12.6612 6.8959 12.6612L6.90879 12.6519L8.71465 11.0898L10.9049 13.1616C10.9357 13.2052 11.2233 13.5999 11.8576 13.5999C12.2342 13.5999 12.533 13.4109 12.7248 13.2097C12.9166 13.0084 13.0361 12.797 13.0869 12.5312V12.53C13.1344 12.2788 15.1529 1.91632 15.1529 1.91632L15.1494 1.93038C15.2085 1.66068 15.224 1.4095 15.1588 1.16163C15.0936 0.913768 14.9218 0.676449 14.7088 0.548742C14.4958 0.421065 14.2874 0.381935 14.0924 0.390539ZM13.9799 1.64445C13.977 1.66196 13.982 1.65315 13.9775 1.67374L13.9764 1.68077L13.9752 1.6878C13.9752 1.6878 11.9817 11.9177 11.908 12.3073C11.9134 12.2779 11.8887 12.3364 11.8635 12.3718C11.8277 12.3472 11.7545 12.3155 11.7545 12.3155L11.7428 12.3026L8.75098 9.47257L6.63574 11.3007L7.26504 8.78116C7.26504 8.78116 11.1987 4.70918 11.4357 4.47218C11.6265 4.28258 11.6666 4.21649 11.6666 4.15109C11.6666 4.06349 11.6209 3.99991 11.5189 3.99991C11.4271 3.99991 11.3037 4.08916 11.2377 4.13116C10.3778 4.67929 6.6029 6.8794 4.91074 7.86359C4.64183 7.75354 2.7736 6.9888 2.14043 6.73038C2.14522 6.72828 2.14365 6.72903 2.14863 6.72687C3.61732 6.09499 6.48278 4.86071 9.03223 3.76437C10.3069 3.21619 11.503 2.70269 12.4049 2.31593C13.2929 1.93513 13.9099 1.67305 13.9799 1.64445Z" fill="#2B7EE0"/>
</svg>
