<svg width="32" height="32" viewBox="0 0 32 32" fill="none" xmlns="http://www.w3.org/2000/svg">
<path d="M29.513 12.8069C30.0924 12.2421 30.297 11.4131 30.047 10.6436C29.7969 9.87399 29.1442 9.32368 28.3434 9.20736L21.3415 8.18993C21.2041 8.16999 21.0853 8.08368 21.0238 7.95905L17.8925 1.61436C17.5344 0.888738 16.8093 0.437988 16.0001 0.437988C15.1909 0.437988 14.4658 0.888738 14.1077 1.61436L10.9764 7.95911C10.9149 8.08368 10.7961 8.16999 10.6586 8.18999L3.65686 9.20736C2.85611 9.32368 2.20342 9.87399 1.9533 10.6436C1.70317 11.4131 1.9078 12.2421 2.4873 12.8069L7.55386 17.7456C7.6533 17.8426 7.69873 17.9822 7.67523 18.1192L6.47917 25.0927C6.34242 25.8902 6.66404 26.6811 7.31867 27.1567C7.97329 27.6324 8.82504 27.6939 9.54117 27.3174L15.8037 24.025C15.9267 23.9603 16.0735 23.9603 16.1966 24.025L22.4592 27.3174C22.7707 27.4812 23.1078 27.5621 23.4432 27.5621C23.8789 27.5621 24.3117 27.4256 24.6815 27.1566C25.3362 26.6809 25.6579 25.8901 25.521 25.0926L24.325 18.1191C24.3015 17.9822 24.3469 17.8425 24.4464 17.7455L29.513 12.8069ZM22.6612 18.4046L23.8572 25.3782C23.8972 25.6116 23.7532 25.7447 23.6894 25.791C23.6255 25.8372 23.4544 25.9333 23.2449 25.8231L16.9822 22.5306C16.6748 22.3691 16.3375 22.2882 16.0002 22.2882C15.6629 22.2882 15.3256 22.369 15.0182 22.5306L8.75567 25.8229C8.54605 25.9331 8.37498 25.8372 8.31117 25.7909C8.24736 25.7446 8.10323 25.6115 8.14329 25.3781L9.33936 18.4046C9.45679 17.7199 9.22998 17.0217 8.73242 16.5367L3.66586 11.5981C3.4963 11.4327 3.53467 11.2404 3.55911 11.1654C3.58342 11.0903 3.66548 10.9121 3.8998 10.8781L10.9015 9.86068C11.5889 9.7608 12.183 9.3293 12.4905 8.70624L15.6218 2.36149C15.7266 2.14918 15.9214 2.12624 16.0003 2.12624C16.0791 2.12624 16.2739 2.14911 16.3787 2.36149V2.36155L19.51 8.7063C19.8175 9.32936 20.4115 9.76086 21.0989 9.86074L28.1007 10.8782C28.335 10.9122 28.417 11.0904 28.4414 11.1654C28.4658 11.2405 28.5042 11.4329 28.3346 11.5981L23.268 16.5368C22.7705 17.0217 22.5437 17.7199 22.6612 18.4046Z" fill="black"/>
<path d="M25.8614 1.61413C25.4841 1.34013 24.9563 1.42376 24.6823 1.80088L23.7863 3.03413C23.5123 3.41126 23.5958 3.9392 23.973 4.2132C24.123 4.32201 24.2965 4.37445 24.4685 4.37445C24.7296 4.37445 24.987 4.25376 25.1521 4.02651L26.0481 2.79326C26.3221 2.41607 26.2386 1.88813 25.8614 1.61413Z" fill="black"/>
<path d="M8.20975 3.02916L7.31369 1.79591C7.03975 1.41891 6.51187 1.33528 6.13462 1.60916C5.7575 1.88316 5.67387 2.4111 5.94787 2.78822L6.84394 4.02147C7.00913 4.24891 7.2665 4.36954 7.52763 4.36954C7.69969 4.36954 7.87332 4.3171 8.02307 4.20822C8.40019 3.93429 8.48382 3.40635 8.20975 3.02916Z" fill="black"/>
<path d="M3.09699 19.3767C2.95292 18.9334 2.47674 18.6907 2.0333 18.8348L0.583487 19.3059C0.14005 19.4499 -0.102513 19.9263 0.0415499 20.3696C0.157425 20.7264 0.488362 20.9531 0.844175 20.9531C0.930612 20.9531 1.01855 20.9397 1.10524 20.9115L2.55505 20.4404C2.99843 20.2963 3.24105 19.8201 3.09699 19.3767Z" fill="black"/>
<path d="M16.0004 28.749C15.5342 28.749 15.1562 29.127 15.1562 29.5931V31.1176C15.1562 31.5838 15.5342 31.9618 16.0004 31.9618C16.4666 31.9618 16.8445 31.5838 16.8445 31.1176V29.5931C16.8445 29.1269 16.4666 28.749 16.0004 28.749Z" fill="black"/>
<path d="M31.4166 19.3071L29.9668 18.8359C29.5236 18.692 29.0472 18.9345 28.9031 19.3779C28.7591 19.8214 29.0016 20.2976 29.4451 20.4416L30.8949 20.9127C30.9816 20.9409 31.0694 20.9542 31.1559 20.9542C31.5118 20.9542 31.8427 20.7274 31.9586 20.3707C32.1026 19.9273 31.86 19.4511 31.4166 19.3071Z" fill="black"/>
</svg>
