<svg width="32" height="32" viewBox="0 0 32 32" fill="none" xmlns="http://www.w3.org/2000/svg">
<path d="M20.5528 23.0458C20.2163 22.8436 19.871 22.6404 19.5257 22.4411C19.6069 21.7492 19.6071 21.0494 19.5261 20.3589C19.8727 20.1589 20.2178 19.9557 20.5526 19.7544C21.1164 19.4157 21.3514 18.7009 21.0991 18.0917C21.0991 18.0917 21.0991 18.0917 21.0991 18.0917L20.3634 16.3155C20.1111 15.7065 19.4398 15.3671 18.8013 15.5262C18.4219 15.6206 18.0342 15.721 17.6479 15.8247C17.2166 15.2789 16.7216 14.7841 16.1752 14.3525C16.2788 13.9662 16.3793 13.5783 16.4738 13.1987C16.6329 12.5605 16.2935 11.889 15.6845 11.6367L13.9084 10.901C13.2994 10.6487 12.5845 10.8835 12.2456 11.4474C12.0438 11.7832 11.8405 12.1285 11.641 12.4744C10.9493 12.3932 10.2495 12.393 9.55871 12.474C9.35858 12.127 9.15539 11.7819 8.95433 11.4474C8.61533 10.8836 7.90058 10.6487 7.29152 10.901L5.5154 11.6367C4.90652 11.889 4.56702 12.5605 4.72608 13.1987C4.82077 13.579 4.92114 13.9668 5.02458 14.3522C4.47889 14.7834 3.98402 15.2784 3.55252 15.8249C3.16527 15.7209 2.7774 15.6205 2.39858 15.5262C1.76021 15.367 1.08883 15.7067 0.83652 16.3156L0.100958 18.0917C-0.15123 18.7007 0.0837077 19.4155 0.647333 19.7543C0.98327 19.9562 1.32858 20.1594 1.6744 20.359C1.59327 21.0506 1.59308 21.7504 1.67402 22.4412C1.3279 22.6409 0.98277 22.8441 0.647208 23.0457C0.0835827 23.3845 -0.151355 24.0993 0.100895 24.7084L0.836645 26.4846C1.0889 27.0935 1.76008 27.4331 2.39871 27.2739C2.77771 27.1796 3.16546 27.0792 3.55202 26.9754C3.98333 27.5211 4.47827 28.0159 5.02471 28.4475C4.92096 28.8343 4.82052 29.2222 4.72608 29.6013C4.56702 30.2395 4.90639 30.9111 5.5154 31.1633L7.29158 31.8991C7.45658 31.9674 7.62927 32 7.80015 32C8.26027 32 8.70727 31.7638 8.95458 31.3528C9.15489 31.0195 9.35808 30.6743 9.55921 30.3258C10.2508 30.4069 10.9507 30.407 11.6415 30.3262C11.8401 30.6707 12.0433 31.0158 12.2458 31.3529C12.5847 31.9166 13.2995 32.1514 13.9086 31.8992L15.6848 31.1635C16.2936 30.9112 16.6331 30.2397 16.4741 29.6015C16.3801 29.2244 16.2798 28.8367 16.1756 28.4481C16.7211 28.0169 17.2161 27.5219 17.6477 26.9754C18.0338 27.079 18.4217 27.1794 18.8015 27.274C19.4396 27.4332 20.1112 27.0937 20.3635 26.4846L21.0992 24.7084C21.3513 24.0994 21.1164 23.3846 20.5528 23.0458ZM19.0698 25.8646C18.705 25.7732 18.3331 25.6766 17.9633 25.577C17.4398 25.4362 16.8874 25.6202 16.5559 26.0462C16.1749 26.5356 15.734 26.9766 15.2454 27.357C14.82 27.6884 14.6361 28.2406 14.7771 28.7638C14.8773 29.1359 14.9738 29.5076 15.0646 29.8698L13.432 30.546C13.2378 30.222 13.0434 29.8909 12.8533 29.5607C12.5829 29.0911 12.0624 28.8308 11.5273 28.8971C10.9129 28.9734 10.2892 28.9733 9.67396 28.8967C9.13739 28.8301 8.61733 29.0904 8.34696 29.5601C8.15458 29.8941 7.96008 30.2254 7.76802 30.5459L6.1354 29.8697C6.22671 29.5055 6.32333 29.1337 6.42308 28.7634C6.56402 28.2399 6.37983 27.6874 5.9539 27.3559C5.46452 26.9749 5.02358 26.5341 4.64308 26.0456C4.31183 25.62 3.75958 25.4362 3.23621 25.5771C2.86602 25.6768 2.49433 25.7734 2.13027 25.8647L1.45402 24.2321C1.77652 24.0387 2.10771 23.8443 2.43933 23.6534C2.90902 23.3829 3.16952 22.8625 3.10302 22.3274C3.02658 21.7129 3.02677 21.0893 3.10321 20.474C3.16996 19.9384 2.90965 19.4174 2.43971 19.1469C2.10821 18.956 1.77696 18.7615 1.45396 18.5679L2.13021 16.9353C2.49396 17.0265 2.86571 17.1231 3.23658 17.2229C3.75983 17.3639 4.31233 17.1797 4.64408 16.7537C5.02502 16.2644 5.46596 15.8234 5.95439 15.443C6.37989 15.1117 6.56371 14.5594 6.42277 14.036C6.3234 13.667 6.22677 13.2954 6.13521 12.9301L7.76783 12.2539C7.96058 12.5755 8.15508 12.9067 8.34652 13.2392C8.61702 13.7089 9.13796 13.9698 9.67252 13.9029C10.2867 13.8264 10.9103 13.8264 11.5261 13.9032C12.062 13.9699 12.5826 13.7093 12.853 13.2396C13.0438 12.9081 13.2384 12.5769 13.4319 12.2539L15.0645 12.9301C14.9731 13.2947 14.8765 13.6665 14.7768 14.0365C14.6359 14.5599 14.8201 15.1124 15.246 15.444C15.7353 15.8249 16.1763 16.2658 16.5568 16.7543C16.8881 17.1797 17.4401 17.3635 17.9638 17.2227C18.3337 17.123 18.7053 17.0264 19.0696 16.9351L19.7458 18.5677C19.4238 18.7607 19.0926 18.9552 18.7605 19.1464C18.2908 19.4169 18.0303 19.9373 18.0968 20.4724C18.1733 21.0866 18.1731 21.7103 18.0965 22.326C18.0299 22.8617 18.2903 23.3825 18.7601 23.6529C19.0911 23.8435 19.4223 24.038 19.7458 24.2319L19.0698 25.8646Z" fill="black"/>
<path d="M15.11 19.5319C15.11 19.5319 15.11 19.5319 15.11 19.5319C14.08 17.0451 11.219 15.8599 8.73178 16.8899C6.24503 17.9201 5.05978 20.7813 6.08991 23.2681C6.58885 24.4729 7.52722 25.4111 8.73185 25.9101C9.33416 26.1596 9.96703 26.2843 10.5999 26.2843C11.2328 26.2843 11.8657 26.1596 12.4681 25.9101C14.9548 24.88 16.14 22.0188 15.11 19.5319ZM11.9199 24.5868C11.0688 24.9393 10.1313 24.9393 9.27997 24.5868C8.42885 24.2342 7.76591 23.5712 7.41328 22.72C6.68535 20.9629 7.52285 18.9411 9.28003 18.2133C9.71035 18.0351 10.1563 17.9507 10.5955 17.9507C11.9497 17.9507 13.237 18.7532 13.7867 20.0801C14.5145 21.8372 13.677 23.8589 11.9199 24.5868Z" fill="black"/>
<path d="M31.0346 6.3085C30.7874 6.2715 30.5334 6.23556 30.2777 6.20144C30.1488 5.77287 29.9767 5.35738 29.7643 4.96275C29.9208 4.75806 30.075 4.553 30.2241 4.35156C30.555 3.904 30.5072 3.26925 30.1129 2.87512L29.1249 1.88725C28.7305 1.49287 28.0958 1.44506 27.6484 1.77612C27.4462 1.92569 27.2412 2.07987 27.0372 2.23581C26.6426 2.02344 26.2272 1.85131 25.7985 1.72238C25.7643 1.46662 25.7285 1.21269 25.6915 0.9655C25.6092 0.415125 25.1265 0 24.5689 0H23.1717C22.614 0 22.1314 0.415125 22.0491 0.965437C22.0122 1.2125 21.9763 1.4665 21.9421 1.72231C21.5134 1.85125 21.0979 2.02338 20.7034 2.23575C20.4995 2.07975 20.2944 1.9255 20.0923 1.77606C19.6447 1.445 19.01 1.49281 18.6158 1.88713L17.6279 2.87494C17.2335 3.26919 17.1856 3.904 17.5167 4.35162C17.6656 4.553 17.8199 4.75812 17.9763 4.96275C17.764 5.35731 17.5919 5.77275 17.4629 6.20144C17.2072 6.23562 16.9532 6.2715 16.706 6.3085C16.1556 6.39087 15.7405 6.87344 15.7405 7.43113V8.82831C15.7405 9.38594 16.1555 9.86856 16.7059 9.95094C16.9532 9.98794 17.2071 10.0239 17.4629 10.058C17.5918 10.4866 17.7639 10.9021 17.9762 11.2967C17.8199 11.5012 17.6657 11.7062 17.5164 11.9079C17.1855 12.3553 17.2334 12.9902 17.6277 13.3842L18.6157 14.3722C19.0099 14.7666 19.6447 14.8144 20.0922 14.4834C20.2943 14.3339 20.4993 14.1796 20.7033 14.0238C21.098 14.2361 21.5135 14.4082 21.942 14.5371C21.9761 14.7928 22.012 15.0468 22.049 15.2941C22.1314 15.8444 22.614 16.2596 23.1717 16.2596H24.5689C25.1265 16.2596 25.6092 15.8446 25.6915 15.294C25.7284 15.0468 25.7643 14.7928 25.7985 14.5371C26.2271 14.4082 26.6425 14.236 27.0372 14.0236C27.2411 14.1796 27.4462 14.3339 27.6483 14.4834C28.0957 14.8144 28.7306 14.7666 29.1248 14.3723L30.1128 13.3844C30.5071 12.9902 30.555 12.3554 30.2239 11.9078C30.0748 11.7062 29.9205 11.5011 29.7643 11.2968C29.9765 10.9022 30.1487 10.4868 30.2777 10.0581C30.5334 10.0239 30.7874 9.988 31.0345 9.951C31.585 9.86863 32.0001 9.38606 32.0001 8.82837V7.43119C32 6.8735 31.585 6.39087 31.0346 6.3085ZM30.6393 8.63387C30.4148 8.66644 30.1857 8.69806 29.9559 8.728C29.5014 8.78731 29.1292 9.10994 29.0081 9.54981C28.892 9.971 28.7236 10.3774 28.5075 10.7578C28.2819 11.1549 28.3167 11.6462 28.5962 12.0098C28.7372 12.1931 28.877 12.3775 29.013 12.5597L28.3003 13.2726C28.1175 13.1361 27.933 12.9964 27.7502 12.8558C27.3868 12.5761 26.8953 12.5415 26.4982 12.7669C26.1177 12.9831 25.7113 13.1515 25.2904 13.2676C24.8502 13.3888 24.5276 13.7609 24.4685 14.2154C24.4385 14.4452 24.407 14.6743 24.3744 14.8988H23.3662C23.3337 14.6743 23.3021 14.4452 23.2721 14.2156C23.2128 13.761 22.8902 13.3889 22.4502 13.2676C22.0292 13.1516 21.6229 12.9832 21.2423 12.7671C20.8452 12.5414 20.3537 12.5761 19.9904 12.8558C19.8074 12.9964 19.6231 13.1361 19.4402 13.2726L18.7274 12.5597C18.8635 12.3773 19.0032 12.193 19.1444 12.0096C19.4237 11.6461 19.4585 11.1547 19.2329 10.7577C19.0169 10.3773 18.8484 9.97081 18.7324 9.54975C18.6112 9.10975 18.2391 8.78719 17.7845 8.72787C17.5547 8.69788 17.3256 8.66638 17.1011 8.63369V7.62569C17.3256 7.59312 17.5547 7.5615 17.7845 7.53156C18.239 7.47225 18.6112 7.14963 18.7323 6.70975C18.8484 6.28863 19.0167 5.88219 19.2329 5.50175C19.4585 5.10469 19.4237 4.61325 19.1443 4.24981C19.0031 4.06631 18.8634 3.88194 18.7274 3.69981L19.4402 2.987C19.623 3.12344 19.8074 3.26319 19.9902 3.40375C20.3534 3.68344 20.8449 3.71831 21.2423 3.49262C21.6226 3.27656 22.0291 3.10813 22.4501 2.992C22.8902 2.87075 23.2129 2.49863 23.272 2.04419C23.302 1.81438 23.3336 1.58531 23.3662 1.36081H24.3743C24.4069 1.58525 24.4384 1.81431 24.4684 2.044C24.5277 2.49862 24.8503 2.87075 25.2902 2.99194C25.7114 3.108 26.1179 3.2765 26.4982 3.49256C26.8954 3.71825 27.3869 3.68319 27.7501 3.40381C27.933 3.26319 28.1174 3.12344 28.3003 2.987L29.013 3.69981C28.8771 3.882 28.7374 4.06644 28.5962 4.25C28.3167 4.61338 28.282 5.10475 28.5075 5.50181C28.7235 5.88231 28.892 6.28881 29.008 6.70981C29.1292 7.14981 29.5013 7.47238 29.9559 7.53169C30.1857 7.56169 30.4148 7.59325 30.6393 7.62587V8.63387Z" fill="black"/>
<path d="M23.8703 5.22974C22.2712 5.22974 20.9702 6.53067 20.9702 8.1298C20.9702 9.72899 22.2712 11.0299 23.8703 11.0299C25.4694 11.0299 26.7703 9.72899 26.7703 8.1298C26.7703 6.53067 25.4694 5.22974 23.8703 5.22974ZM23.8703 9.74074C22.9821 9.74074 22.2593 9.01805 22.2593 8.12974C22.2593 7.24142 22.982 6.5188 23.8703 6.5188C24.7585 6.5188 25.4812 7.24149 25.4812 8.12974C25.4812 9.01805 24.7585 9.74074 23.8703 9.74074Z" fill="black"/>
</svg>
