<svg width="32" height="33" viewBox="0 0 32 33" fill="none" xmlns="http://www.w3.org/2000/svg">
<path d="M29.8513 8.20316C27.7153 4.50366 24.2666 1.85723 20.1402 0.751602C16.0139 -0.354148 11.704 0.21329 8.00435 2.34935C4.30473 4.48535 1.65841 7.9341 0.552788 12.0605C-0.552837 16.1868 0.014601 20.4968 2.15054 24.1963C4.28641 27.8958 7.73529 30.5422 11.8616 31.6479C13.2395 32.0171 14.6377 32.1997 16.027 32.1997C18.7982 32.1997 21.5333 31.4729 23.9975 30.0502C27.697 27.9142 30.3435 24.4655 31.4491 20.3391C32.5548 16.2127 31.9872 11.9028 29.8513 8.20316ZM29.8402 19.908C28.8497 23.6047 26.479 26.6944 23.1646 28.6079C19.8503 30.5214 15.9892 31.0297 12.2926 30.0393C8.59591 29.0488 5.50629 26.678 3.59273 23.3637C1.67923 20.0494 1.17091 16.1882 2.16148 12.4915C3.15204 8.79492 5.52279 5.70535 8.8371 3.79173C11.0449 2.51704 13.4949 1.86598 15.9777 1.86598C17.222 1.86598 18.4751 2.0296 19.709 2.36029C23.4057 3.35079 26.4953 5.72154 28.4088 9.03591C30.3224 12.3502 30.8308 16.2114 29.8402 19.908Z" fill="black"/>
<path d="M23.6736 14.6907L13.3907 8.75384C12.8451 8.43877 12.1936 8.4389 11.6479 8.75377C11.1022 9.06877 10.7764 9.63309 10.7764 10.2631V22.1369C10.7764 22.767 11.1021 23.3312 11.6479 23.6463C11.9207 23.8038 12.2199 23.8825 12.5192 23.8825C12.8186 23.8825 13.1179 23.8037 13.3907 23.6462L23.6737 17.7094C24.2193 17.3943 24.545 16.83 24.545 16.2C24.545 15.57 24.2192 15.0057 23.6736 14.6907ZM22.8407 16.2671L12.5578 22.2039C12.5452 22.2112 12.5191 22.2263 12.4806 22.2039C12.4419 22.1816 12.4419 22.1515 12.4419 22.137V10.2632C12.4419 10.2487 12.4419 10.2186 12.4806 10.1963C12.4957 10.1875 12.5089 10.1845 12.5201 10.1845C12.5376 10.1845 12.5502 10.1918 12.5579 10.1963L22.8408 16.1332C22.8534 16.1404 22.8794 16.1555 22.8794 16.2001C22.8794 16.2447 22.8532 16.2598 22.8407 16.2671Z" fill="black"/>
<path d="M25.8313 8.60251C23.8507 6.04389 20.8734 4.32488 17.6627 3.8862C17.2075 3.82388 16.7871 4.14282 16.7248 4.59863C16.6626 5.05432 16.9815 5.4742 17.4372 5.53651C20.2192 5.91657 22.7987 7.40582 24.5142 9.62208C24.6784 9.83408 24.9245 9.94508 25.1734 9.94508C25.3514 9.94508 25.5309 9.88826 25.6825 9.77076C26.0462 9.48926 26.1128 8.9662 25.8313 8.60251Z" fill="black"/>
</svg>
